<svg xmlns="http://www.w3.org/2000/svg" viewBox="0 0 512 512">
  <path
    d="M478.609 512H33.391c-6.147 0-11.13-4.983-11.13-11.13V66.783c0-24.588 19.933-44.522 44.522-44.522h378.435c24.588 0 44.522 19.933 44.522 44.522V500.87c-.001 6.147-4.984 11.13-11.131 11.13z"
    fill="#ffffae" />
  <path d="M489.739 512H22.261v-66.783h467.478V512z" fill="#c5d57b" />
  <path
    d="M219.826 381.217v122.435a8.349 8.349 0 01-16.696 0V381.217a8.349 8.349 0 0116.696 0zm-130.783-64a8.349 8.349 0 00-8.348 8.348v178.087a8.349 8.349 0 0016.696 0V325.565a8.348 8.348 0 00-8.348-8.348zM19.478 417.391a8.349 8.349 0 00-8.348 8.348v77.913a8.349 8.349 0 0016.696 0v-77.913a8.349 8.349 0 00-8.348-8.348zm105.739 22.261a8.349 8.349 0 00-8.348 8.348v55.652a8.349 8.349 0 0016.696 0V448a8.348 8.348 0 00-8.348-8.348zm186.435-178.087a8.349 8.349 0 00-8.348 8.348v233.739a8.349 8.349 0 0016.696 0V269.913a8.349 8.349 0 00-8.348-8.348zM445.217 395.13a8.349 8.349 0 00-8.348 8.348v100.174a8.349 8.349 0 0016.696 0V403.478a8.348 8.348 0 00-8.348-8.348zm47.305 44.522a8.349 8.349 0 00-8.348 8.348v55.652a8.349 8.349 0 0016.696 0V448a8.349 8.349 0 00-8.348-8.348zm-133.565-22.261a8.349 8.349 0 00-8.348 8.348v77.913a8.349 8.349 0 0016.696 0v-77.913a8.35 8.35 0 00-8.348-8.348z"
    fill="#9fba41" />
  <path
    d="M512 503.652a8.349 8.349 0 01-8.348 8.348H8.348a8.349 8.349 0 010-16.696h495.304a8.349 8.349 0 018.348 8.348z"
    fill="#7f932a" />
  <path
    d="M512 345.043c0 36.883-29.9 66.783-66.783 66.783s-66.783-29.9-66.783-66.783 29.9-66.783 66.783-66.783S512 308.161 512 345.043z"
    fill="#c7faff" />
  <path
    d="M400.696 189.217c0 49.178-39.866 89.043-89.043 89.043s-89.043-39.866-89.043-89.043 39.866-89.043 89.043-89.043 89.043 39.866 89.043 89.043z"
    fill="#ffed8f" />
  <path
    d="M345.043 189.217c0 18.442-14.949 33.391-33.391 33.391s-33.391-14.949-33.391-33.391 14.949-33.391 33.391-33.391 33.391 14.949 33.391 33.391zM211.478 322.783c-18.442 0-33.391 14.949-33.391 33.391s14.949 33.391 33.391 33.391 33.391-14.949 33.391-33.391-14.949-33.391-33.391-33.391zm0-233.74c12.295 0 22.261-9.966 22.261-22.261s-9.966-22.261-22.261-22.261-22.261 9.966-22.261 22.261 9.967 22.261 22.261 22.261z"
    fill="#ffcd69" />
  <path
    d="M0 111.304C0 99.01 9.966 89.043 22.261 89.043s22.261 9.966 22.261 22.261-9.966 22.261-22.261 22.261S0 123.599 0 111.304zm105.739-33.391c21.515 0 38.957-17.441 38.957-38.957S127.254 0 105.739 0 66.783 17.441 66.783 38.957s17.441 38.956 38.956 38.956zm-16.696 77.913C39.866 155.826 0 195.692 0 244.87s39.866 89.043 89.043 89.043 89.043-39.866 89.043-89.043-39.865-89.044-89.043-89.044z"
    fill="#edaca9" />
  <path
    d="M122.435 244.87c0 18.442-14.949 33.391-33.391 33.391s-33.391-14.949-33.391-33.391 14.949-33.391 33.391-33.391 33.391 14.949 33.391 33.391z"
    fill="#de9892" />
  <path
    d="M175.304 130.783v1.113a8.349 8.349 0 01-16.696 0v-1.113a8.349 8.349 0 0116.696 0zM267.13 0a8.349 8.349 0 00-8.348 8.348v1.113a8.349 8.349 0 0016.696 0V8.348A8.348 8.348 0 00267.13 0zm77.913 33.391a8.349 8.349 0 00-8.348 8.348v1.113a8.349 8.349 0 0016.696 0v-1.113a8.348 8.348 0 00-8.348-8.348z"
    fill="#ffcd69" />
  <path
    d="M498.087 257.67v1.113a8.349 8.349 0 01-16.696 0v-1.113a8.349 8.349 0 0116.696 0zm-52.87-36.174a8.349 8.349 0 00-8.348 8.348v1.113a8.349 8.349 0 0016.696 0v-1.113a8.347 8.347 0 00-8.348-8.348zm44.522-77.913a8.349 8.349 0 00-8.348 8.348v1.113a8.349 8.349 0 0016.696 0v-1.113a8.348 8.348 0 00-8.348-8.348zm-33.391-65.67A8.349 8.349 0 00448 86.261v1.113a8.349 8.349 0 0016.696 0v-1.113a8.349 8.349 0 00-8.348-8.348zm30.609-68.452V8.348a8.349 8.349 0 00-16.696 0v1.113a8.349 8.349 0 0016.696 0z"
    fill="#91c1a4" />
  <path
    d="M419.896 338.365v1.113a8.349 8.349 0 01-16.696 0v-1.113a8.349 8.349 0 0116.696 0zm-8.348 18.922a8.349 8.349 0 00-8.348 8.348v1.113a8.349 8.349 0 0016.696 0v-1.113a8.349 8.349 0 00-8.348-8.348zm26.713-17.809a8.349 8.349 0 00-8.348 8.348v1.113a8.349 8.349 0 0016.696 0v-1.113a8.349 8.349 0 00-8.348-8.348zm0-36.174a8.349 8.349 0 00-8.348 8.348v1.113a8.349 8.349 0 0016.696 0v-1.113a8.349 8.349 0 00-8.348-8.348zm0 67.339a8.349 8.349 0 00-8.348 8.348v1.113a8.349 8.349 0 0016.696 0v-1.113a8.349 8.349 0 00-8.348-8.348z"
    fill="#b0e6ff" /></svg>
