<?xml version="1.0" encoding="iso-8859-1"?>
<!-- Generator: Adobe Illustrator 19.0.0, SVG Export Plug-In . SVG Version: 6.00 Build 0)  -->
<svg version="1.1" id="Layer_1" xmlns="http://www.w3.org/2000/svg" xmlns:xlink="http://www.w3.org/1999/xlink" x="0px" y="0px"
	 viewBox="0 0 512 512" style="enable-background:new 0 0 512 512;" xml:space="preserve">
<path style="fill:#EAFFFF;" d="M489.739,66.783v378.435c0,24.588-19.934,44.522-44.522,44.522H66.783
	c-24.588,0-44.522-19.934-44.522-44.522V66.783c0-24.588,19.933-44.522,44.522-44.522h378.435
	C469.806,22.261,489.739,42.194,489.739,66.783z"/>
<path style="fill:#84837A;" d="M442.435,256c0,4.61-3.738,8.348-8.348,8.348c-10.74,0-19.478,8.738-19.478,19.478
	c0,4.61-3.738,8.348-8.348,8.348c-4.61,0-8.348-3.738-8.348-8.348c0-10.74-8.739-19.478-19.478-19.478
	c-4.61,0-8.348-3.738-8.348-8.348s3.738-8.348,8.348-8.348c11.176,0,21.186,5.096,27.826,13.084
	c6.64-7.988,16.65-13.084,27.826-13.084C438.697,247.652,442.435,251.39,442.435,256z"/>
<path style="fill:#A9D5BB;" d="M0,356.174h489.739c12.295,0,22.261,9.966,22.261,22.261v111.304
	c0,12.295-9.966,22.261-22.261,22.261H22.261C9.966,512,0,502.034,0,489.739V356.174z"/>
<path style="fill:#EAFFFF;" d="M283.826,403.478c0-4.61,3.738-8.348,8.348-8.348h100.174c4.61,0,8.348,3.738,8.348,8.348
	s-3.738,8.348-8.348,8.348H292.174C287.564,411.826,283.826,408.088,283.826,403.478z M481.391,395.13H436.87
	c-4.61,0-8.348,3.738-8.348,8.348s3.738,8.348,8.348,8.348h44.522c4.61,0,8.348-3.738,8.348-8.348S486.001,395.13,481.391,395.13z
	 M189.217,475.826H64.336c-4.61,0-8.348,3.738-8.348,8.348s3.738,8.348,8.348,8.348h124.881c4.61,0,8.348-3.738,8.348-8.348
	S193.828,475.826,189.217,475.826z M244.87,475.826h-22.261c-4.61,0-8.348,3.738-8.348,8.348s3.738,8.348,8.348,8.348h22.261
	c4.61,0,8.348-3.738,8.348-8.348S249.48,475.826,244.87,475.826z M333.913,434.087H111.304c-4.61,0-8.348,3.738-8.348,8.348
	s3.738,8.348,8.348,8.348h222.609c4.61,0,8.348-3.738,8.348-8.348S338.523,434.087,333.913,434.087z M456.348,434.087h-77.913
	c-4.61,0-8.348,3.738-8.348,8.348s3.738,8.348,8.348,8.348h77.913c4.61,0,8.348-3.738,8.348-8.348S460.958,434.087,456.348,434.087z
	"/>
<path style="fill:#FFFF81;" d="M417.391,0C469.642,0,512,42.358,512,94.609s-42.358,94.609-94.609,94.609
	s-94.609-42.358-94.609-94.609S365.141,0,417.391,0z"/>
<path style="fill:#FFF145;" d="M417.391,44.522c27.662,0,50.087,22.424,50.087,50.087s-22.424,50.087-50.087,50.087
	c-27.662,0-50.087-22.424-50.087-50.087S389.729,44.522,417.391,44.522z"/>
<path style="fill:#9FBA41;" d="M100.174,22.261h45.079C147.832,9.56,159.059,0,172.522,0h155.826
	c15.368,0,27.826,12.458,27.826,27.826l0,0c0,15.368-12.458,27.826-27.826,27.826h-55.652c0,18.442-14.949,33.391-33.391,33.391
	h-139.13c-18.442,0-33.391-14.949-33.391-33.391l0,0C66.783,37.21,81.732,22.261,100.174,22.261z"/>
<path style="fill:#A07040;" d="M197.137,58.292l-17.186,51.562c-4.173,12.518-15.842,20.93-29.038,20.93h-43.619
	c-6.609,0-12.347,4.704-13.643,11.184L76.9,221.818c-0.826,3.935-4.295,6.636-8.162,6.636c-0.569,0-1.144-0.058-1.722-0.179
	c-4.512-0.947-7.403-5.372-6.457-9.884l16.735-79.774c2.836-14.181,15.459-24.529,29.999-24.529h43.619
	c5.998,0,11.302-3.823,13.198-9.513l17.186-51.562c1.458-4.373,6.186-6.738,10.559-5.28
	C196.231,49.191,198.595,53.918,197.137,58.292z"/>
<path style="fill:#7F932A;" d="M238.748,89.043H100.174c-18.442,0-33.391-14.949-33.391-33.391l0,0
	c0-18.442,14.949-33.391,33.391-33.391h138.574c18.442,0,33.391,14.949,33.391,33.391l0,0
	C272.139,74.094,257.19,89.043,238.748,89.043z"/>
<path style="fill:#BCAE8A;" d="M256,358.914v19.521c0,12.295-9.966,22.261-22.261,22.261H22.261C9.966,400.696,0,390.729,0,378.435
	V267.13V244.87v-44.522c0-12.295,9.966-22.261,22.261-22.261h127.314c10.214,0,19.119,6.952,21.596,16.861l2.156,8.623
	c2.797,11.188,12.85,19.038,24.383,19.038h7.517c10.214,0,19.119,6.952,21.596,16.861l28.512,114.045
	C255.776,355.281,256,357.094,256,358.914z"/>
<path style="fill:#998C6E;" d="M150.817,256v111.304c0,4.61-3.738,8.348-8.348,8.348s-8.348-3.738-8.348-8.348V256
	c0-4.61,3.738-8.348,8.348-8.348S150.817,251.39,150.817,256z M55.652,281.043c-4.61,0-8.348,3.738-8.348,8.348v111.304H64V289.391
	C64,284.781,60.262,281.043,55.652,281.043z"/>
<path style="fill:#DBCB9C;" d="M331.214,356.507l6.915,27.66c3.513,14.05-7.113,27.66-21.596,27.66H155.826
	c-12.295,0-22.261-9.966-22.261-22.261v-22.261c0-24.588,19.933-44.522,44.522-44.522h109.934
	C308.451,322.783,326.259,336.687,331.214,356.507z"/>
<path style="fill:#BCAE8A;" d="M70.362,474.243l4.888,24.444C76.627,505.574,71.359,512,64.336,512H11.13
	C4.983,512,0,507.017,0,500.87v-22.261c0-12.295,9.966-22.261,22.261-22.261h26.272C59.145,456.348,68.281,463.837,70.362,474.243z"
	/>
<g>
</g>
<g>
</g>
<g>
</g>
<g>
</g>
<g>
</g>
<g>
</g>
<g>
</g>
<g>
</g>
<g>
</g>
<g>
</g>
<g>
</g>
<g>
</g>
<g>
</g>
<g>
</g>
<g>
</g>
</svg>
