<svg viewBox="0 0 512 512">
  <path
    d="M479.679 450.903H32.321C14.47 450.903 0 436.433 0 418.582v-287.55h512v287.551c0 17.85-14.47 32.32-32.321 32.32z"
    fill="#e8e8e8" />
  <path
    d="M436.962 294.595H265.807c-14.553 0-26.351-11.798-26.351-26.351V197.15c0-14.553 11.798-26.351 26.351-26.351h171.155c14.553 0 26.351 11.798 26.351 26.351v71.094c0 14.553-11.797 26.351-26.351 26.351z"
    fill="#90dca3" />
  <path d="M479.679 61.097H32.321C14.47 61.097 0 75.567 0 93.418v37.614h512V93.418c0-17.851-14.47-32.321-32.321-32.321z"
    fill="#404b58" />
  <circle cx="69.05" cy="96.06" r="13.683" fill="#ed718b" />
  <circle cx="121.34" cy="96.06" r="13.683" fill="#fbe096" />
  <circle cx="173.64" cy="96.06" r="13.683" fill="#90dca3" />
  <g fill="#404b58">
    <path
      d="M145.464 302.27H50.551a7.5 7.5 0 010-15h94.913a7.5 7.5 0 010 15zM145.464 334.086H50.551a7.5 7.5 0 010-15h94.913a7.5 7.5 0 010 15zM98.007 365.903H50.551a7.5 7.5 0 010-15h47.456a7.5 7.5 0 010 15zM282.899 240.969a7.5 7.5 0 01-7.5-7.5V222.1c0-4.142 3.357-7.5 7.5-7.5s7.5 3.358 7.5 7.5v11.369a7.5 7.5 0 01-7.5 7.5zM419.871 240.969a7.5 7.5 0 01-7.5-7.5V222.1c0-4.142 3.357-7.5 7.5-7.5s7.5 3.358 7.5 7.5v11.369a7.5 7.5 0 01-7.5 7.5zM351.385 249.699a31.447 31.447 0 01-23.71-10.798 7.499 7.499 0 01.728-10.582 7.5 7.5 0 0110.581.727c3.131 3.592 7.65 5.653 12.401 5.653s9.271-2.061 12.401-5.653a7.5 7.5 0 0111.309 9.855 31.447 31.447 0 01-23.71 10.798z" />
  </g>
  <path
    d="M181.281 238.086H61.406c-5.995 0-10.855-4.86-10.855-10.855v-26.392c0-5.995 4.86-10.855 10.855-10.855H181.28c5.995 0 10.855 4.86 10.855 10.855v26.392c0 5.994-4.859 10.855-10.854 10.855z"
    fill="#fff" />
  <path
    d="M318.033 403.803h-66.287c-6.787 0-12.289-5.502-12.289-12.289v-20.822c0-6.787 5.502-12.289 12.289-12.289h66.287c6.787 0 12.289 5.502 12.289 12.289v20.822c0 6.787-5.502 12.289-12.289 12.289z"
    fill="#ed718b" />
  <path
    d="M451.024 403.803h-66.287c-6.787 0-12.289-5.502-12.289-12.289v-20.822c0-6.787 5.502-12.289 12.289-12.289h66.287c6.787 0 12.289 5.502 12.289 12.289v20.822c0 6.787-5.502 12.289-12.289 12.289z"
    fill="#79c6e4" />
  <path d="M443.097 334.086H259.673a7.5 7.5 0 010-15h183.424a7.5 7.5 0 010 15z" fill="#404b58" />
  <path
    d="M479.679 61.097h-34.048c17.85 0 32.321 14.47 32.321 32.321v37.614H0v17.815h477.952v269.736c0 17.85-14.47 32.321-32.321 32.321h34.048c17.85 0 32.321-14.471 32.321-32.321V93.418c0-17.851-14.47-32.321-32.321-32.321z"
    opacity=".1" />
</svg>
