<?xml version="1.0" encoding="iso-8859-1"?>
<!-- Generator: Adobe Illustrator 19.0.0, SVG Export Plug-In . SVG Version: 6.00 Build 0)  -->
<svg version="1.1" id="Layer_1" xmlns="http://www.w3.org/2000/svg" xmlns:xlink="http://www.w3.org/1999/xlink" x="0px" y="0px"
	 viewBox="0 0 512 512" style="enable-background:new 0 0 512 512;" xml:space="preserve">
<path style="fill:#EAFFFF;" d="M445.217,489.739H66.783c-24.588,0-44.522-19.934-44.522-44.522V66.783
	c0-24.588,19.933-44.522,44.522-44.522h378.435c24.588,0,44.522,19.933,44.522,44.522v378.435
	C489.739,469.806,469.806,489.739,445.217,489.739z"/>
<path style="fill:#C5EAD4;" d="M512,66.783L512,66.783c0,12.295-9.966,22.261-22.261,22.261h-77.913
	c-12.295,0-22.261-9.966-22.261-22.261h-44.522c-12.295,0-22.261-9.966-22.261-22.261l0,0c0-12.295,9.966-22.261,22.261-22.261
	h77.913c12.295,0,22.261,9.966,22.261,22.261l0,0h44.522C502.034,44.522,512,54.488,512,66.783z"/>
<path style="fill:#FFFF81;" d="M189.217,94.609c0,52.251-42.358,94.609-94.609,94.609S0,146.859,0,94.609S42.358,0,94.609,0
	S189.217,42.358,189.217,94.609z"/>
<path style="fill:#FFF145;" d="M144.696,94.609c0,27.662-22.424,50.087-50.087,50.087s-50.087-22.424-50.087-50.087
	s22.424-50.087,50.087-50.087S144.696,66.946,144.696,94.609z"/>
<path style="fill:#BBF260;" d="M512,489.739c0,12.295-9.966,22.261-22.261,22.261H22.261C9.966,512,0,502.034,0,489.739V367.304h512
	V489.739z"/>
<path style="fill:#9FBA41;" d="M400.696,241.799L400.696,241.799c0,38.579-31.274,69.854-69.854,69.854H158.897
	c-38.579,0-69.854-31.274-69.854-69.854l0,0c0-26.567,14.832-49.667,36.667-61.478c-2.856-7.623-4.427-15.874-4.427-24.495l0,0
	c0-26.567,14.832-49.667,36.667-61.478c-2.856-7.623-4.427-15.874-4.427-24.495l0,0C153.523,31.274,184.798,0,223.377,0h42.987
	c38.579,0,69.853,31.274,69.853,69.853l0,0c0,8.621-1.571,16.872-4.427,24.495c21.835,11.812,36.667,34.912,36.667,61.478l0,0
	c0,8.621-1.571,16.872-4.427,24.495C385.863,192.131,400.696,215.233,400.696,241.799z"/>
<path style="fill:#7F932A;" d="M512,289.391v66.783l-128-11.13l0,0h-61.217c-30.736,0-55.652-24.917-55.652-55.652l0,0
	c0-26.923,19.12-49.38,44.522-54.537v-28.941c0-39.956,32.391-72.348,72.348-72.348l0,0c39.956,0,72.348,32.391,72.348,72.348
	v27.826l0,0C487.083,233.739,512,258.656,512,289.391z"/>
<path style="fill:#91C1A4;" d="M512,361.739L512,361.739c0,33.81-27.408,61.217-61.217,61.217H61.217
	C27.408,422.957,0,395.549,0,361.739l0,0c0-33.81,27.408-61.217,61.217-61.217h389.565C484.592,300.522,512,327.929,512,361.739z"/>
<path style="fill:#EAFFFF;" d="M453.565,381.774c0,4.61-3.738,8.348-8.348,8.348H244.87c-4.61,0-8.348-3.738-8.348-8.348
	s3.738-8.348,8.348-8.348h200.348C449.828,373.426,453.565,377.164,453.565,381.774z M280.487,341.704
	c0-4.61-3.738-8.348-8.348-8.348h-82.922c-4.61,0-8.348,3.738-8.348,8.348c0,4.61,3.738,8.348,8.348,8.348h82.922
	C276.749,350.052,280.487,346.315,280.487,341.704z M77.913,333.357h-27.27c-4.61,0-8.348,3.738-8.348,8.348
	c0,4.61,3.738,8.348,8.348,8.348h27.27c4.61,0,8.348-3.738,8.348-8.348C86.261,337.094,82.523,333.357,77.913,333.357z
	 M311.652,350.052h100.174c4.61,0,8.348-3.738,8.348-8.348c0-4.61-3.738-8.348-8.348-8.348H311.652c-4.61,0-8.348,3.738-8.348,8.348
	C303.304,346.315,307.042,350.052,311.652,350.052z"/>
<path style="fill:#9FBA41;" d="M289.391,505.64L289.391,505.64c0,3.513-2.847,6.36-6.36,6.36h-95.403h-63.603H28.621
	c-3.513,0-6.36-2.847-6.36-6.36l0,0c0-29.375,15.333-55.155,38.419-69.821c3.183-42.756,38.856-76.464,82.426-76.464l0,0
	c39.742,0,72.924,28.044,80.865,65.42C261.347,432.716,289.391,465.897,289.391,505.64z"/>
<path style="fill:#7F932A;" d="M478.609,453.565c0,4.61-3.738,8.348-8.348,8.348h-11.13c-4.61,0-8.348-3.738-8.348-8.348
	c0-4.61,3.738-8.348,8.348-8.348h11.13C474.871,445.217,478.609,448.955,478.609,453.565z M369.391,478.609h-21.565
	c-4.61,0-8.348,3.738-8.348,8.348c0,4.61,3.738,8.348,8.348,8.348h21.565c4.61,0,8.348-3.738,8.348-8.348
	C377.739,482.346,374.002,478.609,369.391,478.609z"/>
<g>
</g>
<g>
</g>
<g>
</g>
<g>
</g>
<g>
</g>
<g>
</g>
<g>
</g>
<g>
</g>
<g>
</g>
<g>
</g>
<g>
</g>
<g>
</g>
<g>
</g>
<g>
</g>
<g>
</g>
</svg>
