<?xml version="1.0" encoding="iso-8859-1"?>
<!-- Generator: Adobe Illustrator 19.0.0, SVG Export Plug-In . SVG Version: 6.00 Build 0)  -->
<svg version="1.1" id="Layer_1" xmlns="http://www.w3.org/2000/svg" xmlns:xlink="http://www.w3.org/1999/xlink" x="0px" y="0px"
	 viewBox="0 0 512 512" style="enable-background:new 0 0 512 512;" xml:space="preserve">
<path style="fill:#A9D5BB;" d="M445.217,489.739H66.783c-24.588,0-44.522-19.934-44.522-44.522V66.783
	c0-24.588,19.933-44.522,44.522-44.522h378.435c24.588,0,44.522,19.933,44.522,44.522v378.435
	C489.739,469.806,469.806,489.739,445.217,489.739z"/>
<path style="fill:#FFFF81;" d="M411.826,94.609c0,52.251-42.358,94.609-94.609,94.609s-94.609-42.358-94.609-94.609
	S264.967,0,317.217,0S411.826,42.358,411.826,94.609z"/>
<path style="fill:#FFF145;" d="M367.304,94.609c0,27.662-22.424,50.087-50.087,50.087s-50.087-22.424-50.087-50.087
	s22.424-50.087,50.087-50.087S367.304,66.946,367.304,94.609z"/>
<path style="fill:#7F932A;" d="M512,50.087v161.391V256v211.478C512,492.066,492.066,512,467.478,512H44.522
	C19.933,512,0,492.066,0,467.478v-256V50.087C0,22.424,22.424,0,50.087,0l0,0c27.662,0,50.087,22.424,50.087,50.087V63.14
	c9.183-11.353,23.218-18.618,38.957-18.618l0,0c27.662,0,50.087,22.424,50.087,50.087v61.217c0,30.736,24.917,55.652,55.652,55.652
	h77.913v-33.391v-33.391V116.87c0-27.662,22.424-50.087,50.087-50.087l0,0c15.738,0,29.774,7.265,38.957,18.618V50.087
	C411.826,22.424,434.251,0,461.913,0l0,0C489.576,0,512,22.424,512,50.087z"/>
<path style="fill:#DBCB9C;" d="M512,489.739c0,12.295-9.966,22.261-22.261,22.261H44.522C19.933,512,0,492.066,0,467.478V356.174
	h411.826L478.609,256H512V489.739z"/>
<path style="fill:#A9A632;" d="M456.348,244.87v22.261c0,36.883-29.9,66.783-66.783,66.783H0V178.087h389.565
	C426.448,178.087,456.348,207.987,456.348,244.87z"/>
<path style="fill:#606D11;" d="M322.783,389.565H70.122l-54.599,60.665C10.064,456.297,0,452.434,0,444.274V194.783
	c0-27.662,22.424-50.087,50.087-50.087l0,0c27.662,0,50.087,22.424,50.087,50.087v35.314c9.183-11.353,23.218-18.618,38.957-18.618
	l0,0c27.662,0,50.087,22.424,50.087,50.087v5.565h77.913c30.736,0,55.652,24.917,55.652,55.652V389.565z"/>
<path style="fill:#C5EAD4;" d="M389.565,144.696C457.184,144.696,512,199.512,512,267.13l0,0
	c0,67.618-54.816,122.435-122.435,122.435h-267.13c-30.736,0-55.652,24.917-55.652,55.652V512H44.522
	C19.933,512,0,492.066,0,467.478v-22.261c0-67.618,54.816-122.435,122.435-122.435h267.13c30.736,0,55.652-24.917,55.652-55.652l0,0
	c0-30.736-24.917-55.652-55.652-55.652H244.87c-30.736,0-55.652-24.917-55.652-55.652v-11.13H389.565z"/>
<path style="fill:#BCAE8A;" d="M322.783,439.652L322.783,439.652c0,9.22-7.475,16.696-16.696,16.696h-22.261
	c-9.22,0-16.696-7.475-16.696-16.696l0,0c0-9.22,7.475-16.696,16.696-16.696h22.261
	C315.307,422.957,322.783,430.432,322.783,439.652z M406.261,445.217H384c-9.22,0-16.696,7.475-16.696,16.696l0,0
	c0,9.22,7.475,16.696,16.696,16.696h22.261c9.22,0,16.696-7.475,16.696-16.696l0,0C422.957,452.693,415.481,445.217,406.261,445.217
	z M178.087,378.435h-55.652c-30.736,0-55.652,24.917-55.652,55.652V512h144.696c12.295,0,22.261-9.966,22.261-22.261v-55.652
	C233.739,403.351,208.823,378.435,178.087,378.435z"/>
<path style="fill:#998C6E;" d="M467.478,395.13c0,9.22-7.475,16.696-16.696,16.696H384c-9.22,0-16.696-7.475-16.696-16.696
	c0-9.22,7.475-16.696,16.696-16.696h66.783C460.003,378.435,467.478,385.91,467.478,395.13z M100.174,434.087H77.913
	c-24.588,0-44.522,19.933-44.522,44.522v11.13c0,12.295,9.966,22.261,22.261,22.261h66.783c12.295,0,22.261-9.966,22.261-22.261
	v-11.13C144.696,454.02,124.762,434.087,100.174,434.087z"/>
<g>
</g>
<g>
</g>
<g>
</g>
<g>
</g>
<g>
</g>
<g>
</g>
<g>
</g>
<g>
</g>
<g>
</g>
<g>
</g>
<g>
</g>
<g>
</g>
<g>
</g>
<g>
</g>
<g>
</g>
</svg>
