<svg viewBox="0 0 497 497">
  <path
    d="M485.632 203.943c-16.19-27.658-32.695-61.757-60.076-80.239a51.865 51.865 0 01-21.261-30.262l-7.335-28.954c-2.727-10.766-16.534-8.764-20.514-18.327-4.794-11.465-21.42-10.241-24.484 1.803l-3.967 15.596c-4.064 15.974-21.722 24.24-36.592 17.128l-25.658-12.271c-7.74-3.702-11.155-12.604-8.427-20.738 3.81-11.361-5.187-22.973-17.173-22.081l-34.54 2.572c-10.241.763-14.332 10.278-18.535 18.199-5.503 10.371-18.287 13.915-28.711 8.513a21.025 21.025 0 00-23.813 3.112c-14.831 13.483-32.139 25.961-43.355 42.784a83.539 83.539 0 01-53.584 35.667l-25.295 4.912c-16.204 3.146-22.784 16.506-29.285 29.99-7.738 16.049.997 30.919 7.946 45.297 8.389 17.358 3.54 37.231 11.408 54.782l9.411 20.994c2.349 5.239 1.212 11.536-3.138 15.284-7.047 6.073-5.516 17.379 2.881 21.364l17.277 8.199c8.938 4.242 16.067-1.905 15.961-1.863a59.763 59.763 0 0134.599-12.475c15.588-.52 30.234-5.755 41.619-16.679 7.472-7.17 16.891-11.98 26.975-14.332 23.062-5.379 68.767-16.802 85.388 8.371l10.52 15.933c5.558 8.418 17.324 9.424 24.526 2.36 7.718-7.57 20.617-5.347 25.339 4.413 4.784 9.886 12.401 20.604 12.401 31.962a27.627 27.627 0 0020.147 26.595c12.103 3.404 24.645 8.947 36.716 2.272 7.255-4.012 14.762-6.258 22.463-1.731a19.074 19.074 0 0022.404-2.277c2.555-2.299 5.28-3.787 8.523-5.152a34.387 34.387 0 0024.269-27.661c1.375-8.768 1.983-15.29 7.946-23.853 9.247-13.277 22.389-26.714 24.623-43.395l3.048-22.998a82.963 82.963 0 00-10.647-52.814zM424.151 420.774l-5.408 1.837a18.241 18.241 0 01-12.512-.285c-11.962-4.681-24.886 4.14-24.886 16.985v1.945a18.24 18.24 0 004.862 12.398l11.08 11.955a18.24 18.24 0 0022.257 3.533l19.352-10.786a18.239 18.239 0 009.359-15.932v-4.38c.001-12.492-12.275-21.287-24.104-17.27z"
    fill="#358bd8" />
  <path
    d="M166.615 208.842a7.5 7.5 0 01-7.5-7.5v-15.735a7.5 7.5 0 0115 0v15.735a7.5 7.5 0 01-7.5 7.5zM330.385 208.842a7.5 7.5 0 01-7.5-7.5v-15.735a7.5 7.5 0 0115 0v15.735a7.5 7.5 0 01-7.5 7.5zM248.5 218.208a36.132 36.132 0 01-27.243-12.408 7.5 7.5 0 0111.309-9.855c4.022 4.616 9.83 7.263 15.934 7.263s11.912-2.647 15.934-7.263a7.5 7.5 0 0111.309 9.855 36.132 36.132 0 01-27.243 12.408z"
    fill="#423e4f" />
  <path
    d="M64.773 335.404a59.77 59.77 0 0134.599-12.475 72.7 72.7 0 009.959-1.024C55.868 247.706 55.4 176.809 61.954 135.474c-1.438.36-2.886.688-4.348.972l-25.295 4.912c-16.204 3.146-22.784 16.506-29.285 29.99-7.738 16.049.997 30.919 7.946 45.297 8.389 17.358 3.54 37.231 11.408 54.782l9.411 20.994c2.349 5.239 1.212 11.536-3.138 15.284-7.047 6.073-5.516 17.379 2.881 21.364l17.277 8.199c8.938 4.241 16.067-1.906 15.962-1.864z"
    fill="#007dcf" /></svg>
