<svg viewBox="0 -110 512 512">
  <path
    d="M496.063 148.188a28.814 28.814 0 01-16.004-4.817c-4.309-2.867-9.344-4.379-14.559-4.379s-10.246 1.512-14.559 4.38c-4.742 3.151-10.28 4.597-16 4.815-5.472.208-9.898-.43-13.117-1.14-2.87 25.68-24.656 45.652-51.101 45.652-28.403 0-51.422-23.02-51.422-51.422 0-9.843 2.762-19.039 7.558-26.859h-94.87a142.191 142.191 0 00-2.548 26.86c0 78.027 63.254 141.28 141.282 141.28 75.886 0 137.804-59.84 141.136-134.91-6.554 1.778-14.43.54-15.796.54zm0 0"
    fill="#ffd4a3" />
  <path
    d="M370.723 0c-72.426 0-132.125 54.5-140.325 124.719h91.622c6.89-20.27 26.097-34.864 48.703-34.864 28.398 0 51.418 23.024 51.418 51.422 0 4.97-.704 9.77-2.016 14.313a39.094 39.094 0 0014.816 2.898 39.076 39.076 0 0021.704-6.539c5.332-3.543 12.382-3.543 17.714 0a39.088 39.088 0 0021.704 6.54 39.185 39.185 0 0015.238-3.075c.465-4.652.699-9.363.699-14.137C512 63.254 448.746 0 370.723 0zm0 0"
    fill="#ffb3c2" />
  <path
    d="M140.969 175.86c-23.535 27.577-70.11 25.167-106.04-5.489C-.995 139.715-10.706 94.098 12.825 66.516c23.535-27.579 70.11-25.168 106.04 5.488 35.929 30.656 45.636 76.273 22.105 103.855zM43.836 92.98c-8.871 10.399 1.953 33.063 17.559 46.375 15.601 13.317 39.687 20.438 48.558 10.04 8.875-10.399-1.95-33.063-17.555-46.38C76.793 89.704 52.711 82.579 43.836 92.98zm0 0"
    fill="#eedb00" />
  <path
    d="M121.734 45.637c-18.09 0-33.906 12.347-38.12 29.937C70.66 129.668 64.581 238.133 224.19 238.133c159.614 0 153.536-108.465 140.582-162.559-4.214-17.59-20.03-29.937-38.12-29.937zm0 0"
    fill="#fcf5af" />
  <path
    d="M235.945 237.926c-11.152-18.563-28.394-38.778-55-55.363C131.977 152.026 150.22 83 164.86 45.637h-43.125c-18.09 0-33.906 12.347-38.12 29.937-12.954 54.094-19.028 162.559 140.581 162.559 4.024 0 7.934-.07 11.75-.207zm0 0"
    fill="#f9ee80" />
  <path
    d="M366.234 220.691H82.152c-16.453 0-26.957 17.774-18.793 32.055 4.836 8.453 12.383 17.14 24.157 24.078 6.504 3.832 13.968 5.735 21.523 5.735h230.309c7.55 0 15.02-1.903 21.523-5.735 11.774-6.937 19.32-15.625 24.152-24.078 8.168-14.281-2.335-32.055-18.789-32.055zm0 0"
    fill="#c2eafb" />
  <path
    d="M120.863 252.746c-8.168-14.281 2.34-32.055 18.79-32.055h-57.5c-16.454 0-26.958 17.774-18.794 32.055 4.836 8.453 12.383 17.14 24.157 24.078 6.504 3.832 13.968 5.735 21.523 5.735h57.5c-7.55 0-15.016-1.903-21.523-5.735-11.774-6.937-19.32-15.625-24.153-24.078zm0 0"
    fill="#91d4f2" />
  <path
    d="M131.793 50.316v43.582c0 12.832 9.977 23.758 22.797 24.211 13.46.48 24.523-10.289 24.523-23.644v-15.25c0-9.973 7.664-18.55 17.621-19.02 10.633-.5 19.41 7.973 19.41 18.496 0 0-2.207 26.63 23.66 26.63 13.071 0 23.66-10.594 23.66-23.66V50.315c0-13.41-10.87-24.28-24.28-24.28h-83.11c-13.41 0-24.281 10.87-24.281 24.28zm0 0"
    fill="#f2ad9a" />
  <path
    d="M166.691 172.258c0-9.352-9.52-16.93-21.261-16.93-11.746 0-21.266 7.578-21.266 16.93 0 9.355 9.52 16.933 21.266 16.933 11.742 0 21.261-7.578 21.261-16.933zm0 0M324.223 172.258c0-9.352-9.52-16.93-21.266-16.93-11.742 0-21.262 7.578-21.262 16.93 0 9.355 9.52 16.933 21.262 16.933 11.746 0 21.266-7.578 21.266-16.933zm0 0"
    fill="#ffb3c2" />
  <g fill="#454545">
    <path
      d="M229.473 153.96a6.382 6.382 0 01-5.282 2.849c-1.023 0-3.586-.282-5.277-2.848A7.725 7.725 0 10206 162.44a21.703 21.703 0 0018.191 9.817 21.705 21.705 0 0018.196-9.817 7.725 7.725 0 00-2.215-10.699c-1.309-.86-7.09-3.082-10.7 2.219zm0 0M162.98 157.578c-.96-.805-1.917-1.02-2.457-1.02-.539 0-1.574.133-2.46 1.02a7.721 7.721 0 01-10.926 0 7.721 7.721 0 010-10.926 18.806 18.806 0 0113.386-5.543c5.055 0 9.809 1.97 13.383 5.543a7.721 7.721 0 010 10.926c-1.508 1.508-6.047 4.082-10.926 0zm0 0M290.324 157.578c-.96-.805-1.918-1.02-2.457-1.02-.539 0-1.574.133-2.46 1.02a7.721 7.721 0 01-10.927 0 7.721 7.721 0 010-10.926 18.806 18.806 0 0113.387-5.543c5.055 0 9.809 1.97 13.383 5.543a7.721 7.721 0 010 10.926c-1.508 1.508-6.047 4.082-10.926 0zm0 0" />
  </g>
</svg>
