<svg viewBox="-67 0 512 512">
  <path
    d="M92.36 198.988L49.835 481.516c-2.184 14.488 7.797 28.004 22.285 30.187 14.488 2.18 28.004-7.8 30.184-22.289l43.715-290.426zm0 0"
    fill="#e7896e" />
  <path d="M146.02 198.988H92.36L66.577 370.254c17.297-4.469 35.809-8.02 55.246-10.516zm0 0" fill="#dd6642" />
  <path
    d="M286.078 198.988l42.524 282.528c2.18 14.488-7.797 28.004-22.29 30.187-14.488 2.18-28.003-7.8-30.183-22.289l-43.715-290.426zm0 0"
    fill="#e7896e" />
  <path
    d="M286.078 198.988h-53.664l24.195 160.75c19.438 2.496 37.954 6.047 55.246 10.516zm0 0M189.219 488.89c-14.656 0-26.535-11.878-26.535-26.535V26.531C162.684 11.88 174.563 0 189.219 0c14.652 0 26.531 11.879 26.531 26.531v435.824c0 14.657-11.879 26.536-26.531 26.536zm0 0"
    fill="#dd6642" />
  <path
    d="M215.75 356.14V26.532C215.75 11.88 203.871 0 189.219 0c-14.656 0-26.535 11.879-26.535 26.531v329.606a544.18 544.18 0 0153.066.004zm0 0"
    fill="#b24e2f" />
  <path
    d="M349.355 293.707H29.078V81.773c0-16.054 13.02-29.074 29.074-29.074h262.13c16.058 0 29.073 13.02 29.073 29.074zm0 0"
    fill="#c2eafb" />
  <path
    d="M260.336 215.04c0 28.526-23.129 51.655-51.656 51.655-28.528 0-51.653-23.129-51.653-51.656 0-28.527 23.125-51.652 51.653-51.652 28.527 0 51.656 23.125 51.656 51.652zm0 0"
    fill="#f9ee80" />
  <path d="M189.219 244.445l64.324-45.734c15.89-11.3 37.465-10.195 52.125 2.668l43.687 38.34v53.992H189.22zm0 0"
    fill="#29ce69" />
  <path d="M29.078 244.445l80.79-56.988c17.648-12.45 41.753-10.074 56.632 5.578l95.004 99.93H29.078zm0 0"
    fill="#73da8c" />
  <path
    d="M354.746 323.703H23.688C10.604 323.703 0 313.098 0 300.016s10.605-23.688 23.688-23.688h331.058c13.082 0 23.688 10.606 23.688 23.688s-10.606 23.687-23.688 23.687zm0 0"
    fill="#f2ad9a" />
  <path
    d="M55.945 300.016c0-13.082 10.606-23.688 23.688-23.688H23.688C10.604 276.328 0 286.934 0 300.016s10.605 23.687 23.688 23.687h55.945c-13.082 0-23.688-10.605-23.688-23.687zm0 0"
    fill="#e7896e" />
  <path
    d="M131.715 124.531c0-9.351-9.52-16.933-21.262-16.933-11.746 0-21.266 7.582-21.266 16.933s9.52 16.934 21.266 16.934c11.742 0 21.262-7.582 21.262-16.934zm0 0M289.246 124.531c0-9.351-9.52-16.933-21.262-16.933-11.746 0-21.265 7.582-21.265 16.933s9.52 16.934 21.265 16.934c11.743 0 21.262-7.582 21.262-16.934zm0 0"
    fill="#ffb3c2" />
  <g fill="#454545">
    <path
      d="M252.89 121.676a7.726 7.726 0 01-7.726-7.727v-12.828a7.726 7.726 0 1115.453 0v12.828a7.729 7.729 0 01-7.726 7.727zm0 0M125.547 121.676a7.726 7.726 0 01-7.727-7.727v-12.828a7.726 7.726 0 1115.453 0v12.828a7.729 7.729 0 01-7.726 7.727zm0 0M194.496 106.23c-1.734 2.543-4.254 2.848-5.277 2.848s-3.59-.277-5.278-2.848c-2.343-3.566-7.136-4.558-10.699-2.214-3.566 2.34-4.558 7.132-2.219 10.699a21.714 21.714 0 0018.196 9.816 21.713 21.713 0 0018.191-9.816 7.724 7.724 0 00-2.215-10.7c-1.308-.859-7.09-3.085-10.699 2.215zm0 0" />
  </g>
</svg>
