<svg viewBox="0 0 512 512">
  <path
    d="M512 320.342H0V44.688c0-17.483 14.173-31.656 31.656-31.656h448.689c17.483 0 31.656 14.173 31.656 31.656L512 320.342z"
    fill="#404b58" />
  <path
    d="M512 320.342H0v47.828c0 17.483 14.173 31.656 31.656 31.656h448.689c17.483 0 31.656-14.173 31.656-31.656L512 320.342z"
    fill="#e8e8e8" />
  <path
    d="M38.123 267.783V65.592c0-7.973 6.463-14.436 14.436-14.436h406.882c7.973 0 14.436 6.463 14.436 14.436v202.19c0 7.973-6.463 14.436-14.436 14.436H52.559c-7.973.001-14.436-6.463-14.436-14.435z"
    fill="#79c6e4" />
  <path fill="#e8e8e8" d="M314.509 399.825H197.491l-9.848 66.866h136.714z" />
  <path opacity=".1" d="M314.509 399.825H197.491l-9.848 66.866h136.714z" />
  <path
    d="M347.205 498.969h-182.41c-6.512 0-11.791-5.279-11.791-11.791v-8.696c0-6.512 5.279-11.791 11.791-11.791h182.41c6.512 0 11.791 5.279 11.791 11.791v8.696c0 6.512-5.279 11.791-11.791 11.791z"
    fill="#e8e8e8" />
  <path
    d="M347.205 466.691h-17.343c6.512 0 11.791 5.279 11.791 11.791v8.696c0 6.512-5.279 11.791-11.791 11.791h17.343c6.512 0 11.791-5.279 11.791-11.791v-8.696c0-6.512-5.279-11.791-11.791-11.791z"
    opacity=".1" />
  <circle cx="256" cy="360.081" r="17.343" fill="#404b58" />
  <path opacity=".1"
    d="M314.509 399.825H197.491l-3.708 25.176h124.434zM480.344 13.033h-38.123c17.483 0 31.656 14.173 31.656 31.656V368.17c0 17.483-14.173 31.656-31.656 31.656h38.123c17.483 0 31.656-14.173 31.656-31.656V44.688c0-17.482-14.173-31.655-31.656-31.655z" />
  <g fill="#404b58">
    <path
      d="M161.542 150.215a7.5 7.5 0 01-7.5-7.5v-16.11a7.5 7.5 0 0115 0v16.11a7.5 7.5 0 01-7.5 7.5zM256 182.218c-15.019 0-27.194-12.175-27.194-27.194v-19.92a7.256 7.256 0 017.256-7.256h39.876a7.256 7.256 0 017.256 7.256v19.92c0 15.019-12.175 27.194-27.194 27.194zM350.457 150.215a7.5 7.5 0 01-7.5-7.5v-16.11a7.5 7.5 0 0115 0v16.11a7.5 7.5 0 01-7.5 7.5z" />
  </g>
  <path
    d="M406.351 242.739H114.789c-7.033 0-12.734 5.701-12.734 12.734v26.745h317.031v-26.745c0-7.032-5.702-12.734-12.735-12.734z"
    fill="#fff" />
  <path
    d="M419.573 102.056h14.372a5.609 5.609 0 005.609-5.609V82.075a5.609 5.609 0 00-5.609-5.609h-14.372a5.609 5.609 0 00-5.609 5.609v14.372a5.61 5.61 0 005.609 5.609z"
    fill="#fbe096" />
  <path
    d="M419.573 152.195h14.372a5.609 5.609 0 005.609-5.609v-14.372a5.609 5.609 0 00-5.609-5.609h-14.372a5.609 5.609 0 00-5.609 5.609v14.372a5.61 5.61 0 005.609 5.609z"
    fill="#fff" />
  <path
    d="M419.573 202.334h14.372a5.609 5.609 0 005.609-5.609v-14.372a5.609 5.609 0 00-5.609-5.609h-14.372a5.609 5.609 0 00-5.609 5.609v14.372a5.61 5.61 0 005.609 5.609z"
    fill="#fda75f" />
</svg>
