<svg viewBox="0 0 512 512">
  <path
    d="M103.519 177.467s-42.811-18.501-88.852 10.535c-7.883 4.971-9.357 15.854-3.229 22.875 18.867 21.616 52.735 69.378 34.9 117.678l31.456 29.709h133.165V243.973z"
    fill="#c7c5cb" />
  <path
    d="M311.619 173.72L163.382 80.99S109.811 63.676 48.127 91.014c-10.284 4.558-12.278 18.305-3.693 25.573 34.372 29.1 108.352 102.228 136.117 211.968l30.408 29.709h132.116z"
    fill="#dadad8" />
  <path
    d="M147.062 18.945c-12.426.577-19.052 14.885-11.359 24.66 31.984 40.636 96.992 131.948 115.907 224.243l170.265-56.316c0-.001-70.042-202.09-274.813-192.587z"
    fill="#e8e8e8" />
  <path
    d="M228.372 248.682c-32.39 33.294-44.479 66.368-45.751 70.029l-2.648 7.624c.192.741.391 1.476.579 2.22l30.408 29.709h132.116L315.08 194.022c-39.637 13.57-67.851 35.276-86.708 54.66z"
    fill="#c7c5cb" />
  <path
    d="M243.012 234.979c3.429 10.887 6.344 21.87 8.599 32.869l170.265-56.316s-4.276-12.33-13.793-30.749c-2.91-.082-5.805-.136-8.67-.136-74.137-.001-124.487 27.075-156.401 54.332z"
    fill="#dadad8" />
  <path
    d="M454.997 215.749c-193.042-33.971-244.038 112.806-244.038 112.806l132.116 29.709 75.495-29.709 47.27-90.747c4.754-9.126-.71-20.275-10.843-22.059z"
    fill="#e8e8e8" />
  <path
    d="M284.149 295.528a7.5 7.5 0 01-7.5-7.5v-10.875c0-4.142 3.357-7.5 7.5-7.5s7.5 3.358 7.5 7.5v10.875a7.5 7.5 0 01-7.5 7.5zM397.338 295.528a7.5 7.5 0 01-7.5-7.5v-10.875c0-4.142 3.357-7.5 7.5-7.5s7.5 3.358 7.5 7.5v10.875a7.5 7.5 0 01-7.5 7.5zM340.743 302.001a27.286 27.286 0 01-20.574-9.37 7.5 7.5 0 0111.309-9.855c2.34 2.685 5.717 4.225 9.266 4.225s6.927-1.54 9.267-4.225a7.5 7.5 0 0111.309 9.855 27.294 27.294 0 01-20.577 9.37z"
    fill="#423e4f" />
  <path
    d="M477.137 328.555H19.863C8.893 328.555 0 337.448 0 348.418v53.254l73.251 33.862h371.184L497 401.671v-53.254c0-10.969-8.893-19.862-19.863-19.862z"
    fill="#ed9b83" />
  <path
    d="M0 401.671a74.618 74.618 0 0171 0 74.618 74.618 0 0071 0 74.618 74.618 0 0171 0 74.618 74.618 0 0071 0 74.618 74.618 0 0171 0 74.618 74.618 0 0071 0 74.618 74.618 0 0171 0v76.709H0z"
    fill="#358bd8" /></svg>
