<svg viewBox="0 0 497 497">
  <path
    d="M437 98.5H60c-33.137 0-60 26.863-60 60v180c0 33.137 26.863 60 60 60h377a59.72 59.72 0 0027.875-6.871C483.97 381.59 497 361.572 497 338.5v-180c0-33.266-27.039-60-60-60z"
    fill="#efedff" />
  <g fill="#d4d4ff">
    <path
      d="M62.257 338.5v-240H60c-33.137 0-60 26.863-60 60v180c0 33.137 26.863 60 60 60h60c-33.137 0-57.743-26.863-57.743-60zM184.25 338.5v-240h-60v300h120c-33.137 0-60-26.863-60-60zM311.753 338.5v-240H248.5v300h120c-33.137 0-56.747-26.863-56.747-60zM433.747 338.5v-240H372.75v300H437a59.72 59.72 0 0027.875-6.871c-19.095-10.039-31.128-30.057-31.128-53.129z" />
  </g>
  <path
    d="M155.41 98.5H62.257v181.495c0 16.844 13.654 30.498 30.498 30.498h60.997a30.372 30.372 0 0019.347-6.923c6.808-5.594 11.151-14.077 11.151-23.575V98.5z"
    fill="#8288cb" />
  <path
    d="M124.604 229.164v-66.957c0-25.818 12.044-48.809 30.805-63.708H62.257v181.495c0 16.844 13.654 30.498 30.498 30.498h60.997a30.372 30.372 0 0019.347-6.923c-28.557-12.62-48.495-41.176-48.495-74.405z"
    fill="#676fb2" />
  <path
    d="M404.906 98.5h-93.153v181.495c0 16.844 13.654 30.498 30.498 30.498h60.997a30.372 30.372 0 0019.347-6.923c6.808-5.594 11.151-14.077 11.151-23.575V98.5z"
    fill="#8288cb" />
  <path
    d="M372.75 229.164v-66.957c0-25.818 13.395-48.809 32.156-63.708h-93.153v181.495c0 16.844 13.654 30.498 30.498 30.498h60.997a30.372 30.372 0 0019.347-6.923c-28.556-12.62-49.845-41.176-49.845-74.405z"
    fill="#676fb2" />
  <g fill="#ffb5c0">
    <path
      d="M168.943 339.983c-16.212 0-29.355 10.466-29.355 23.376s13.142 23.377 29.355 23.377c16.212 0 29.355-10.466 29.355-23.377s-13.142-23.376-29.355-23.376zM328.057 339.983c-16.212 0-29.355 10.466-29.355 23.376s13.143 23.377 29.355 23.377 29.355-10.466 29.355-23.377-13.143-23.376-29.355-23.376z" />
  </g>
  <g fill="#313d40">
    <path
      d="M186.051 321.356a7.499 7.499 0 00-7.5 7.5v12c0 4.143 3.357 7.5 7.5 7.5s7.5-3.357 7.5-7.5v-12a7.5 7.5 0 00-7.5-7.5zM310.948 321.356a7.499 7.499 0 00-7.5 7.5v12c0 4.143 3.357 7.5 7.5 7.5s7.5-3.357 7.5-7.5v-12a7.5 7.5 0 00-7.5-7.5z" />
  </g>
</svg>
