<svg viewBox="-25 0 512 512">
  <path
    d="M54.652 512c-8.625 0-15.62-6.992-15.62-15.617v-48.07H70.27v48.07c0 8.625-6.993 15.617-15.618 15.617zm0 0M251.77 512c-8.63 0-15.622-6.992-15.622-15.617v-48.07h31.239v48.07c0 8.625-6.992 15.617-15.617 15.617zm0 0M89.945 23.293h31.008v111.93H89.945zm0 0"
    fill="#6a829a" />
  <path d="M89.945 23.293h31.008v55.965H89.945zm0 0" fill="#516980" />
  <path d="M185.465 23.293h31.008v111.93h-31.008zm0 0" fill="#6a829a" />
  <path d="M185.465 23.293h31.008v55.965h-31.008zm0 0" fill="#516980" />
  <path
    d="M252.855 477.16H53.563C23.98 477.16 0 453.18 0 423.598V210.285c0-51.414 41.68-93.09 93.094-93.09h120.23c51.414 0 93.094 41.68 93.094 93.09v213.313c0 29.582-23.98 53.562-53.563 53.562zm0 0"
    fill="#ff8a98" />
  <path
    d="M194.98 117.195H93.094C41.68 117.195 0 158.875 0 210.285v213.313c0 29.582 23.984 53.562 53.566 53.562h48.32V210.285c0-51.41 41.68-93.09 93.094-93.09zm0 0"
    fill="#fd5c6f" />
  <path d="M132.742 477.16H70.27V262.47c0-17.25 13.984-31.235 31.238-31.235 17.25 0 31.234 13.985 31.234 31.235zm0 0"
    fill="#fd5c6f" />
  <path d="M101.887 231.234c-17.895 0-31.617 13.985-31.617 31.235v214.695h31.617zm0 0" fill="#f6334c" />
  <path
    d="M236.148 477.16h-62.472V262.47c0-17.25 13.984-31.235 31.238-31.235 17.25 0 31.238 13.985 31.238 31.235V477.16zm0 0"
    fill="#fd5c6f" />
  <path
    d="M431.074 477.16H232.117c-16.594 0-30.039-13.45-30.039-30.039v-110c0-16.59 13.445-30.039 30.04-30.039h198.956c16.59 0 30.04 13.45 30.04 30.04v110c0 16.589-13.45 30.038-30.04 30.038zm0 0"
    fill="#c2eafb" />
  <path
    d="M253.238 447.121v-110c0-16.59 13.45-30.039 30.04-30.039h-51.16c-16.595 0-30.044 13.45-30.044 30.04v110c0 16.589 13.45 30.038 30.043 30.038h51.16c-16.59 0-30.039-13.45-30.039-30.039zm0 0"
    fill="#91d4f2" />
  <path
    d="M224.07 41.836H82.348c-11.551 0-20.918-9.363-20.918-20.918C61.43 9.368 70.797 0 82.348 0H224.07c11.551 0 20.918 9.367 20.918 20.918 0 11.555-9.363 20.918-20.918 20.918zm0 0"
    fill="#889cb0" />
  <path
    d="M431.074 307.082h-35.586V477.16h35.586c16.59 0 30.04-13.45 30.04-30.039v-110c0-16.59-13.45-30.039-30.04-30.039zm0 0"
    fill="#76e7d6" />
  <path
    d="M293.926 336.293l-30.781 40.016-19.133-.758c-9.41-.375-17.242 7.152-17.242 16.57s7.832 16.945 17.242 16.57l19.133-.757 30.78 40.015c4.43 5.762 13.63 1.875 12.587-5.32l-5.246-36.211 47.433-1.879 16.442 7.043c3.468 1.488 6.902-2.168 5.203-5.539l-3.656-7.234a14.844 14.844 0 010-13.371l3.656-7.239c1.699-3.367-1.735-7.027-5.203-5.539l-16.442 7.047-47.433-1.883 5.246-36.21c1.043-7.196-8.153-11.083-12.586-5.321zm0 0"
    fill="#6a829a" />
  <g fill="#fffcdc">
    <path
      d="M437.422 356.426H419.18a7.726 7.726 0 110-15.453h18.242a7.726 7.726 0 110 15.453zm0 0M437.422 385.375H419.18a7.726 7.726 0 110-15.453h18.242a7.726 7.726 0 110 15.453zm0 0M437.422 414.32H419.18a7.726 7.726 0 110-15.453h18.242a7.726 7.726 0 110 15.453zm0 0M437.422 443.27H419.18a7.726 7.726 0 110-15.453h18.242a7.726 7.726 0 110 15.453zm0 0" />
  </g>
  <path
    d="M95.707 193.566c0-9.351-9.52-16.933-21.262-16.933-11.746 0-21.265 7.582-21.265 16.933 0 9.352 9.52 16.93 21.265 16.93 11.743 0 21.262-7.578 21.262-16.93zm0 0M253.238 193.566c0-9.351-9.52-16.933-21.261-16.933-11.747 0-21.266 7.582-21.266 16.933 0 9.352 9.52 16.93 21.266 16.93 11.742 0 21.261-7.578 21.261-16.93zm0 0"
    fill="#ffdee4" />
  <path
    d="M216.883 190.71a7.726 7.726 0 01-7.727-7.726v-12.828a7.725 7.725 0 1115.45 0v12.828a7.725 7.725 0 01-7.723 7.727zm0 0M89.54 190.71a7.726 7.726 0 01-7.728-7.726v-12.828a7.725 7.725 0 1115.45 0v12.828a7.725 7.725 0 01-7.723 7.727zm0 0M158.484 175.266a6.371 6.371 0 01-5.277 2.847c-1.023 0-3.586-.281-5.277-2.847a7.73 7.73 0 00-10.7-2.22 7.73 7.73 0 00-2.214 10.704 21.713 21.713 0 0018.191 9.816 21.714 21.714 0 0018.195-9.816 7.73 7.73 0 00-2.214-10.703c-1.31-.856-7.09-3.082-10.704 2.219zm0 0"
    fill="#454545" />
</svg>
