<svg viewBox="-77 0 512 512"><path d="M134.531 39.992H57.406V19.918C57.406 8.918 66.324 0 77.328 0h37.285c11 0 19.922 8.918 19.922 19.918v20.074zm0 0" fill="#e7896e"/><path d="M134.531 134.09V29.66H57.406v104.43c0 24.746-9.8 48.48-27.261 66.012 0 0-30.145 28.421-30.145 72.988v197.137C0 493.297 18.703 512 41.773 512h108.391c23.07 0 41.774-18.703 41.774-41.773V273.09c0-42.52-30.141-72.988-30.141-72.988a93.54 93.54 0 01-27.266-66.012zm0 0" fill="#00c140"/><path d="M57.406 29.66v104.43c0 24.746-9.8 48.48-27.261 66.012 0 0-30.145 28.421-30.145 72.988v197.137C0 493.297 18.703 512 41.773 512h38.028c-31.586-73.984-36.293-226.508-7-273.11 23.808-37.878 23.617-75.757 19.906-98.85-1.789-11.142 4.348-22.032 14.711-26.497 17.012-7.328 27.117-21.895 27.117-21.895V29.66zm0 0" fill="#00a62c"/><path d="M0 288.121h191.938v148.953H0zm0 0" fill="#f9ee80"/><path d="M57.5 288.121H0v148.953h60.004c-7.906-50.12-9.012-106.808-2.504-148.953zm0 0" fill="#f4e74d"/><path d="M134.625 70.75H57.312c-11.343 0-20.542-9.2-20.542-20.547 0-11.344 9.199-20.543 20.542-20.543h77.313c11.348 0 20.547 9.2 20.547 20.543 0 11.348-9.2 20.547-20.547 20.547zm0 0" fill="#73da8c"/><path d="M211.344 362.152s35 21.727 35 51.653V512h39.062v-98.195c0-29.926 35.004-51.653 35.004-51.653zm0 0" fill="#91d4f2"/><path d="M287.09 402.355c6.996-23.851 33.316-40.203 33.316-40.203H211.344s35 21.727 35 51.653c17.453-1.489 31.097-6.496 40.746-11.45zm0 0" fill="#59c2e8"/><path d="M305.602 512h-79.454c-10.406 0-18.843-8.438-18.843-18.844 0-10.41 8.437-18.847 18.843-18.847h79.454c10.41 0 18.847 8.437 18.847 18.847 0 10.406-8.437 18.844-18.847 18.844zm0 0M210.453 231.906c17.215 0 34.094 4.828 50.168 14.36 15.316 9.074 32.617 13.675 51.426 13.675 19.582 0 34.36-5.277 44.387-8.726-3.512-23.133-9.989-44.617-15.094-59.242a28.695 28.695 0 00-27.094-19.246h-96.742a28.69 28.69 0 00-27.094 19.246c-3.957 11.34-8.742 26.804-12.328 43.965 7.668-1.668 20.95-4.032 32.371-4.032zm0 0" fill="#c2eafb"/><path d="M354.785 241.54c-17.144 6.464-54.543 16.23-88.91-4.138-46.418-27.511-85.645-10.738-85.71-10.707-14.349 59.633-17.849 147.356 85.71 147.356 95.238 0 99.93-74.203 88.91-132.512zm0 0" fill="#ff8a98"/><g fill="#454545"><path d="M144.809 375.309a7.723 7.723 0 01-7.727-7.723v-12.828a7.726 7.726 0 1115.453 0v12.828a7.725 7.725 0 01-7.726 7.723zm0 0M47.133 375.309a7.723 7.723 0 01-7.727-7.723v-12.828a7.726 7.726 0 1115.453 0v12.828a7.725 7.725 0 01-7.726 7.723zm0 0M101.246 359.867c-1.73 2.54-4.254 2.848-5.277 2.848s-3.59-.281-5.278-2.848a7.725 7.725 0 10-12.914 8.48c4.035 6.15 10.836 9.821 18.192 9.821s14.156-3.672 18.195-9.82a7.73 7.73 0 00-2.219-10.7c-1.304-.859-7.09-3.082-10.699 2.22zm0 0"/></g></svg>
