<svg viewBox="-37 0 512 512" xmlns="http://www.w3.org/2000/svg"><path d="M404.543 317.168H227.07V188.957h177.473c18.434 0 33.379 14.945 33.379 33.379v61.453c0 18.434-14.945 33.379-33.379 33.379zm0 0" fill="#ffcbbe"/><path d="M227.07 317.168h122.114c-.211-60.184-16.66-103.035-30.25-128.211H227.07zm0 0" fill="#ffb39d"/><path d="M283.484 198.18V307.94c0 28.29-22.933 51.223-51.222 51.223H85.508V146.957h146.754c28.289.004 51.222 22.934 51.222 51.223zm0 0" fill="#ffcbbe"/><path d="M84.23 124.035h103.868v294.442H84.23zm0 0" fill="#516980"/><path d="M177.098 14.656V57.34L136.19 86.707 95.29 57.34V14.656c0-13.414-16.633-19.785-25.5-9.719-14.2 16.114-29.039 42.376-29.039 81.77 0 75.516 95.445 75.492 95.445 75.492s95.442.024 95.442-75.492c0-39.394-14.84-65.656-29.04-81.77-8.87-10.066-25.5-3.695-25.5 9.72zm0 0M177.098 497.344v-42.68l-40.907-29.367-40.902 29.367v42.68c0 13.418-16.633 19.789-25.5 9.722-14.2-16.113-29.039-42.378-29.039-81.77 0-75.519 95.445-75.495 95.445-75.495s95.442-.024 95.442 75.496c0 39.39-14.84 65.656-29.04 81.77-8.87 10.062-25.5 3.695-25.5-9.723zm0 0" fill="#889cb0"/><path d="M120.418 202.816H27.93c-15.426 0-27.93-12.504-27.93-27.93 0-15.421 12.504-27.925 27.93-27.925h92.488c15.426 0 27.93 12.504 27.93 27.926 0 15.425-12.504 27.93-27.93 27.93zm0 0" fill="#ffcbbe"/><path d="M120.418 258.676H27.93c-15.426 0-27.93-12.504-27.93-27.93s12.504-27.93 27.93-27.93h92.488c15.426 0 27.93 12.504 27.93 27.93s-12.504 27.93-27.93 27.93zm0 0" fill="#ffddcf"/><path d="M120.418 314.535H27.93c-15.426 0-27.93-12.508-27.93-27.93 0-15.425 12.504-27.93 27.93-27.93h92.488c15.426 0 27.93 12.505 27.93 27.93 0 15.422-12.504 27.93-27.93 27.93zm0 0" fill="#ffcbbe"/><g fill="#ffddcf"><path d="M101.555 370.39H27.93C12.504 370.39 0 357.888 0 342.46c0-15.425 12.504-27.929 27.93-27.929h73.625c15.425 0 27.93 12.504 27.93 27.93s-12.505 27.93-27.93 27.93zm0 0M102.453 160.18c13.488 11.515 33.402 22.691 62.727 29.617 12.734 3.004 22.312 12.496 28.097 24.234 23.852 48.395 59 51.88 90.207 53.813V198.18c0-82.438-164.386-74.43-164.386-74.43-20.586-2.906-32.457 22.93-16.645 36.43zm0 0"/></g></svg>
