<svg viewBox="0 0 512 512" xmlns="http://www.w3.org/2000/svg"><path d="M0 424.347c0 22.337 18.108 40.444 40.444 40.444h442.499c16.048 0 29.057-13.009 29.057-29.057v-278.58c0-16.048-13.009-29.057-29.057-29.057H40.444z" fill="#a2ddfd"/><path d="M235.267 464.792c-53.786-70.7-69.416-187.278-63.301-336.695H40.444L0 424.347c0 22.337 18.108 40.445 40.444 40.445z" fill="#7acefa"/><path d="M0 87.653c0-22.337 18.108-40.445 40.444-40.445h33.969c16.048 0 29.057 13.009 29.057 29.057v278.582c0 16.047-13.009 29.057-29.057 29.057H40.444C18.108 383.903 0 402.011 0 424.347z" fill="#cde9fa"/><g fill="#fff"><path d="M251.879 201.846h-91.515c-4.142 0-7.5-3.357-7.5-7.5s3.358-7.5 7.5-7.5h91.515a7.5 7.5 0 017.5 7.5 7.5 7.5 0 01-7.5 7.5zM251.879 260.297h-91.515c-4.142 0-7.5-3.357-7.5-7.5s3.358-7.5 7.5-7.5h91.515c4.142 0 7.5 3.357 7.5 7.5s-3.357 7.5-7.5 7.5zM221.153 390.986h-49.339c-10.449 0-18.95-8.501-18.95-18.949v-49.34c0-10.448 8.501-18.949 18.95-18.949h49.339c10.449 0 18.95 8.501 18.95 18.949v49.34c0 10.448-8.501 18.949-18.95 18.949zm-49.339-72.238a3.954 3.954 0 00-3.95 3.949v49.34a3.954 3.954 0 003.95 3.949h49.339a3.954 3.954 0 003.95-3.949v-49.34a3.954 3.954 0 00-3.95-3.949zM391.995 186.846c-33.828 0-61.775 25.606-65.512 58.451h-15.926c-4.142 0-7.5 3.357-7.5 7.5s3.358 7.5 7.5 7.5h15.926c3.737 32.845 31.684 58.451 65.512 58.451 36.365 0 65.951-29.586 65.951-65.951s-29.586-65.951-65.951-65.951zm0 116.902c-25.546 0-46.756-18.9-50.394-43.451h50.394c4.142 0 7.5-3.357 7.5-7.5s-3.358-7.5-7.5-7.5h-50.394c3.638-24.551 24.848-43.451 50.394-43.451 28.094 0 50.951 22.856 50.951 50.951s-22.857 50.951-50.951 50.951z"/></g><g fill="#fff"><ellipse cx="287.765" cy="395.811" rx="31.765" ry="25.296"/><ellipse cx="459.939" cy="395.811" rx="31.765" ry="25.296"/></g><g fill="#4e5660"><path d="M306.277 378.649a7.5 7.5 0 01-7.5-7.5v-12.362c0-4.143 3.358-7.5 7.5-7.5s7.5 3.357 7.5 7.5v12.362a7.5 7.5 0 01-7.5 7.5zM373.852 386.69a31.126 31.126 0 01-23.47-10.69 7.5 7.5 0 01.728-10.581 7.5 7.5 0 0110.582.728c3.07 3.523 7.502 5.544 12.161 5.544s9.091-2.021 12.161-5.544a7.5 7.5 0 1111.31 9.853 31.13 31.13 0 01-23.472 10.69zM458.139 378.305a7.5 7.5 0 01-7.5-7.5c0-3.764-3.062-6.826-6.826-6.826s-6.826 3.063-6.826 6.826c0 4.143-3.358 7.5-7.5 7.5s-7.5-3.357-7.5-7.5c0-12.035 9.791-21.826 21.826-21.826s21.826 9.791 21.826 21.826a7.5 7.5 0 01-7.5 7.5z"/></g></svg>
