<svg viewBox="1 -42 512 512" xmlns="http://www.w3.org/2000/svg">
  <path d="M241.863 428.422H77.336V.5h130.773c18.641 0 33.754 15.113 33.754 33.754zm0 0" fill="#fd5c6f" />
  <path d="M154.668 428.422H45.598C20.414 428.422 0 408.008 0 382.824V46.098C0 20.914 20.414.5 45.598.5h109.07zm0 0"
    fill="#ff8a98" />
  <path d="M154.668 102.328h126.215v326.094H154.668zm0 0" fill="#a4e7ff" />
  <path
    d="M485.629 428.422H326.703V54.3H485.63C500.19 54.3 512 66.109 512 80.67v321.376c0 14.566-11.809 26.375-26.371 26.375zm0 0"
    fill="#29ce69" />
  <path d="M419.352 428.422h-138.47V94.64c0-22.278 18.063-40.34 40.34-40.34h98.13zm0 0" fill="#73da8c" />
  <path
    d="M77.336 346.863c-15.633 0-28.3-12.672-28.3-28.3V110.358c0-15.629 12.671-28.3 28.3-28.3 15.629 0 28.297 12.671 28.297 28.3v208.204c0 15.628-12.668 28.3-28.297 28.3zm0 0"
    fill="#f4e74d" />
  <path d="M154.668 193.734h126.215v143.282H154.668zm0 0" fill="#59c2e8" />
  <path
    d="M383.305 130.395c0-22.258-14.86-40.301-33.188-40.301-18.328 0-33.187 18.043-33.187 40.3 0 22.258 14.86 40.301 33.187 40.301 18.328 0 33.188-18.043 33.188-40.3zm0 0"
    fill="#e4996d" /></svg>
