<svg viewBox="-141 0 512 512"><path d="M81.879 152.992L73.62 85.375A30.426 30.426 0 0057.61 62.148L10.582 37.36C.898 32.254-2.813 20.266 2.293 10.582 7.395.898 19.383-2.813 29.066 2.289l47.028 24.793a70.088 70.088 0 0136.879 53.488l8.254 67.618zm0 0" fill="#76e7d6"/><path d="M61.61 400.781s35.445 24.899 35.445 51.965V512h41.718v-59.254c0-27.066 35.446-51.965 35.446-51.965zm0 0" fill="#91d4f2"/><path d="M176.219 59.488l-15.61-2.508c-6.672-1.07-11.523 6.188-7.984 11.946l12.14 19.726h40.048l12.14-19.726c3.543-5.758-1.308-13.016-7.984-11.946l-15.61 2.508c-5.675.91-11.464.91-17.14 0zm0 0" fill="#73da8c"/><path d="M230.8 114.969c0 25.41-20.597 64.035-46.01 64.035-25.415 0-46.013-38.625-46.013-64.035 0-25.414 20.598-36.528 46.012-36.528s46.012 11.114 46.012 36.528zm0 0" fill="#ff8a98"/><path d="M210.477 238.406l.02-.008s-.036-.039-.095-.097c-6.507-7.778-14.46-20.942-19.785-37.371H44.418c-5.488 17.132-13.48 30.547-18.992 37.37-.059.06-.094.098-.094.098l.02.008c-13.438 19.219-21.067 42.797-20.27 68.207.18 5.73.793 11.36 1.809 16.856h222.058a113.671 113.671 0 001.852-20.473c0-24.031-7.528-46.285-20.324-64.59zm0 0" fill="#ffd4a3"/><path d="M69.074 278.27c13.547-24.333 21.86-51.895 26.961-77.34H44.418c-5.488 17.132-13.48 30.547-18.992 37.37-.059.06-.094.098-.094.098l.02.008C11.914 257.625 4.285 281.2 5.082 306.613c.18 5.73.793 11.36 1.809 16.856h52.816c-1.348-15.469 1.52-31.102 9.367-45.2zm0 0" fill="#ffbe73"/><path d="M5.48 313.168c4.977 55.293 50.383 99.668 106.442 102.559 61.598 3.18 113.11-43.043 118.426-102.559zm0 0" fill="#ff8a98"/><path d="M171.07 115.23H64.578c-11.523 0-19.844 10.848-17.07 22.036 6.875 27.754 1.191 54.347-6.84 73.964h153.773c-8.3-19.68-13.558-45.875-6.351-73.738 2.91-11.254-5.399-22.262-17.02-22.262zm0 0" fill="#f9ee80"/><path d="M161.645 512H74.184c-12.258 0-22.2-9.938-22.2-22.2 0-12.257 9.942-22.195 22.2-22.195h87.46c12.258 0 22.196 9.938 22.196 22.196 0 12.262-9.938 22.199-22.195 22.199zm0 0" fill="#c2eafb"/><g fill="#454545"><path d="M166.75 278.27a7.729 7.729 0 01-7.727-7.727v-12.828a7.726 7.726 0 1115.453 0v12.828a7.726 7.726 0 01-7.726 7.727zm0 0M69.074 278.27a7.729 7.729 0 01-7.726-7.727v-12.828a7.726 7.726 0 1115.453 0v12.828a7.726 7.726 0 01-7.727 7.727zm0 0M123.191 262.824a6.365 6.365 0 01-5.277 2.848c-1.023 0-3.59-.277-5.277-2.848-2.344-3.566-7.133-4.558-10.7-2.215s-4.558 7.133-2.214 10.7a21.693 21.693 0 0018.191 9.816 21.693 21.693 0 0018.191-9.816 7.725 7.725 0 00-2.214-10.7c-1.309-.859-7.09-3.082-10.7 2.215zm0 0"/></g><path d="M59.441 313.168H5.481c4.976 55.293 50.382 99.668 106.44 102.559 12.626.652 24.833-.774 36.298-3.961-54.266-5.957-90.426-53.192-88.778-98.598zm0 0" fill="#fd5c6f"/><path d="M47.504 137.266c6.879 27.754 1.195 54.347-6.84 73.964h53.152c11.723-50.675 9.746-96 9.746-96H64.578c-11.523 0-19.844 10.848-17.074 22.036zm0 0" fill="#eedb00"/></svg>
