<svg viewBox="0 0 512 512">
  <path
    d="M51.012 461.754a7.474 7.474 0 01-5.303-2.197c-24.526-24.526-25.409-68.96-2.485-125.117 22.078-54.083 63.78-113.412 117.425-167.057S273.623 72.036 327.706 49.958c56.157-22.923 100.59-22.041 125.116 2.485a7.5 7.5 0 01-10.607 10.606c-19.692-19.692-59.363-19.401-108.841.796-52.278 21.341-109.854 61.878-162.12 114.144C118.99 230.256 78.453 287.831 57.112 340.11c-20.198 49.478-20.488 89.149-.796 108.841a7.5 7.5 0 01-5.304 12.803z"
    fill="#fda75f" />
  <path
    d="M421.196 158.497c-8.957-2.461-16.508-8.602-20.272-17.094-25.767-58.133-83.976-98.685-151.658-98.685-77.41 0-142.424 53.049-160.684 124.774-2.424 9.52-9.199 17.426-18.354 20.989C29.355 204.388.322 243.99.003 290.414c-.42 61.019 50.451 110.946 111.472 110.946h275.433c68.033 0 124.409-54.35 125.086-122.38.572-57.466-38.067-105.994-90.798-120.483z"
    fill="#79c6e4" />
  <path
    d="M421.196 158.497c-8.957-2.461-16.508-8.602-20.272-17.094-25.767-58.133-83.976-98.685-151.658-98.685-3.197 0-6.37.099-9.523.278 71.078 15.847 100.456 61.391 120.592 106.819 3.642 8.217 10.949 14.159 19.616 16.54 51.025 14.02 88.414 60.978 87.86 116.584-.655 65.829-55.207 118.42-121.039 118.42h40.135c68.033 0 124.409-54.35 125.086-122.38.573-57.465-38.066-105.993-90.797-120.482z"
    opacity=".1" />
  <path
    d="M98.676 478.616c-22.236.001-40.269-6.36-52.967-19.059a7.5 7.5 0 010-10.606 7.5 7.5 0 0110.606 0c19.692 19.692 59.363 19.401 108.841-.796 52.278-21.341 109.853-61.878 162.12-114.144 52.266-52.266 92.803-109.841 114.144-162.12 20.198-49.478 20.488-89.149.796-108.841a7.5 7.5 0 0110.607-10.606c24.526 24.526 25.409 68.96 2.485 125.117-22.078 54.083-63.78 113.412-117.425 167.057S224.91 439.965 170.826 462.043c-27.081 11.054-51.439 16.572-72.15 16.573z"
    fill="#fda75f" />
  <g fill="#fff">
    <path
      d="M158.599 198.344a7.5 7.5 0 01-5.303-12.804c27.475-27.475 63.95-42.606 102.705-42.606 38.754 0 75.229 15.131 102.704 42.605a7.5 7.5 0 010 10.606 7.5 7.5 0 01-10.606 0c-24.642-24.641-57.349-38.212-92.097-38.212-34.749 0-67.456 13.571-92.098 38.213a7.481 7.481 0 01-5.305 2.198z" />
    <path
      d="M187.153 226.898a7.5 7.5 0 01-5.303-12.804c19.836-19.836 46.17-30.76 74.15-30.76 27.98 0 54.314 10.924 74.15 30.759 2.929 2.929 2.929 7.677 0 10.606s-7.678 2.93-10.607 0c-17.003-17.002-39.57-26.366-63.543-26.366-23.974 0-46.541 9.364-63.544 26.367a7.473 7.473 0 01-5.303 2.198z" />
    <path
      d="M296.314 255.435a7.478 7.478 0 01-5.304-2.197c-9.351-9.353-21.785-14.503-35.01-14.503-13.225 0-25.658 5.15-35.009 14.501a7.5 7.5 0 01-10.606 0 7.5 7.5 0 010-10.606c12.184-12.185 28.384-18.895 45.615-18.895 17.232 0 33.433 6.711 45.618 18.896a7.501 7.501 0 01-5.304 12.804zM256 315.622c-15.096 0-27.378-12.281-27.378-27.377s12.281-27.377 27.378-27.377c15.096 0 27.377 12.281 27.377 27.377.001 15.096-12.28 27.377-27.377 27.377zm0-39.754c-6.825 0-12.378 5.552-12.378 12.377s5.552 12.377 12.378 12.377c6.825 0 12.377-5.552 12.377-12.377.001-6.825-5.551-12.377-12.377-12.377z" />
  </g>
</svg>
