<svg xmlns="http://www.w3.org/2000/svg" viewBox="0 0 512 512">
  <circle cx="256" cy="256" r="256" fill="#a67875" />
  <path
    d="M423.085 62.048c38.664 44.841 62.048 103.231 62.048 167.085 0 141.385-114.615 256-256 256-63.854 0-122.244-23.383-167.085-62.048C108.993 477.53 178.469 512 256 512c141.385 0 256-114.615 256-256 0-77.531-34.47-147.007-88.915-193.952z"
    opacity=".1" />
  <circle cx="256" cy="256" r="186.42" fill="#fff" />
  <circle cx="256" cy="256" r="88.33" fill="#e5e5e5" />
  <path
    d="M361.8 158.193l-82.991 35.425a25.892 25.892 0 00-15.679 22.229l-1.705 27.806c-8.978 1.727-16.045 8.795-17.773 17.772l-27.806 1.705a25.892 25.892 0 00-22.228 15.678L158.193 361.8c-3.07 7.191 4.193 14.454 11.384 11.385l82.991-35.425a25.892 25.892 0 0015.679-22.229l1.705-27.806c8.978-1.727 16.045-8.795 17.773-17.773l27.806-1.705a25.894 25.894 0 0022.229-15.679l35.425-82.991c3.069-7.19-4.194-14.453-11.385-11.384z"
    opacity=".1" />
  <path
    d="M256 69.576C153.041 69.576 69.576 153.041 69.576 256c0 56.754 25.368 107.576 65.375 141.769-27.838-32.571-44.655-74.843-44.655-121.049 0-102.959 83.465-186.424 186.424-186.424 46.205 0 88.477 16.818 121.049 44.655C363.576 94.944 312.754 69.576 256 69.576z"
    opacity=".1" />
  <path
    d="M352.111 148.505L269.12 183.93a25.892 25.892 0 00-15.679 22.228l-2.274 37.084c-.61 9.957 7.634 18.201 17.591 17.591l37.084-2.274a25.892 25.892 0 0022.228-15.679l35.425-82.991c3.07-7.191-4.193-14.454-11.384-11.384z"
    fill="#d674b6" />
  <path
    d="M148.504 352.111l35.425-82.991a25.892 25.892 0 0122.228-15.679l37.084-2.274c9.957-.61 18.201 7.634 17.591 17.591l-2.274 37.084a25.892 25.892 0 01-15.679 22.228l-82.991 35.425c-7.19 3.07-14.453-4.193-11.384-11.384z"
    fill="#69bfe2" />
  <g fill="#445258">
    <circle cx="256" cy="256" r="22.452" />
    <path
      d="M251.136 129.544a7.5 7.5 0 01-7.5-7.5V98.948a7.5 7.5 0 0115 0v23.095a7.5 7.5 0 01-7.5 7.501zM122.043 268.364H98.948a7.5 7.5 0 010-15h23.095a7.5 7.5 0 010 15zM260.864 420.552a7.5 7.5 0 01-7.5-7.5v-23.095a7.5 7.5 0 0115 0v23.095a7.5 7.5 0 01-7.5 7.5zM413.052 258.636h-23.096c-4.143 0-7.5-3.358-7.5-7.5s3.357-7.5 7.5-7.5h23.096a7.5 7.5 0 010 15z" />
  </g>
  <g opacity=".1">
    <path
      d="M290.644 228.855a7.5 7.5 0 01-5.304-12.803l26.847-26.847a7.5 7.5 0 0110.607 10.606l-26.847 26.847a7.474 7.474 0 01-5.303 2.197zM194.508 324.992a7.474 7.474 0 01-5.303-2.197 7.5 7.5 0 010-10.606l26.847-26.847a7.5 7.5 0 0110.606 0 7.5 7.5 0 010 10.606l-26.847 26.847a7.476 7.476 0 01-5.303 2.197z" />
  </g>
</svg>
