<svg viewBox="-62 1 512 512" xmlns="http://www.w3.org/2000/svg">
  <path
    d="M336.723 417.848a13.657 13.657 0 00-5.707-13.692c-21.286-14.597-49.301-18.465-74.899-7.797-28.422 11.844-46.219 38.41-48.273 67.16 21.863 18.786 53.258 24.852 81.68 13.008 25.601-10.668 42.581-33.28 47.199-58.68zm0 0"
    fill="#7fda4e" />
  <path
    d="M207.852 471.25a7.727 7.727 0 01-7.137-4.758 7.723 7.723 0 014.16-10.101l80.355-33.489c3.934-1.64 8.461.223 10.102 4.16s-.219 8.461-4.16 10.106l-80.352 33.484a7.69 7.69 0 01-2.968.598zm0 0"
    fill="#bde965" />
  <path
    d="M52.063 417.848a13.657 13.657 0 015.707-13.692c21.285-14.597 49.296-18.465 74.898-7.797 28.422 11.844 46.219 38.41 48.27 67.16-21.86 18.786-53.254 24.852-81.676 13.008-25.602-10.668-42.582-33.28-47.2-58.68zm0 0"
    fill="#7fda4e" />
  <path
    d="M180.934 471.25a7.69 7.69 0 01-2.97-.598l-80.35-33.484c-3.942-1.64-5.802-6.164-4.16-10.105s6.163-5.801 10.1-4.16l80.356 33.488a7.723 7.723 0 014.16 10.101 7.727 7.727 0 01-7.136 4.758zm0 0"
    fill="#bde965" />
  <path d="M175.879 361.227h37.027V512H175.88zm0 0" fill="#bde965" />
  <path d="M175.879 411.059a70.201 70.201 0 0037.027 0v-49.832H175.88zm0 0" fill="#7fda4e" />
  <path
    d="M388.285 193.895c0-26.625-23.996-49.16-57.11-56.84 17.845-28.79 19.11-61.496.329-80.27-18.774-18.781-51.48-17.531-80.27.328C243.551 23.996 221.016 0 194.391 0s-49.157 23.996-56.84 57.11C108.76 39.265 76.055 38 57.28 56.78c-18.781 18.774-17.527 51.48.328 80.27C24.496 144.734.5 167.266.5 193.89s23.996 49.16 57.11 56.843c-17.844 28.79-19.11 61.493-.329 80.27 18.774 18.781 51.48 17.527 80.27-.332 7.683 33.117 30.215 57.113 56.84 57.113s49.16-23.996 56.843-57.113c28.79 17.844 61.493 19.113 80.27.332 18.781-18.777 17.527-51.48-.332-80.27 33.117-7.683 57.113-30.214 57.113-56.84zm0 0"
    fill="#f55d67" />
  <g fill="#ff3d5d">
    <path
      d="M194.39 103.16a7.725 7.725 0 01-7.722-7.726V49.988a7.725 7.725 0 1115.45 0v45.446a7.726 7.726 0 01-7.727 7.726zm0 0M264.016 131.996a7.708 7.708 0 01-5.465-2.262 7.728 7.728 0 010-10.925l32.133-32.133a7.728 7.728 0 0110.93 10.926l-32.137 32.132a7.699 7.699 0 01-5.461 2.262zm0 0M338.297 201.621h-45.442a7.726 7.726 0 01-7.726-7.726 7.724 7.724 0 017.726-7.727h45.442a7.726 7.726 0 017.726 7.727 7.726 7.726 0 01-7.726 7.726zm0 0M296.148 303.379a7.718 7.718 0 01-5.464-2.266L258.55 268.98a7.728 7.728 0 010-10.925 7.721 7.721 0 0110.926 0l32.136 32.132a7.728 7.728 0 01-5.465 13.192zm0 0M194.39 345.527a7.725 7.725 0 01-7.722-7.726v-45.446a7.725 7.725 0 1115.45 0v45.446a7.726 7.726 0 01-7.727 7.726zm0 0M92.637 303.379a7.728 7.728 0 01-5.465-13.191l32.137-32.133a7.721 7.721 0 0110.925 0 7.728 7.728 0 010 10.925l-32.136 32.133a7.703 7.703 0 01-5.461 2.266zm0 0M95.93 201.621H50.488a7.726 7.726 0 01-7.726-7.726 7.724 7.724 0 017.726-7.727H95.93a7.724 7.724 0 017.726 7.727 7.726 7.726 0 01-7.726 7.726zm0 0M124.77 131.996a7.699 7.699 0 01-5.461-2.262L87.172 97.602a7.728 7.728 0 010-10.926 7.721 7.721 0 0110.926 0l32.136 32.133a7.728 7.728 0 010 10.925 7.714 7.714 0 01-5.464 2.262zm0 0" />
  </g>
  <path
    d="M237.152 307.07C160.551 337.281 73.2 276.016 73.195 194.078c0-65.508 55.696-121.2 121.2-121.2 65.324.005 121.19 55.825 121.19 121.196.005 50.531-33.296 95.196-78.433 112.996zm0 0"
    fill="#ffe176" />
  <path
    d="M104.102 194.078c0-60.273 47.16-112.238 105.718-120.152a114.664 114.664 0 00-15.425-1.043c-65.504 0-121.2 55.691-121.196 121.195 0 72.836 69.016 129.328 138.153 119.766-57.403-7.785-107.25-57.871-107.25-119.766zm0 0"
    fill="#ffc261" />
  <path
    d="M135.566 204.102a7.729 7.729 0 01-7.726-7.727v-10.648c0-4.266 3.46-7.727 7.726-7.727s7.727 3.46 7.727 7.727v10.648a7.726 7.726 0 01-7.727 7.727zm0 0M253.219 204.102a7.729 7.729 0 01-7.727-7.727v-10.648c0-4.266 3.461-7.727 7.727-7.727s7.726 3.46 7.726 7.727v10.648a7.729 7.729 0 01-7.726 7.727zm0 0M194.39 209.785c-7.886 0-15.3-3.305-20.335-9.066a7.725 7.725 0 01.734-10.903 7.725 7.725 0 0110.902.735c2.102 2.402 5.274 3.781 8.7 3.781 3.43 0 6.601-1.379 8.703-3.781a7.725 7.725 0 0110.902-.735 7.725 7.725 0 01.734 10.903c-5.035 5.761-12.449 9.066-20.34 9.066zm0 0"
    fill="#4b3f4e" />
</svg>
