<svg viewBox="0 0 512 512" xmlns="http://www.w3.org/2000/svg"><path d="M96.38 253.913l194.691-194.69c23.875-23.875 62.585-23.875 86.46 0l111.765 111.765c13.397 13.397 13.397 35.118 0 48.515L256.66 452.139c-13.397 13.397-35.118 13.397-48.515 0L96.38 340.374c-23.875-23.876-23.875-62.585 0-86.461z" fill="#f2d98d"/><path d="M382.824 283.97l11.309 7.445a20.597 20.597 0 0025.89-2.639l42.938-42.938a20.597 20.597 0 002.639-25.89l-7.445-11.309a14.64 14.64 0 011.876-18.402c13.397-13.397 13.397-35.118 0-48.515L333.302 14.993c-19.991-19.991-52.403-19.991-72.394 0L52.151 223.751c-19.991 19.991-19.991 52.403 0 72.394L178.88 422.874c13.397 13.397 35.118 13.397 48.515 0l137.027-137.027a14.638 14.638 0 0118.402-1.877z" fill="#f6ee86"/><path d="M333.059 106.204l-1.694-.349c-6.253-29.478-32.482-51.663-63.796-51.663h-45.86L52.151 223.751c-19.991 19.991-19.991 52.403 0 72.394L178.88 422.874c13.397 13.397 35.118 13.397 48.515 0L332.78 317.487V267.87l.277-.057c23.821-4.908 41.111-26.122 41.111-50.443v-60.723c0-24.321-17.289-45.535-41.109-50.443z" fill="#f2d98d"/><path d="M313.56 240.275l13.262-2.732a20.597 20.597 0 0016.44-20.173v-60.724a20.597 20.597 0 00-16.44-20.173l-13.262-2.732a14.64 14.64 0 01-11.686-14.339c0-18.946-15.359-34.305-34.305-34.305H88.348c-28.272 0-51.19 22.919-51.19 51.19v295.227c0 28.272 22.919 51.19 51.19 51.19h179.221c18.946 0 34.305-15.359 34.305-34.305V254.614a14.641 14.641 0 0111.686-14.339z" fill="#88d37f"/><path d="M236.805 205.957c-24.234-16.565-52.558-25.321-81.911-25.321H37.157v250.879c0 28.271 22.919 51.19 51.19 51.19h179.221c18.946 0 34.305-15.359 34.305-34.305V254.614c0-1.319.178-2.604.51-3.829z" fill="#5ec682"/><path d="M328.101 512H52.319c-21.905 0-39.663-17.758-39.663-39.663V235.455c0-13.207 10.706-23.913 23.914-23.913h118.325a114.24 114.24 0 0164.471 19.93l120.7 82.508a63.58 63.58 0 0127.699 52.487v105.871C367.764 494.242 350.006 512 328.101 512z" fill="#cde9fa"/><path d="M328.101 512H52.319c-21.905 0-39.663-17.758-39.663-39.663V235.455c0-13.207 10.706-23.913 23.914-23.913h118.325a114.24 114.24 0 0164.471 19.93l120.7 82.508a63.58 63.58 0 0127.699 52.487v105.871C367.764 494.242 350.006 512 328.101 512z" fill="#cde9fa"/><path d="M89.589 211.541H36.57c-13.207 0-23.914 10.706-23.914 23.913v236.883c0 21.905 17.758 39.663 39.663 39.663h144.819C98.937 465.66 88.395 309.765 89.589 211.541z" fill="#a2ddfd"/><path d="M12.656 417.046h355.108v39.416H12.656z" fill="#b0ade2"/><path d="M12.656 417.046v39.416h124.259c-7.597-12.125-14.028-25.383-19.444-39.416z" fill="#a09cdc"/><ellipse cx="108.252" cy="368.365" fill="#fff" rx="30.241" ry="24.082"/><ellipse cx="272.168" cy="368.365" fill="#fff" rx="30.241" ry="24.082"/><path d="M190.21 342.778c-11.997 0-22.681-8.062-29.401 1.88-6.816 10.085 8.45 25.723 29.401 25.723s36.217-15.638 29.401-25.723c-6.72-9.941-17.404-1.88-29.401-1.88z" fill="#4e5660"/><g fill="#4e5660"><path d="M125.877 351.018a25.201 25.201 0 01-19.001-8.653 7.5 7.5 0 0111.309-9.855c1.943 2.229 4.747 3.508 7.693 3.508s5.75-1.279 7.692-3.508a7.501 7.501 0 0111.309 9.855 25.208 25.208 0 01-19.002 8.653zM254.543 351.018a25.202 25.202 0 01-19-8.653 7.5 7.5 0 0111.308-9.856 10.21 10.21 0 007.693 3.508c2.946 0 5.75-1.279 7.693-3.508a7.497 7.497 0 0110.581-.726 7.5 7.5 0 01.726 10.582 25.204 25.204 0 01-19.001 8.653z"/></g></svg>
