<svg viewBox="0 0 512 512">
  <path
    d="M300.469 356.387c9.797-5.055 18.98-11.715 27.156-19.985 41.043-41.488 22.078-89.672-18.61-131.511-41.921-43.114-91.57-62.754-133.937-20.352-8.191 8.195-14.785 17.387-19.777 27.18-7.223 14.16-21.301 23.601-37.094 25.308-31.094 3.356-61.293 16.957-85.129 40.809-55.48 55.52-35.867 125.914 19.613 181.434 55.485 55.523 125.825 75.148 181.309 19.625 23.68-23.696 37.25-53.68 40.715-84.582 1.805-16.118 11.347-30.493 25.754-37.926zm0 0"
    fill="#ffd4a3" />
  <path
    d="M100.043 440.969c33.727 9 69.191-23.41 69.191-23.41l-50.078-38.465s37.66-61.317 56.211-126.004c15.75-54.926 63.383-80.832 77.403-87.403-26.399-9.417-53.258-5.601-77.692 18.852-8.191 8.2-14.785 17.387-19.777 27.184-7.223 14.16-21.301 23.601-37.094 25.304-31.094 3.356-61.293 16.957-85.125 40.809-54.219 54.258-36.723 122.715 15.875 177.617 23.527-26.21 51.55-14.95 51.086-14.484zm0 0"
    fill="#ffbe73" />
  <path d="M187.914 368.063l-43.726-43.754L368.972 99.367l43.722 43.754zm0 0" fill="#e7896e" />
  <path
    d="M204.23 399.496c-25.253 25.274-66.199 25.274-91.453 0-25.254-25.27-25.254-66.246 0-91.516 25.254-25.273 66.2-25.273 91.453 0 25.254 25.27 25.254 66.247 0 91.516zm0 0"
    fill="#6a829a" />
  <path
    d="M166.05 346.184c18.438 18.453 23.387 45.289 14.903 68.257 8.484-3.136 16.461-8.125 23.277-14.945 25.254-25.27 25.254-66.246 0-91.516-25.253-25.273-66.199-25.273-91.453 0a64.517 64.517 0 00-14.933 23.29c22.953-8.493 49.77-3.536 68.207 14.914zm0 0"
    fill="#516980" />
  <path
    d="M491.895 105.363L406.69 20.102c-4.593-4.598-4.593-12.051 0-16.649 4.602-4.605 12.063-4.605 16.66 0l85.204 85.258c4.593 4.602 4.593 12.05 0 16.652-4.602 4.602-12.063 4.602-16.66 0zm0 0M456.148 141.133L370.945 55.87c-4.593-4.598-4.593-12.05 0-16.648 4.602-4.602 12.063-4.602 16.66 0l85.204 85.261c4.593 4.598 4.593 12.051 0 16.649-4.602 4.605-12.063 4.605-16.66 0zm0 0"
    fill="#fad989" />
  <path
    d="M431.328 16.086l-44.676 44.707a37.657 37.657 0 00-8.8 13.879l-8.88 24.695 43.723 43.754 24.676-8.887a37.687 37.687 0 0013.871-8.804l44.676-44.711c8.57-8.574 8.57-22.48 0-31.059l-33.55-33.574c-8.575-8.578-22.47-8.578-31.04 0zm0 0M105.98 462.852L49.098 405.93c-6.028-6.032-6.028-15.809 0-21.84 6.035-6.035 15.82-6.035 21.855 0l56.883 56.922c6.027 6.035 6.027 15.808 0 21.84-6.035 6.039-15.82 6.039-21.856 0zm0 0"
    fill="#dd6642" />
  <g fill="#f2ad9a">
    <path
      d="M354.855 201.004l-43.722-43.758 25.3-25.316 43.723 43.754zm0 0M303.344 252.55l-43.723-43.753 25.3-25.32 43.724 43.753zm0 0M251.832 304.098l-43.723-43.754 25.301-25.32 43.723 43.753zm0 0" />
  </g>
</svg>
