<svg viewBox="-8 0 512 512">
  <path d="M76.5 212.25v6.071h59.997v-6.071c0-61.757 50.246-112 112.003-112v-60c-94.841 0-172 77.16-172 172z"
    fill="#9ea2e3" />
  <path
    d="M248.5 40.25a54.083 54.083 0 000 60c61.757 0 112.003 50.243 112.003 112v6.071H420.5v-6.071c0-94.84-77.159-172-172-172z"
    fill="#d4d4ff" />
  <path
    d="M497 288.916c0 46.194-22.947 87.029-58.064 111.727-32.978 23.193-78.433-.816-78.433-41.133V218.322c0-40.317 45.455-64.326 78.433-41.133C474.053 201.887 497 242.722 497 288.916z"
    fill="#ffb39d" />
  <path
    d="M419.503 359.51V218.322c0-17.263 8.338-31.531 20.458-40.389-.343-.246-.68-.501-1.025-.744-32.977-23.193-78.433.816-78.433 41.133V359.51c0 40.317 45.456 64.326 78.433 41.133.346-.243.682-.498 1.025-.744-12.12-8.858-20.458-23.126-20.458-40.389z"
    fill="#ff8f71" />
  <path
    d="M0 288.916c0 46.194 22.947 87.029 58.064 111.727 32.978 23.193 78.433-.816 78.433-41.133V218.322c0-40.317-45.455-64.326-78.433-41.133C22.947 201.887 0 242.722 0 288.916z"
    fill="#ffb39d" />
  <path
    d="M110.452 401.618c-14.335-7.679-24.934-20.819-29.522-36.421C73.818 341.008 70 315.408 70 288.916c0-27.521 4.121-54.079 11.776-79.094 4.628-15.123 15.202-27.72 29.142-35.188a50.972 50.972 0 00-13.133-5.15c-12.93-3.09-27.222-1.085-39.721 7.706C22.947 201.887 0 242.721 0 288.916s22.947 87.029 58.064 111.727c12.5 8.791 26.791 10.795 39.721 7.706a51.037 51.037 0 0014.322-5.844zm-20.66-11.057z"
    fill="#ff8f71" />
  <path
    d="M345.764 43.861C316.29 26.779 282.657 17.75 248.5 17.75s-67.79 9.029-97.264 26.111c-10.738 6.224-14.408 19.968-8.202 30.717l29.993 51.949c6.241 10.813 20.049 14.428 30.768 8.217 13.539-7.847 28.998-11.994 44.705-11.994s31.166 4.147 44.705 11.994c10.739 6.223 24.537 2.578 30.768-8.217l29.993-51.949c6.206-10.749 2.536-24.493-8.202-30.717z"
    fill="#ffb39d" />
  <path
    d="M248.5 17.75c-34.157 0-67.79 9.029-97.264 26.111-10.738 6.224-14.408 19.968-8.202 30.717l29.993 51.949c6.241 10.813 20.049 14.428 30.768 8.217 13.539-7.847 28.998-11.994 44.705-11.994-32.113-27.634-32.113-77.366 0-105z"
    fill="#ff8f71" />
  <path
    d="M278.383 225.789l-70.303 18.837c-14.195 3.804-24.109 16.725-24.109 31.421v131.505c-42.641-.413-68.251 44.703-42.981 64.725 9.129 7.234 21.742 8.318 33.212 5.624 23.906-5.612 39.786-25.989 39.786-41.538V309.161l69.025-18.495v93.701l.05.046c-37.669 1.451-59.456 41.36-36.873 59.254 22.033 17.461 64.563-3.157 66.745-31.483l.094.088V252.375c0-18.097-17.148-31.274-34.646-26.586z"
    fill="#55dafe" />
  <g>
    <ellipse cx="184.798" cy="95.697" fill="#ea5b70" rx="23.5" ry="18.714" />
    <ellipse cx="312.202" cy="95.697" fill="#ff8e9e" rx="23.5" ry="18.714" />
  </g>
  <g fill="#313d40">
    <path
      d="M196.051 58.356a7.5 7.5 0 00-7.5 7.5v12c0 4.142 3.357 7.5 7.5 7.5s7.5-3.358 7.5-7.5v-12a7.5 7.5 0 00-7.5-7.5zM300.948 58.356a7.5 7.5 0 00-7.5 7.5v12c0 4.142 3.357 7.5 7.5 7.5s7.5-3.358 7.5-7.5v-12a7.5 7.5 0 00-7.5-7.5zM269.891 71.845a7.5 7.5 0 00-10.581.727c-2.729 3.132-6.669 4.928-10.81 4.928s-8.08-1.796-10.81-4.928a7.5 7.5 0 00-11.309 9.855C231.96 88.828 240.022 92.5 248.5 92.5s16.54-3.672 22.118-10.074a7.498 7.498 0 00-.727-10.581z" />
  </g>
</svg>
