<svg viewBox="0 0 512 512">
  <ellipse cx="260.802" cy="251.29" fill="#f6ee86" rx="154.111" ry="140.858" />
  <path
    d="M260.803 110.431c-86.163 0-157.043 65.08-154.007 145.786 24.818 2.821 49.911-3.15 70.977-17.679 44.276-30.535 112.102-30.588 156.453-.001 24.379 16.814 53.555 21.79 80.64 16.108 2.01-78.516-66.858-144.214-154.063-144.214z"
    fill="#efd176" />
  <path
    d="M77.512 213.462l-32.59-21.81C2.943 163.559.972 102.656 40.906 71.724 102.992 23.633 179.941 0 256 0c76.051 0 152.998 23.625 215.094 71.724 39.934 30.933 37.963 91.835-4.017 119.928l-32.59 21.809c-25.063 16.772-57.889 16.755-82.714-.366-26.147-18.032-59.934-28.385-95.772-28.385s-69.625 10.352-95.772 28.385c-24.827 17.123-57.654 17.139-82.717.367z"
    fill="#eda1ab" />
  <path
    d="M113.125 179.333l-54.969-65.51a7.5 7.5 0 01.924-10.566 7.498 7.498 0 0110.566.924l50.195 59.82a4001.64 4001.64 0 0016.634-14.052 7.5 7.5 0 019.707 11.435c-22.161 18.812-22.84 19.205-23.559 19.621a7.498 7.498 0 01-9.498-1.672zM228.073 129.586a7.504 7.504 0 00-9.186-5.304l-26.521 7.107-6.854-25.578 24.031-6.439a7.5 7.5 0 00-3.883-14.489l-24.031 6.439-6.854-25.578 26.52-7.106a7.5 7.5 0 00-3.883-14.489l-33.765 9.047a7.5 7.5 0 00-5.303 9.186l21.472 80.134c1.076 4.014 5.201 6.371 9.185 5.304l33.765-9.047a7.503 7.503 0 005.307-9.187zM370.594 176.157c-10.194-8.554-16.567-21.16-17.046-33.721a7.5 7.5 0 017.208-7.78c4.161-.136 7.624 3.07 7.78 7.209.321 8.4 4.694 16.924 11.699 22.801 7.667 6.433 16.608 5.892 21.131 2.113 4.627-3.866 4.478-10.986-.409-19.536-3.534-6.181-12.309-22.558-12.975-24.765-5.954-19.595 14.044-37.913 35.463-28.718 20.494 8.799 24.653 31.274 24.821 32.227a7.5 7.5 0 01-6.092 8.683 7.497 7.497 0 01-8.677-6.058c-.065-.337-3.11-15.547-15.971-21.069-9.584-4.117-17.061 2.988-15.331 10.072 1.223 2.476 6.088 12.219 11.783 22.183 6.731 11.775 9.478 28.07-2.997 38.491-10.547 8.816-27.872 8.371-40.387-2.132zM323.818 54.645l-44.662-11.967a7.5 7.5 0 00-3.883 14.49l14.997 4.018-19.728 73.628a7.5 7.5 0 0014.489 3.882l19.728-73.627 15.177 4.067a7.502 7.502 0 003.882-14.491zM345.99 107.691a7.499 7.499 0 01-3.701-9.939l19.297-42.201a7.5 7.5 0 1113.64 6.238l-19.297 42.201c-1.73 3.785-6.19 5.416-9.939 3.701z"
    fill="#fff" />
  <g>
    <path
      d="M203.128 331.68c-28.209 0-51.16-22.95-51.16-51.16s22.95-51.16 51.16-51.16c10.251 0 20.145 3.023 28.609 8.742a7.5 7.5 0 01-8.397 12.429c-5.975-4.037-12.965-6.171-20.212-6.171-19.938 0-36.16 16.221-36.16 36.16s16.221 36.16 36.16 36.16c12.533 0 26.959-7.671 29.72-28.66h-18.151a7.5 7.5 0 010-15h26.121a7.5 7.5 0 017.5 7.5c-.001 30.122-18.583 51.16-45.19 51.16zM317.446 332.216c-28.209 0-51.159-22.95-51.159-51.16s22.95-51.16 51.159-51.16c28.21 0 51.16 22.95 51.16 51.16s-22.95 51.16-51.16 51.16zm0-87.321c-19.939 0-36.159 16.221-36.159 36.16s16.221 36.16 36.159 36.16 36.16-16.221 36.16-36.16c0-19.938-16.221-36.16-36.16-36.16z"
      fill="#8daee1" />
  </g>
  <g>
    <path
      d="M306.814 407.029h-29.838a6.995 6.995 0 01-6.992-6.794l-1.661-57.739c-.239-8.295-10.784-11.668-15.791-5.05l-64.162 84.792c-5.185 6.852-.297 16.679 8.295 16.679h29.838a6.995 6.995 0 016.992 6.794l1.661 57.739c.239 8.295 10.784 11.668 15.791 5.05l64.163-84.792c5.183-6.852.296-16.679-8.296-16.679z"
      fill="#eda1ab" />
    <path
      d="M235.74 359.637l-47.371 62.602c-5.185 6.852-.297 16.679 8.295 16.679h29.838a6.995 6.995 0 016.992 6.794l1.661 57.739c.238 8.295 10.784 11.668 15.791 5.05l37.742-49.876c-50.104-9.736-58.374-63.622-52.948-98.988z"
      fill="#e7889d" />
  </g>
</svg>
