<svg viewBox="0 0 512 512">
  <path
    d="M289.618 188.964c0 42.212-44.019 69.993-82.123 51.829-18.004-8.582-37.416-17.841-56.541-26.972C83.14 181.445 3.717 229.493 2.27 304.625a164.917 164.917 0 00-.031 3.226C2.239 420.599 115.852 512 256 512s253.761-91.401 253.761-204.149c0-76.066-51.714-142.41-128.399-177.529-42.894-19.644-91.744 11.463-91.744 58.642z"
    fill="#79c6e4" />
  <path
    d="M431.258 160.222c32.63 34.347 52.017 77.271 52.017 123.84 0 112.748-113.613 204.149-253.761 204.149-67.935 0-129.634-21.477-175.181-56.451C100.705 480.532 173.779 512 256 512c140.149 0 253.761-91.401 253.761-204.149 0-58.063-30.134-110.459-78.503-147.629z"
    opacity=".1" />
  <circle cx="112.32" cy="352.53" r="33.604" fill="#fff" />
  <circle cx="218.2" cy="425.85" r="33.604" fill="#fbe096" />
  <circle cx="341.47" cy="417.58" r="33.604" fill="#ed718b" />
  <circle cx="424.4" cy="323.92" r="33.604" fill="#fda75f" />
  <path
    d="M445.107 297.462a33.45 33.45 0 017.146 20.704c0 18.559-15.045 33.604-33.604 33.604a33.452 33.452 0 01-20.703-7.145c6.151 7.85 15.712 12.901 26.459 12.901 18.559 0 33.604-15.045 33.604-33.604-.002-10.747-5.052-20.308-12.902-26.46zM362.174 391.119a33.45 33.45 0 017.146 20.704c0 18.559-15.045 33.604-33.604 33.604a33.449 33.449 0 01-20.704-7.145c6.151 7.85 15.712 12.901 26.459 12.901 18.559 0 33.604-15.045 33.604-33.604 0-10.748-5.05-20.309-12.901-26.46zM238.905 399.387a33.45 33.45 0 017.146 20.704c0 18.559-15.045 33.604-33.604 33.604a33.445 33.445 0 01-20.703-7.146c6.151 7.85 15.712 12.901 26.459 12.901 18.559 0 33.604-15.045 33.604-33.604-.001-10.747-5.051-20.308-12.902-26.459zM133.024 326.069a33.45 33.45 0 017.146 20.704c0 18.559-15.045 33.604-33.604 33.604a33.455 33.455 0 01-20.704-7.145c6.151 7.85 15.712 12.901 26.459 12.901 18.559 0 33.604-15.045 33.604-33.604 0-10.748-5.051-20.309-12.901-26.46z"
    opacity=".1" />
  <g fill="#404b58">
    <path
      d="M185.23 327.104a7.501 7.501 0 01-7.377-6.198l-2.483-14.082a7.5 7.5 0 016.084-8.688 7.497 7.497 0 018.689 6.083l2.483 14.082a7.5 7.5 0 01-7.396 8.803zM354.901 297.186a7.504 7.504 0 01-7.378-6.198l-2.483-14.082a7.5 7.5 0 016.084-8.689c4.083-.724 7.969 2.005 8.689 6.083l2.483 14.082a7.5 7.5 0 01-7.395 8.804zM266.76 323.415a37.64 37.64 0 01-23.654-8.368 7.5 7.5 0 019.425-11.67 22.625 22.625 0 0018.148 4.695 22.628 22.628 0 0015.448-10.619 7.5 7.5 0 0112.848 7.742 37.623 37.623 0 01-32.215 18.22z" />
  </g>
  <path
    d="M150.954 213.82c-17.812-8.504-36.424-11.452-54.215-9.825l-31.507 40.421c-11.522 14.782-10.223 35.834 3.03 49.087s34.305 14.553 49.087 3.03l69.934-54.513a275.969 275.969 0 008.42-6.85c-14.55-6.937-29.733-14.18-44.749-21.35z"
    opacity=".1" />
  <path
    d="M297.128 115.016c19.838-19.838 30.511-63.11 29.829-103.773-.125-7.444-7.187-12.773-14.378-10.846-33.557 8.99-76.66 14.357-96.187 33.884-22.294 22.294-22.294 58.441 0 80.736 22.295 22.294 58.442 22.294 80.736-.001z"
    fill="#fbe096" />
  <path
    d="M216.393 115.016c-.214-.214-.412-.438-.622-.654 22 13.542 51.188 10.795 70.253-8.27 19.838-19.838 30.511-63.11 29.829-103.773a11.526 11.526 0 00-.276-2.314c6.037.006 11.273 4.838 11.38 11.238.682 40.663-9.991 83.936-29.829 103.773-22.294 22.295-58.441 22.295-80.735 0z"
    opacity=".1" />
  <g opacity=".1">
    <path
      d="M269.917 104.586a7.5 7.5 0 01-3.809-13.966c14.462-8.507 25.11-36.074 25.931-45.927.344-4.128 3.97-7.224 8.097-6.851a7.5 7.5 0 016.851 8.097c-1.163 13.958-13.616 46.046-33.274 57.61a7.462 7.462 0 01-3.796 1.037zM228.396 71.656a7.548 7.548 0 01-1.584-.17 7.5 7.5 0 01-5.756-8.909c3.316-15.421 20.198-25.172 28.661-28.174a7.498 7.498 0 019.576 4.562 7.499 7.499 0 01-4.561 9.575c-6.686 2.372-17.352 9.476-19.011 17.191a7.502 7.502 0 01-7.325 5.925z" />
  </g>
  <path
    d="M102.171 281.355l69.934-54.513a274.822 274.822 0 0064.975-72.517 34.57 34.57 0 002.792-30.675 56.393 56.393 0 00-32.113-32.113 34.572 34.572 0 00-30.676 2.792 274.804 274.804 0 00-72.517 64.975l-54.513 69.934c-11.523 14.782-10.223 35.834 3.03 49.087 13.254 13.253 34.305 14.553 49.088 3.03z"
    fill="#ed718b" />
  <path
    d="M148.029 114.969a274.787 274.787 0 0129.054-20.64 34.572 34.572 0 0130.676-2.792 56.39 56.39 0 0132.113 32.113 34.57 34.57 0 01-2.792 30.675 274.643 274.643 0 01-20.64 29.054l-68.411-68.41z"
    fill="#404b58" />
  <path
    d="M172.105 226.842l-69.934 54.513c-14.782 11.523-35.834 10.223-49.087-3.03a37.157 37.157 0 01-5.363-6.78c12.943 7.98 29.85 7.377 42.307-2.333l69.934-54.513a274.822 274.822 0 0064.975-72.517 34.57 34.57 0 002.792-30.675 56.345 56.345 0 00-7.076-12.894 56.394 56.394 0 0119.219 25.037 34.57 34.57 0 01-2.792 30.675 274.806 274.806 0 01-64.975 72.517z"
    opacity=".1" />
</svg>
