<svg viewBox="0 -33 512 512" xmlns="http://www.w3.org/2000/svg">
  <path
    d="M256 49.066c-177.004-172.984-470.207 147.965-8.695 395.22a18.434 18.434 0 0017.39 0C726.207 197.03 433.004-123.919 256 49.065zm0 0"
    fill="#e8afe5" />
  <path
    d="M164.848 1.523C3.996-22.203-139.695 236.95 247.305 444.285a18.434 18.434 0 0017.39 0c4.028-2.16 7.993-4.324 11.91-6.492C-62.816 249.691 25.84 22.203 164.848 1.523zm0 0"
    fill="#e894e4" />
  <g fill="#fcdfd6">
    <path
      d="M325.434 221.875c-32.977 0-31.332-35.613-69.434-35.613s-36.453 35.613-69.434 35.613c-25.68 0-54.46 47.078-31.023 89.934 23.434 42.855 61.262 13.277 100.457 13.277s77.023 29.578 100.46-13.277c23.435-42.856-5.347-89.934-31.026-89.934zm0 0M240.27 140.473c0-17.243-10.344-31.223-23.106-31.223-12.762 0-23.105 13.98-23.105 31.223 0 17.242 10.343 31.218 23.105 31.218s23.106-13.976 23.106-31.218zm0 0M170.328 161.27c9.402 13.832 8.727 31.808-1.512 40.152-10.234 8.34-26.156 3.89-35.558-9.942-9.399-13.832-8.723-31.808 1.512-40.152 10.238-8.34 26.16-3.89 35.558 9.942zm0 0M317.941 140.473c0-17.243-10.343-31.223-23.105-31.223-12.758 0-23.106 13.98-23.106 31.223 0 17.242 10.348 31.218 23.106 31.218 12.762 0 23.105-13.976 23.105-31.218zm0 0M341.672 161.27c-9.402 13.832-8.727 31.808 1.512 40.152 10.234 8.34 26.156 3.89 35.558-9.942 9.403-13.832 8.723-31.808-1.512-40.152-10.238-8.34-26.156-3.89-35.558 9.942zm0 0" />
  </g>
</svg>
