<svg viewBox="0 0 512 512">
  <path
    d="M184.484 177.793H88.79v-25.89c0-15.688 12.719-28.403 28.406-28.403h38.883c15.688 0 28.402 12.715 28.402 28.402v25.891zm0 0"
    fill="#fd5c6f" />
  <path
    d="M359.79 177.793H217.995v-76.012c0-17.992 14.586-32.578 32.578-32.578h76.637c17.992 0 32.578 14.586 32.578 32.578zm0 0"
    fill="#6a829a" />
  <path
    d="M394.45 430.762H67.3c-30.112 0-54.523-24.41-54.523-54.524V213.141c0-30.11 24.41-54.524 54.524-54.524h327.148c30.11 0 54.524 24.414 54.524 54.524v163.097c-.004 30.114-24.414 54.524-54.524 54.524zm0 0"
    fill="#76e7d6" />
  <path
    d="M67.3 158.617c-30.112 0-54.523 24.41-54.523 54.524v163.097c0 30.114 24.41 54.524 54.524 54.524h255.265c38.68-30.047 40.66-74.215 40.66-74.215S255.657 334.789 256 336.16c-80.695-59.746-71.52-177.531-71.516-177.543zm0 0"
    fill="#00ddc4" />
  <path
    d="M134.262 158.617H67.297c-30.11 0-54.524 24.414-54.524 54.524v163.097c0 30.114 24.415 54.524 54.524 54.524h66.965zm0 0"
    fill="#b0f0e6" />
  <path
    d="M386.242 294.691c0 52.258-42.363 94.625-94.625 94.625s-94.629-42.367-94.629-94.625c0-52.261 42.367-94.629 94.63-94.629 52.26 0 94.624 42.368 94.624 94.63zm0 0"
    fill="#6a829a" />
  <path
    d="M318.945 129.422h-60.11c-8.565 0-15.51-6.945-15.51-15.512s6.945-15.512 15.51-15.512h60.11c8.57 0 15.516 6.946 15.516 15.512 0 8.57-6.945 15.512-15.516 15.512zm0 0"
    fill="#fcf5af" />
  <path
    d="M67.297 158.617c-30.11 0-54.524 24.414-54.524 54.524 0 0 24.543 40.523 60.747 40.523s60.742-40.523 60.742-40.523v-54.524zm0 0"
    fill="#ff8a98" />
  <path
    d="M350.594 294.691c0 32.57-26.406 58.977-58.977 58.977-32.57 0-58.976-26.406-58.976-58.977 0-32.574 26.406-58.976 58.976-58.976s58.977 26.402 58.977 58.976zm0 0"
    fill="#91d4f2" />
  <path
    d="M291.617 274.602c25.754 0 47.649 16.539 55.688 39.554a59.031 59.031 0 003.289-19.465c0-32.574-26.406-58.976-58.977-58.976-32.57 0-58.976 26.402-58.976 58.976a58.93 58.93 0 003.289 19.465c8.035-23.015 29.93-39.554 55.687-39.554zm0 0"
    fill="#59c2e8" />
  <path
    d="M198.14 387.527c0 10.07-8.163 18.235-18.234 18.235s-18.234-8.164-18.234-18.235c0-10.07 8.164-18.234 18.234-18.234s18.235 8.164 18.235 18.234zm0 0"
    fill="#fffcdc" />
  <g fill="#f9ee80">
    <path
      d="M445.68 91.516l7.754 14.175a84.25 84.25 0 0033.503 33.504l14.18 7.758c14.508 7.934 14.508 28.774 0 36.707l-14.18 7.754a84.308 84.308 0 00-33.503 33.508l-7.754 14.176c-7.934 14.511-28.774 14.511-36.711 0l-7.754-14.176a84.308 84.308 0 00-33.504-33.508l-14.176-7.754c-14.512-7.933-14.512-28.773 0-36.707l14.176-7.758a84.274 84.274 0 0033.504-33.504l7.754-14.175c7.937-14.512 28.777-14.512 36.71 0zm0 0M73.383 8.25l5.523 10.098A59.998 59.998 0 00102.77 42.21l10.097 5.523c10.336 5.653 10.336 20.496 0 26.149l-10.097 5.52a60.032 60.032 0 00-23.864 23.867l-5.523 10.097c-5.653 10.332-20.496 10.332-26.149 0l-5.52-10.097a60.066 60.066 0 00-23.866-23.868L7.75 73.882c-10.332-5.652-10.332-20.495 0-26.148l10.098-5.523a60.032 60.032 0 0023.867-23.863l5.52-10.098c5.652-10.336 20.495-10.336 26.148 0zm0 0" />
  </g>
</svg>
