<svg viewBox="0 0 512 512">
  <path
    d="M380.284 193.248H129.36V30.842c0-12.873 10.436-23.308 23.309-23.308h204.306c12.873 0 23.309 10.436 23.309 23.308v162.406z"
    fill="#e8e8e8" />
  <path
    d="M160.117 193.248V52.162c0-7.661 6.21-13.871 13.871-13.871h161.667c7.661 0 13.871 6.21 13.871 13.871v141.086H160.117z"
    fill="#90dca3" />
  <path
    d="M377.354 90.953a39.038 39.038 0 00-34.642 3.153 310.325 310.325 0 00-81.893 73.376l-8.893 11.408L129.361 56.323v136.924h250.923V92.182a63.489 63.489 0 00-2.93-1.229z"
    opacity=".1" />
  <path fill="#404b58" d="M214.614 319.28l77.794-77.794 31.353 31.353-77.794 77.795z" />
  <path
    d="M245.971 350.634l77.792-77.793 42.003 42.003c10.995 10.995 10.995 28.822 0 39.817l-37.976 37.976c-10.995 10.995-28.822 10.995-39.817 0l-42.002-42.003z"
    fill="#ed718b" />
  <path fill="#fda75f" d="M214.617 319.283L43.528 148.194 121.323 70.4 292.41 241.489z" />
  <path opacity=".05" d="M69.459 122.259l25.93-25.931 171.09 171.088-25.932 25.931z" />
  <path
    d="M75.903 147.715l-4.099-16.191c-1.059-4.183 2.737-7.979 6.92-6.92l16.191 4.099c4.183 1.059 7.979-2.737 6.92-6.92l-4.099-16.191c-1.059-4.183 2.737-7.979 6.92-6.92l16.191 4.099c4.183 1.059 7.979-2.737 6.92-6.92l-6.445-25.456a81.802 81.802 0 00-31.581-19.629L21.9 27.776C8.907 23.372-3.498 35.776.906 48.77l22.993 67.838a81.785 81.785 0 0019.628 31.581l25.456 6.445c4.183 1.059 7.979-2.736 6.92-6.919z"
    fill="#fbe096" />
  <path d="M62.121 41.408L21.9 27.776C8.907 23.372-3.498 35.776.906 48.77l13.632 40.221 47.583-47.583z"
    fill="#404b58" />
  <path
    d="M327.791 392.637l14.463-14.463c-10.995 10.994-28.821 10.994-39.816-.001l-42.003-42.003-31.356-31.356L57.99 133.726a81.78 81.78 0 01-19.628-31.581L15.369 34.306c-.847-2.5-1.067-4.976-.786-7.317C4.757 28.171-2.651 38.276.906 48.77l22.993 67.838a81.796 81.796 0 0019.628 31.582l171.089 171.089 31.356 31.356 42.003 42.003c10.994 10.994 28.821 10.994 39.816-.001z"
    opacity=".1" />
  <path
    d="M478.279 139.582c22.403-22.403 34.457-71.27 33.686-117.191-.141-8.407-8.116-14.424-16.238-12.248-37.896 10.153-86.572 16.213-108.623 38.265-25.177 25.177-25.177 65.998 0 91.175 25.177 25.176 65.998 25.176 91.175-.001z"
    fill="#fbe096" />
  <path
    d="M387.104 139.582c-.242-.242-.465-.494-.702-.739 24.844 15.293 57.806 12.191 79.336-9.339 22.403-22.403 34.456-71.27 33.686-117.191a13.054 13.054 0 00-.311-2.613c6.817.007 12.731 5.463 12.852 12.691.77 45.921-11.283 94.788-33.686 117.191-25.177 25.177-65.997 25.177-91.175 0z"
    opacity=".1" />
  <g opacity=".1">
    <path
      d="M447.549 126.833a7.502 7.502 0 01-3.81-13.966c16.6-9.765 28.818-41.342 29.759-52.621.345-4.129 3.988-7.209 8.097-6.851a7.5 7.5 0 016.851 8.097c-1.299 15.589-15.185 51.413-37.101 64.305a7.473 7.473 0 01-3.796 1.036zM400.66 89.645a7.548 7.548 0 01-1.584-.17 7.498 7.498 0 01-5.756-8.908c3.654-16.999 22.362-27.781 31.743-31.107 3.907-1.382 8.192.658 9.575 4.561a7.499 7.499 0 01-4.562 9.575c-7.986 2.832-20.119 10.947-22.093 20.123a7.5 7.5 0 01-7.323 5.926z" />
  </g>
  <path
    d="M258.114 327.428l78.977-61.561a310.356 310.356 0 0073.376-81.893 39.04 39.04 0 003.153-34.642 63.68 63.68 0 00-36.265-36.265 39.041 39.041 0 00-34.642 3.153 310.34 310.34 0 00-81.893 73.376l-61.561 78.977c-13.012 16.694-11.545 40.467 3.422 55.434 14.965 14.966 38.739 16.433 55.433 3.421z"
    fill="#ed718b" />
  <path
    d="M309.901 139.529a310.38 310.38 0 0132.811-23.309 39.041 39.041 0 0134.642-3.153 63.68 63.68 0 0136.265 36.265 39.041 39.041 0 01-3.153 34.642 310.337 310.337 0 01-23.309 32.811l-77.256-77.256z"
    fill="#404b58" />
  <path
    d="M337.09 265.867l-78.977 61.561c-16.694 13.012-40.467 11.545-55.434-3.422a42.017 42.017 0 01-6.056-7.656c14.616 9.012 33.71 8.331 47.777-2.635l78.977-61.561a310.373 310.373 0 0073.376-81.893 39.038 39.038 0 003.153-34.642 63.643 63.643 0 00-7.991-14.562 63.685 63.685 0 0121.704 28.274 39.041 39.041 0 01-3.153 34.642 310.329 310.329 0 01-73.376 81.894z"
    opacity=".1" />
  <path
    d="M449.462 504.466H60.182c-21.313 0-38.59-17.277-38.59-38.59V246.11c0-21.313 17.278-38.59 38.59-38.59h389.28c21.313 0 38.59 17.277 38.59 38.59v219.766c0 21.313-17.277 38.59-38.59 38.59z"
    fill="#404b58" />
  <path
    d="M484.034 228.964a26.753 26.753 0 00-5.262-.522h-447.9c-1.801 0-3.561.181-5.262.522a38.426 38.426 0 00-4.018 17.146v116.943a66.27 66.27 0 0033.794 19.866l58.051 13.694a615.981 615.981 0 0079.124 13.294v7.155c0 9.111 7.386 16.497 16.497 16.497h91.529c9.111 0 16.497-7.386 16.497-16.497v-7.155a615.634 615.634 0 0079.124-13.294l58.052-13.694c.222-.052.44-.115.662-.169v83.126c0 21.313-17.277 38.59-38.59 38.59h33.132c21.313 0 38.59-17.278 38.59-38.59V246.11a38.44 38.44 0 00-4.02-17.146z"
    opacity=".1" />
  <path
    d="M454.259 347.725l-58.051 13.693a615.824 615.824 0 01-282.77 0l-58.051-13.693c-29.99-7.074-51.179-33.843-51.179-64.656v-63.156c0-14.727 11.939-26.665 26.666-26.665h447.9c14.727 0 26.665 11.939 26.665 26.665v63.156c-.001 30.814-21.19 57.582-51.18 64.656z"
    fill="#79c6e4" />
  <g fill="#404b58">
    <path
      d="M185.275 275.362a7.499 7.499 0 01-7.5-7.5V256c0-4.143 3.357-7.5 7.5-7.5s7.5 3.357 7.5 7.5v11.862c0 4.143-3.357 7.5-7.5 7.5zM254.822 296.947c-11.058 0-20.022-8.964-20.022-20.022v-14.667a5.342 5.342 0 015.342-5.342h29.36a5.342 5.342 0 015.342 5.342v14.667c0 11.058-8.964 20.022-20.022 20.022zM324.369 275.362a7.5 7.5 0 01-7.5-7.5V256a7.5 7.5 0 017.5-7.5c4.143 0 7.5 3.357 7.5 7.5v11.862c0 4.143-3.357 7.5-7.5 7.5z" />
  </g>
  <path
    d="M478.772 193.248h-34.244c15.336 0 27.769 12.432 27.769 27.768v65.768c0 32.088-22.065 59.963-53.296 67.33l-60.452 14.26a646.928 646.928 0 01-10.589 2.394 615.807 615.807 0 0048.248-9.35l58.052-13.694c29.99-7.074 51.179-33.843 51.179-64.656v-63.156c-.001-14.726-11.94-26.664-26.667-26.664z"
    opacity=".1" />
  <path
    d="M300.587 336.084h-91.529c-9.111 0-16.497 7.386-16.497 16.497v43.985c0 9.111 7.386 16.497 16.497 16.497h91.529c9.111 0 16.497-7.386 16.497-16.497v-43.985c-.001-9.111-7.387-16.497-16.497-16.497z"
    fill="#fbe096" />
  <path
    d="M278.147 382.073h-46.651c-4.143 0-7.5-3.357-7.5-7.5s3.357-7.5 7.5-7.5h46.651c4.142 0 7.5 3.357 7.5 7.5s-3.357 7.5-7.5 7.5z"
    fill="#404b58" />
</svg>
