<svg xmlns="http://www.w3.org/2000/svg" viewBox="0 0 512 512">
  <path
    d="M488.871 395.306H238.749L123.957 280.514V30.392c0-12.774 10.355-23.129 23.129-23.129h341.785C501.645 7.263 512 17.618 512 30.392v341.785c0 12.774-10.355 23.129-23.129 23.129z"
    fill="#79c6e4" />
  <g fill="#404b58">
    <path
      d="M448.293 172.627H187.665c-4.142 0-7.5-3.357-7.5-7.5s3.358-7.5 7.5-7.5h260.628a7.5 7.5 0 017.5 7.5 7.5 7.5 0 01-7.5 7.5zM448.293 220.574H187.665c-4.142 0-7.5-3.357-7.5-7.5s3.358-7.5 7.5-7.5h260.628a7.5 7.5 0 017.5 7.5 7.5 7.5 0 01-7.5 7.5zM448.293 268.522H187.665c-4.142 0-7.5-3.357-7.5-7.5s3.358-7.5 7.5-7.5h260.628a7.5 7.5 0 017.5 7.5 7.5 7.5 0 01-7.5 7.5z" />
  </g>
  <path d="M414.015 138.189H123.957v142.325l114.792 114.792h198.395V161.318c0-12.774-10.355-23.129-23.129-23.129z"
    opacity=".1" />
  <path
    d="M364.914 504.737H114.792L0 389.945V139.823c0-12.774 10.355-23.129 23.129-23.129h341.785c12.774 0 23.129 10.355 23.129 23.129v341.785c0 12.774-10.355 23.129-23.129 23.129z"
    fill="#fda75f" />
  <path d="M112.29 421.548c0 17.516 24.921 83.189 50.78 83.189h-48.277l-41.699-57.396 39.196-25.793z" opacity=".1" />
  <path
    d="M42.575 393.564A186.224 186.224 0 010 389.944c0 63.398 51.394 114.792 114.792 114.792a186.229 186.229 0 01-3.619-42.575l1.366-49.658c.306-11.119-8.75-20.233-19.871-19.998l-50.093 1.059z"
    fill="#fbe096" />
  <g fill="#404b58">
    <path
      d="M86.51 223.56a7.5 7.5 0 01-7.5-7.5v-18.337c0-4.143 3.358-7.5 7.5-7.5s7.5 3.357 7.5 7.5v18.337a7.5 7.5 0 01-7.5 7.5zM194.021 261.022c-17.094 0-30.952-13.858-30.952-30.952v-22.673a8.26 8.26 0 018.259-8.259h45.386a8.26 8.26 0 018.259 8.259v22.673c0 17.095-13.857 30.952-30.952 30.952zM301.533 223.56a7.5 7.5 0 01-7.5-7.5v-18.337c0-4.143 3.358-7.5 7.5-7.5s7.5 3.357 7.5 7.5v18.337a7.5 7.5 0 01-7.5 7.5zM301.533 318.216H86.51c-4.142 0-7.5-3.357-7.5-7.5s3.358-7.5 7.5-7.5h215.023a7.5 7.5 0 010 15zM269.368 357.83H118.675c-4.142 0-7.5-3.357-7.5-7.5s3.358-7.5 7.5-7.5h150.692a7.5 7.5 0 017.5 7.5 7.498 7.498 0 01-7.499 7.5z" />
  </g>
</svg>
