<svg viewBox="0 0 512.001 512" xmlns="http://www.w3.org/2000/svg">
  <path
    d="M128 185.824L0 255.898v202.465C0 487.988 24.012 512 53.637 512h28.449c10.75 0 19.465-8.715 19.465-19.465V480.07c0-14.605 11.844-26.445 26.449-26.445s26.45 11.84 26.45 26.445v12.465c0 10.75 8.714 19.465 19.464 19.465H256V256zm0 0"
    fill="#c7aee4" />
  <path
    d="M128 453.625c14.605 0 26.45 11.84 26.45 26.445v12.465c0 10.75 8.714 19.465 19.464 19.465H256V366.453c-34.266-19.402-72.23-36.668-114.297-52.176-43.883-16.18-76.523-46.21-100.758-80.793L0 255.898v202.465C0 487.988 24.012 512 53.637 512h28.449c10.75 0 19.465-8.715 19.465-19.465V480.07c0-14.605 11.844-26.445 26.449-26.445zm0 0"
    fill="#b18cd9" />
  <path
    d="M480.668 357.5h11.867c10.75 0 19.465-8.715 19.465-19.465v-82.137L256 256v83.379c0 10.008-8.113 18.121-18.121 18.121h-13.211c-14.438 0-26.664 11.32-27.035 25.75-.387 14.93 11.597 27.148 26.437 27.148h13.809c10.008 0 18.121 8.114 18.121 18.122V512h202.363C487.988 512 512 487.988 512 458.363v-28.5c0-10.75-8.715-19.465-19.465-19.465H480.07c-14.84 0-26.824-12.222-26.437-27.148.37-14.43 12.597-25.75 27.035-25.75zm0 0"
    fill="#81d9e7" />
  <path
    d="M480.07 101.602h12.465c10.75 0 19.465-8.711 19.465-19.465v-28.5C512 24.016 487.988 0 458.363 0h-28.449c-10.75 0-19.465 8.715-19.465 19.465V31.93c0 14.605-11.844 26.449-26.449 26.449s-26.45-11.844-26.45-26.45V19.466C357.55 8.715 348.837 0 338.087 0H256v256l83.438.035c10.007.004 18.113 8.113 18.113 18.121v13.672c0 14.606 11.844 26.445 26.449 26.445s26.45-11.84 26.45-26.445v-13.637c0-10.011 8.116-18.125 18.124-18.12l83.426.03v-82.136c0-10.75-8.715-19.465-19.465-19.465H480.07c-14.605 0-26.449-11.844-26.449-26.45s11.844-26.448 26.45-26.448zm0 0"
    fill="#f9ee80" />
  <path
    d="M287.93 101.602H274.12c-10.008 0-18.121-8.11-18.121-18.122V0h-82.086c-10.75 0-19.465 8.715-19.465 19.465V31.93c0 14.605-11.844 26.449-26.449 26.449s-26.45-11.844-26.45-26.45V19.466C101.55 8.715 92.837 0 82.087 0h-28.45C24.013 0 0 24.016 0 53.637v202.261l83.426.032c10.008.004 18.125-8.11 18.125-18.121v-13.637c0-14.606 11.844-26.445 26.449-26.445s26.45 11.84 26.45 26.445v13.672c0 10.008 8.105 18.117 18.112 18.12L256 256v-83.379c0-10.008 8.113-18.121 18.121-18.121h13.809c14.605 0 26.445-11.84 26.445-26.45.004-14.605-11.84-26.448-26.445-26.448zm0 0"
    fill="#fd5c6f" />
  <g fill="#575757">
    <path
      d="M211.09 125.785a7.729 7.729 0 01-7.727-7.726V105.23a7.726 7.726 0 1115.453 0v12.829a7.726 7.726 0 01-7.726 7.726zm0 0M44.91 125.785a7.726 7.726 0 01-7.726-7.726V105.23a7.726 7.726 0 1115.453 0v12.829a7.729 7.729 0 01-7.727 7.726zm0 0M149.488 133.05c0-14.05-9.62-25.44-21.488-25.44s-21.488 11.39-21.488 25.44c0 14.055 9.62 25.446 21.488 25.446s21.488-11.39 21.488-25.445zm0 0" />
  </g>
  <path
    d="M420.441 512c-45.27-63.84-104.277-114.055-180.933-154.57-.531.047-14.84.07-14.84.07-14.438 0-26.664 11.32-27.035 25.75-.387 14.93 11.597 27.148 26.437 27.148h13.809c10.008 0 18.121 8.114 18.121 18.122V512zm0 0"
    fill="#3ccbde" />
  <path d="M0 153.637v102.34l58.523.023C31.54 225.246 12.863 188.398 0 153.637zm0 0" fill="#f6334c" />
</svg>
