<svg viewBox="-46 0 512 512" xmlns="http://www.w3.org/2000/svg">
  <path
    d="M0 151.18v209.675c0 8.141 3.727 16.286 11.184 21.524l172.87 121.43c15.548 10.921 36.274 10.921 51.821 0l172.871-121.43c7.453-5.238 11.309-13.29 11.309-21.43l-.125-209.8zm0 0"
    fill="#29ce69" />
  <path d="M420 270.11L236 398.94a45.002 45.002 0 01-25.973 8.188v-255.95l209.903-.034zm0 0" fill="#5ad6ff" />
  <path
    d="M236 398.941l88.781-62.16V441.45L236 503.81a44.993 44.993 0 01-25.973 8.187V407.13A45.002 45.002 0 00236 398.94zm0 0"
    fill="#fd5c6f" />
  <path d="M324.777 336.781L236 398.941a45.002 45.002 0 01-25.973 8.188v-255.95l114.75-.027zm0 0" fill="#f4e74d" />
  <path
    d="M210.027 151.18H0v209.675c0 8.141 3.727 16.286 11.184 21.524l172.87 121.43a45.002 45.002 0 0025.973 8.187zm0 0"
    fill="#5ad6ff" />
  <path d="M0 270.07l184.055 128.871a45.002 45.002 0 0025.972 8.188v-255.95H0zm0 0" fill="#29ce69" />
  <path d="M95.277 151.172v290.273l88.778 62.364a45.03 45.03 0 0025.972 8.187V151.18zm0 0" fill="#ffcd00" />
  <path
    d="M184.055 8.191L11.184 129.621c-14.91 10.477-14.91 32.574 0 43.05l172.87 121.43c15.548 10.922 36.274 10.922 51.821 0l172.871-121.43c14.91-10.476 14.91-32.573 0-43.05L235.875 8.191c-15.547-10.921-36.273-10.921-51.82 0zm0 0"
    fill="#ff8a98" />
  <path
    d="M184.055 398.941l-88.778-62.16V441.45l88.778 62.36a45.002 45.002 0 0025.972 8.187V407.13a45.002 45.002 0 01-25.972-8.188zm0 0"
    fill="#f6334c" />
  <path d="M95.277 336.781l88.778 62.16a45.002 45.002 0 0025.972 8.188v-255.95l-114.75-.007zm0 0" fill="#eedb00" />
  <path
    d="M408.746 172.672c14.91-10.477 14.91-32.574 0-43.05l-17.496-12.29-66.55-46.75L95.276 231.738l88.778 62.364c15.547 10.921 36.27 10.921 51.816 0l155.996-109.575zm0 0"
    fill="#a4e7ff" />
  <path
    d="M324.652 231.738L95.23 70.586 11.184 129.62c-14.91 10.477-14.91 32.574 0 43.05l25.59 17.974 147.28 103.457c15.548 10.921 36.274 10.921 51.821 0l3.512-2.47zm0 0"
    fill="#73da8c" />
  <path
    d="M209.965 151.18L95.277 231.738l8.782 6.172 79.996 56.192c15.547 10.921 36.27 10.921 51.816 0l88.781-62.364zm0 0"
    fill="#f9ee80" /></svg>
