<svg viewBox="0 0 497 497">
  <path
    d="M437 41H60C26.863 41 0 67.863 0 101v295c0 33.137 26.863 60 60 60h377c33.137 0 60-26.863 60-60V101c0-33.137-26.863-60-60-60z"
    fill="#7ce3ff" />
  <path
    d="M258.75 416.036V80.964c0-18.379 12.365-34.678 29.967-39.964H60C26.863 41 0 67.863 0 101v295c0 33.137 26.863 60 60 60h228.717c-17.602-5.287-29.967-21.585-29.967-39.964z"
    fill="#2ed0fc" />
  <path
    d="M258.75 80.967C240.36 74.519 220.593 71 200 71c-98.031 0-177.5 79.469-177.5 177.5C22.5 346.53 101.969 426 200 426c20.593 0 40.36-3.519 58.75-9.967C327.905 391.782 377.5 325.938 377.5 248.5S327.905 105.218 258.75 80.967zM200 308.5c-33.084 0-60-26.916-60-60s26.916-60 60-60 60 26.916 60 60-26.916 60-60 60z"
    fill="#8288cb" />
  <path
    d="M140 248.5c0-77.438 49.595-143.282 118.75-167.533C240.36 74.519 220.593 71 200 71c-98.031 0-177.5 79.469-177.5 177.5C22.5 346.53 101.969 426 200 426c20.593 0 40.36-3.519 58.75-9.967C189.595 391.782 140 325.938 140 248.5z"
    fill="#676fb2" />
  <circle cx="200" cy="248.5" fill="#ff8e9e" r="60" />
  <circle cx="200" cy="248.5" fill="#efedff" r="15" />
  <g fill="#313d40">
    <path
      d="M147.551 126.356a7.499 7.499 0 00-7.5 7.5v12c0 4.143 3.357 7.5 7.5 7.5s7.5-3.357 7.5-7.5v-12a7.5 7.5 0 00-7.5-7.5zM252.448 126.356a7.499 7.499 0 00-7.5 7.5v12c0 4.143 3.357 7.5 7.5 7.5s7.5-3.357 7.5-7.5v-12a7.5 7.5 0 00-7.5-7.5zM221.391 139.845a7.498 7.498 0 00-10.581.728c-5.725 6.569-15.899 6.564-21.619 0a7.5 7.5 0 10-11.309 9.853c11.702 13.431 32.545 13.419 44.236 0a7.498 7.498 0 00-.727-10.581z" />
  </g>
  <g fill="#4c5699">
    <path
      d="M99.237 147.737A7.5 7.5 0 0088.63 137.13c-61.408 61.41-61.408 161.33 0 222.74a7.501 7.501 0 0010.607-10.607c-55.56-55.561-55.56-145.965 0-201.526zM311.37 137.13a7.5 7.5 0 00-10.607 10.607c55.561 55.561 55.561 145.965 0 201.525a7.5 7.5 0 0010.607 10.607c61.408-61.409 61.408-161.329 0-222.739z" />
    <path
      d="M87.557 248.5c0-30.086 11.682-58.338 32.895-79.549a7.5 7.5 0 00-10.607-10.607C85.8 182.389 72.558 214.407 72.558 248.5s13.242 66.111 37.287 90.156a7.5 7.5 0 0010.607-10.607c-21.214-21.211-32.895-49.463-32.895-79.549zM290.156 158.344a7.501 7.501 0 00-10.607 10.607c21.213 21.211 32.895 49.463 32.895 79.549s-11.682 58.338-32.895 79.549a7.5 7.5 0 0010.607 10.607c24.045-24.045 37.287-56.063 37.287-90.156s-13.242-66.111-37.287-90.156z" />
    <path
      d="M141.664 179.557a7.502 7.502 0 00-10.607 0c-18.388 18.389-28.515 42.873-28.515 68.943s10.127 50.555 28.515 68.943a7.501 7.501 0 0010.607-10.607c-32.167-32.166-32.167-84.506 0-116.672a7.5 7.5 0 000-10.607zM268.943 179.557a7.5 7.5 0 00-10.607 10.607c32.167 32.166 32.167 84.506 0 116.672a7.5 7.5 0 0010.607 10.607c18.388-18.389 28.515-42.873 28.515-68.943s-10.127-50.555-28.515-68.943z" />
  </g>
  <g>
    <path
      d="M422.148 145.5l-15 15v186.64l-25.069 25.07c-5.858 5.858-5.857 15.355 0 21.213 2.929 2.93 6.768 4.394 10.606 4.394s7.678-1.465 10.606-4.394l25.067-25.068c5.668-5.666 8.789-13.2 8.789-21.215V160.5z"
      fill="#8288cb" />
    <g fill="#676fb2">
      <path
        d="M355.788 419.713c-11.716-11.716-11.716-30.71 0-42.426l9.338-9.338c11.715-11.717 30.711-11.717 42.426 0 11.716 11.716 11.716 30.71 0 42.426l-9.338 9.338c-11.713 11.715-30.711 11.717-42.426 0zM437 160.5h-29.5c-16.569 0-30-13.431-30-30V101c0-16.569 13.431-30 30-30H437c16.569 0 30 13.431 30 30v29.5c0 16.569-13.431 30-30 30z" />
    </g>
  </g>
</svg>
