<svg viewBox="0 0 512 512" xmlns="http://www.w3.org/2000/svg"><path d="M452.34 284.762l-38.012-15.997v140.87l38.012-15.997a28.096 28.096 0 0017.198-25.896V310.66a28.096 28.096 0 00-17.198-25.898z" fill="#e7889d"/><path d="M445.233 281.771l-30.905-13.007v140.87l30.905-13.007z" fill="#e16e7e"/><path d="M353.326 512H86.166c-17.016 0-30.811-13.794-30.811-30.811V70.793c0-17.016 13.794-30.811 30.811-30.811h267.16c33.69 0 61.001 27.311 61.001 61.002v350.015c.001 33.69-27.311 61.001-61.001 61.001z" fill="#88d37f"/><path d="M86.166 39.982c-17.016 0-30.811 13.795-30.811 30.811v410.396C55.356 498.206 69.15 512 86.166 512h176.942C118.787 430.518 134.22 183.973 134.526 39.982zM353.326 39.982H252.59v149.067c0 34.544 28.104 62.649 62.649 62.649h99.089V100.984c0-33.69-27.312-61.002-61.002-61.002z" fill="#5ec682"/><g fill="#fff"><path d="M302.133 338.69H167.55a7.5 7.5 0 010-15h134.583a7.5 7.5 0 010 15zM271.105 398.755h-72.528c-4.142 0-7.5-3.357-7.5-7.5s3.358-7.5 7.5-7.5h72.528a7.5 7.5 0 017.5 7.5 7.5 7.5 0 01-7.5 7.5z"/></g><circle cx="234.842" cy="196.845" fill="#cde9fa" transform="rotate(-45 234.824 196.903)" r="59.944"/><circle cx="234.842" cy="196.845" fill="#cde9fa" transform="rotate(-45 234.824 196.903)" r="59.944"/><path d="M252.59 139.574v49.476c0 20.366 9.774 38.487 24.872 49.937 10.708-10.828 17.324-25.711 17.324-42.142-.001-26.927-17.755-49.705-42.196-57.271z" fill="#a2ddfd"/><g fill="#59636f"><path d="M76.463 83.86H34.249c-14.656 0-26.537 11.881-26.537 26.537 0 14.656 11.881 26.537 26.537 26.537h42.214c14.656 0 26.537-11.881 26.537-26.537-.001-14.656-11.882-26.537-26.537-26.537zM76.463 194.256H34.249c-14.656 0-26.537 11.881-26.537 26.537 0 14.656 11.881 26.537 26.537 26.537h42.214c14.656 0 26.537-11.881 26.537-26.537-.001-14.656-11.882-26.537-26.537-26.537zM76.463 304.653H34.249c-14.656 0-26.537 11.881-26.537 26.537 0 14.656 11.881 26.537 26.537 26.537h42.214c14.656 0 26.537-11.881 26.537-26.537-.001-14.656-11.882-26.537-26.537-26.537zM76.463 415.049H34.249c-14.656 0-26.537 11.881-26.537 26.537 0 14.656 11.881 26.537 26.537 26.537h42.214c14.656 0 26.537-11.881 26.537-26.537-.001-14.656-11.882-26.537-26.537-26.537z"/></g><path d="M472.544 0H315.239c-17.532 0-31.744 14.212-31.744 31.744V189.05c0 17.531 14.212 31.744 31.744 31.744h11.331c0-37.181 30.141-67.322 67.322-67.322s67.321 30.141 67.321 67.322h11.331c17.532 0 31.744-14.212 31.744-31.744V31.744C504.288 14.212 490.076 0 472.544 0z" fill="#fbf1cf"/><path d="M346.53 172.959C324.215 111.168 326.281 24.756 330.134 0h-14.895c-17.532 0-31.744 14.212-31.744 31.744V189.05c0 17.531 14.212 31.744 31.744 31.744h11.331c0-18.711 7.638-35.634 19.96-47.835z" fill="#fae0bd"/><path d="M461.213 220.793c0-37.181-30.141-67.322-67.321-67.322s-67.322 30.141-67.322 67.322z" fill="#7acefa"/><circle cx="393.892" cy="116.113" fill="#a2ddfd" r="48.654"/></svg>
