<svg viewBox="-16 0 512 512" xmlns="http://www.w3.org/2000/svg">
  <path
    d="M143.688 104.879c24.175 0 50.19 4.008 77.335 11.914 28.63 8.336 57.125 20.637 84.696 36.55 27.77 16.036 52.824 34.712 74.46 55.512 20.505 19.711 37.005 40.391 49.036 61.465 11.195 19.61 18.062 39.125 19.86 56.438 1.663 16.015-.923 30.074-7.684 41.789-6.817 11.805-17.813 21.121-32.684 27.7-16.082 7.112-36.652 10.874-59.488 10.874-24.176 0-50.196-4.008-77.336-11.91-28.633-8.34-57.13-20.637-84.7-36.555-27.769-16.035-52.82-34.71-74.46-55.511-20.504-19.711-37.004-40.391-49.036-61.465-11.195-19.61-18.062-39.125-19.859-56.438-1.664-16.015.922-30.074 7.684-41.789 6.816-11.8 17.812-21.121 32.683-27.7 16.082-7.112 36.653-10.874 59.489-10.874zm-.004-30.906C89.508 73.977 45.53 92.003 24.75 128c-41.266 71.477 24.54 186.727 146.98 257.418 60.782 35.094 124.09 52.61 177.489 52.61 54.176 0 98.152-18.032 118.937-54.028 41.266-71.477-24.539-186.727-146.984-257.418-60.781-35.094-124.09-52.61-177.488-52.61zm0 0"
    fill="#3ccbde" />
  <path
    d="M349.238 104.879c22.832 0 43.399 3.762 59.477 10.875 14.867 6.574 25.86 15.894 32.676 27.7 6.761 11.714 9.347 25.773 7.687 41.788-1.797 17.313-8.668 36.828-19.863 56.438-12.031 21.074-28.528 41.754-49.035 61.465-21.637 20.8-46.692 39.476-74.461 55.511-27.567 15.914-56.063 28.211-84.696 36.551-27.144 7.906-53.164 11.914-77.34 11.914-22.835 0-43.41-3.762-59.488-10.871-14.87-6.578-25.863-15.898-32.68-27.703-6.761-11.715-9.347-25.774-7.687-41.79 1.797-17.312 8.664-36.827 19.86-56.437 12.035-21.074 28.53-41.754 49.039-61.465 21.636-20.8 46.687-39.476 74.457-55.511 27.566-15.914 56.062-28.211 84.699-36.551 27.144-7.902 53.164-11.914 77.347-11.914zm-.02-30.906c-53.394.004-116.714 17.52-177.488 52.609C49.29 197.273-16.516 312.523 24.75 384c20.785 36 64.75 54.027 118.934 54.027 53.398 0 116.714-17.52 177.488-52.609C443.617 314.727 509.422 199.477 468.156 128c-20.785-36-64.75-54.027-118.937-54.027zm0 0"
    fill="#81d9e7" />
  <path
    d="M246.453 30.906c13.527 0 26.996 4.79 40.035 14.239 14.094 10.21 27.563 25.917 38.946 45.417 12.234 20.958 21.894 45.586 28.71 73.2 7.196 29.14 10.844 60.175 10.844 92.238 0 32.066-3.648 63.102-10.843 92.238-6.817 27.614-16.48 52.242-28.711 73.203-11.387 19.497-24.852 35.204-38.946 45.414-13.039 9.45-26.511 14.239-40.035 14.239-13.527 0-26.996-4.79-40.035-14.239-14.098-10.21-27.563-25.918-38.945-45.418-12.235-20.957-21.895-45.585-28.711-73.199-7.196-29.14-10.844-60.172-10.844-92.238s3.648-63.098 10.844-92.238c6.816-27.614 16.476-52.242 28.71-73.2 11.383-19.5 24.852-35.207 38.946-45.417 13.039-9.45 26.508-14.239 40.035-14.239m0-30.906C163.918 0 97.012 114.613 97.012 256s66.906 256 149.441 256c82.531 0 149.438-114.613 149.438-256S328.984 0 246.453 0zm0 0"
    fill="#b5e9f1" />
  <path
    d="M343.46 256c0 53.574-43.433 97.008-97.007 97.008-53.578 0-97.008-43.434-97.008-97.008s43.43-97.008 97.008-97.008c53.574 0 97.008 43.434 97.008 97.008zm0 0"
    fill="#00ddc4" />
  <path
    d="M203.629 256c0-70.96 42.824-97.008 42.824-97.008-53.578 0-97.008 43.434-97.008 97.008s43.43 97.008 97.008 97.008c0 0-42.824-26.047-42.824-97.008zm0 0"
    fill="#00c5a3" />
  <g fill="#575757">
    <path
      d="M295.29 268.598a7.729 7.729 0 01-7.728-7.727v-12.828a7.726 7.726 0 1115.453 0v12.828a7.726 7.726 0 01-7.726 7.727zm0 0M197.613 268.598a7.729 7.729 0 01-7.726-7.727v-12.828a7.726 7.726 0 1115.453 0v12.828a7.726 7.726 0 01-7.727 7.727zm0 0M251.73 253.152a6.365 6.365 0 01-5.277 2.848c-1.027 0-3.59-.277-5.277-2.848-2.344-3.566-7.137-4.558-10.7-2.214-3.566 2.34-4.558 7.132-2.218 10.699 4.039 6.148 10.84 9.816 18.195 9.816s14.152-3.668 18.192-9.816a7.724 7.724 0 00-2.215-10.7c-1.309-.859-7.09-3.085-10.7 2.215zm0 0" />
  </g>
  <path
    d="M322.652 32.656c0 16.492-13.37 29.864-29.863 29.864-16.496 0-29.863-13.372-29.863-29.864s13.367-29.863 29.863-29.863c16.492 0 29.863 13.371 29.863 29.863zm0 0"
    fill="#fd5c6f" />
  <path
    d="M446.57 407.8c0 16.493-13.37 29.864-29.863 29.864-16.496 0-29.867-13.371-29.867-29.863 0-16.496 13.37-29.867 29.867-29.867 16.492 0 29.863 13.37 29.863 29.867zm0 0"
    fill="#29ce69" />
  <path
    d="M59.727 327.543c0 16.496-13.372 29.863-29.864 29.863S0 344.04 0 327.543c0-16.492 13.371-29.863 29.863-29.863 16.492 0 29.864 13.37 29.864 29.863zm0 0"
    fill="#f4e74d" />
</svg>
