<svg viewBox="0 0 512 512">
  <g fill="#445258">
    <path
      d="M84.839 421.997C38.059 421.997 0 383.94 0 337.16s38.059-84.838 84.839-84.838 84.838 38.058 84.838 84.838-38.058 84.837-84.838 84.837zm0-135.953c-28.186 0-51.116 22.931-51.116 51.115s22.931 51.115 51.116 51.115 51.115-22.931 51.115-51.115-22.931-51.115-51.115-51.115zM427.162 421.997c-46.78 0-84.839-38.058-84.839-84.838s38.059-84.838 84.839-84.838S512 290.379 512 337.16s-38.058 84.837-84.838 84.837zm0-135.953c-28.186 0-51.116 22.931-51.116 51.115s22.931 51.115 51.116 51.115c28.184 0 51.115-22.931 51.115-51.115s-22.93-51.115-51.115-51.115z" />
  </g>
  <path
    d="M84.836 348.401a11.241 11.241 0 01-8.982-17.995l97.882-130.213a11.226 11.226 0 019.812-4.456 11.237 11.237 0 019.053 5.848l58.18 107.179a11.242 11.242 0 01-8.238 16.483L86.48 348.28c-.55.081-1.099.121-1.644.121zm96.355-120.711l-70.927 94.355 113.086-16.691-42.159-77.664z"
    fill="#d674b6" />
  <path
    d="M183.548 195.736a11.221 11.221 0 00-9.812 4.456l-14.777 19.657 11.793 21.726 10.438-13.886 9.177 16.906v-45.86a11.215 11.215 0 00-6.819-2.999z"
    opacity=".1" />
  <path
    d="M240.902 325.367a11.245 11.245 0 01-9.88-5.878l-58.18-107.179a11.242 11.242 0 019.38-16.592l201.986-8.977a11.214 11.214 0 0111.013 7.249 11.242 11.242 0 01-3.45 12.725L247.964 322.87a11.24 11.24 0 01-7.062 2.497zm-39.728-107.989l43.167 79.52 106.694-86.182-149.861 6.662z"
    fill="#d674b6" />
  <path opacity=".1" d="M380.014 186.926l-23.19 1.03 11.498 37.697 18.858-15.232z" />
  <g fill="#d674b6">
    <path
      d="M427.158 348.404c-4.815 0-9.269-3.12-10.748-7.965l-55.178-180.907c-4.099-13.44-15.129-23.845-28.784-27.155l-33.58-8.14c-6.034-1.462-9.739-7.539-8.277-13.573 1.463-6.034 7.544-9.737 13.572-8.277l33.58 8.14c21.344 5.174 38.585 21.438 44.992 42.445l55.179 180.908c1.81 5.938-1.535 12.22-7.473 14.031a11.208 11.208 0 01-3.283.493zM182.725 218.191c-4.457 0-8.674-2.669-10.435-7.059l-12.272-30.582c-2.313-5.761.484-12.306 6.246-14.617 5.758-2.313 12.306.483 14.617 6.246l12.272 30.582c2.313 5.761-.484 12.306-6.246 14.618-1.372.55-2.789.812-4.182.812z" />
  </g>
  <path
    d="M180.882 172.179c-2.312-5.763-8.86-8.559-14.618-6.246-5.762 2.312-8.559 8.857-6.246 14.618l2.636 6.57 23.235-2.462-5.007-12.48z"
    opacity=".1" />
  <circle cx="301.51" cy="113.311" r="23.308" fill="#e5e5e5" />
  <path
    d="M202.243 172.764l-71.665 7.595c-7.555.801-14.138-5.122-14.138-12.719v-10.08c0-7.303 6.104-13.123 13.399-12.776l71.692 3.413a12.326 12.326 0 01.712 24.567z"
    fill="#445258" />
  <circle cx="240.9" cy="314.121" r="30.41" fill="#e5e5e5" />
</svg>
