<svg viewBox="-69 1 511 511.999" xmlns="http://www.w3.org/2000/svg">
  <path
    d="M.5 456.773V55.227C.5 24.727 25.227 0 55.727 0h262.117c30.5 0 55.226 24.727 55.226 55.227v401.546c0 30.5-24.726 55.227-55.226 55.227H55.727C25.227 512 .5 487.273.5 456.773zm0 0"
    fill="#919191" />
  <path
    d="M258.18 0H55.727C25.227 0 .5 24.727.5 55.227v401.546C.5 487.273 25.227 512 55.727 512h91.117c-7.063-10.18-12.215-23.32-12.215-39.996 0-56.754-.387-136.188-.293-187.266.047-25.465 14.746-48.554 37.7-59.574 42.921-20.605 63.55-68.207 63.55-68.207s-54.34-72.918-55.606-74.473C248.543 59.738 258.18 0 258.18 0zm0 0"
    fill="#767678" />
  <path
    d="M289.035 156.813h-204.5c-19.398 0-35.12-15.727-35.12-35.125V84.035c0-19.394 15.722-35.12 35.12-35.12h204.5c19.395 0 35.121 15.726 35.121 35.12v37.653c0 19.398-15.726 35.124-35.12 35.124zm0 0"
    fill="#f4e74d" />
  <path
    d="M132.504 121.688V84.035c0-19.394 15.723-35.12 35.121-35.12h-83.09c-19.398 0-35.12 15.726-35.12 35.12v37.653c0 19.398 15.722 35.124 35.12 35.124h83.09c-19.398 0-35.121-15.726-35.121-35.125zm0 0"
    fill="#dfca00" />
  <path
    d="M301.242 259.004h-20.144c-12.657 0-22.918-10.258-22.918-22.914v-20.145c0-12.656 10.257-22.918 22.918-22.918h20.144c12.653 0 22.914 10.262 22.914 22.918v20.145c0 12.656-10.261 22.914-22.914 22.914zm0 0"
    fill="#ffa93f" />
  <path
    d="M196.855 259.004h-20.144c-12.656 0-22.914-10.258-22.914-22.914v-20.145c0-12.656 10.258-22.918 22.914-22.918h20.144c12.657 0 22.918 10.262 22.918 22.918v20.145c0 12.656-10.261 22.914-22.918 22.914zm0 0"
    fill="#73da8c" />
  <path
    d="M196.855 359.578h-20.14c-12.656 0-22.918-10.262-22.918-22.918v-20.144c0-12.657 10.258-22.918 22.918-22.918h20.14c12.657 0 22.918 10.261 22.918 22.918v20.144c0 12.656-10.261 22.918-22.918 22.918zm0 0"
    fill="#a4e7ff" />
  <path
    d="M196.855 460.148h-20.144c-12.656 0-22.914-10.257-22.914-22.914V417.09c0-12.656 10.258-22.918 22.914-22.918h20.144c12.657 0 22.918 10.258 22.918 22.918v20.144c0 12.657-10.261 22.914-22.918 22.914zm0 0"
    fill="#73da8c" />
  <path
    d="M92.473 359.578H72.328c-12.656 0-22.914-10.262-22.914-22.918v-20.144c0-12.657 10.258-22.918 22.914-22.918h20.145c12.656 0 22.918 10.261 22.918 22.918v20.144c0 12.656-10.262 22.918-22.918 22.918zm0 0"
    fill="#5ad6ff" />
  <path
    d="M92.473 259.004H72.328c-12.656 0-22.914-10.258-22.914-22.914v-20.145c0-12.656 10.258-22.918 22.914-22.918h20.145c12.656 0 22.918 10.262 22.918 22.918v20.145c0 12.656-10.262 22.914-22.918 22.914zm0 0M92.473 460.148H72.328c-12.656 0-22.914-10.257-22.914-22.914V417.09c0-12.656 10.258-22.918 22.914-22.918h20.145c12.656 0 22.918 10.258 22.918 22.918v20.144c0 12.657-10.262 22.914-22.918 22.914zm0 0"
    fill="#29ce69" />
  <path
    d="M301.242 460.148h-20.144c-12.657 0-22.918-10.257-22.918-22.914V316.516c0-12.657 10.257-22.918 22.918-22.918h20.144c12.653 0 22.914 10.261 22.914 22.918v120.718c0 12.657-10.261 22.914-22.914 22.914zm0 0"
    fill="#ffa93f" />
  <g fill="#57565c">
    <path
      d="M269.875 112.957a7.726 7.726 0 01-7.727-7.727V92.402c0-4.265 3.457-7.722 7.727-7.722s7.727 3.457 7.727 7.722v12.828a7.726 7.726 0 01-7.727 7.727zm0 0M103.695 112.957a7.726 7.726 0 01-7.726-7.727V92.402a7.723 7.723 0 017.726-7.722 7.725 7.725 0 017.727 7.722v12.828a7.729 7.729 0 01-7.727 7.727zm0 0M186.785 121.047c-10 0-20-3.238-28.344-9.711a7.721 7.721 0 01-1.37-10.84 7.724 7.724 0 0110.84-1.367 30.788 30.788 0 0037.745 0 7.724 7.724 0 0110.84 1.367 7.724 7.724 0 01-1.367 10.84 46.17 46.17 0 01-28.344 9.71zm0 0" />
  </g>
</svg>
