<svg viewBox="0 0 512 512" xmlns="http://www.w3.org/2000/svg"><path d="M382.044 417.619V42.306C382.044 18.941 363.103 0 339.738 0H62.936C39.571 0 20.63 18.941 20.63 42.306v375.313c0 23.365 18.941 42.306 42.306 42.306h276.802c23.365 0 42.306-18.941 42.306-42.306z" fill="#fbf1cf"/><path d="M339.738 459.925c23.365 0 42.306-18.941 42.306-42.306V304.698l-116.329 116.33a84.681 84.681 0 00-21.345 36.032l-.837 2.865z" fill="#fae0bd"/><path d="M483.603 343.631L335.96 491.274a53.533 53.533 0 01-22.845 13.533l-21.935 6.408c-14.397 4.206-27.758-9.155-23.552-23.552l6.408-21.935a53.539 53.539 0 0113.533-22.845L435.212 295.24c10.356-10.356 27.146-10.356 37.502 0l10.89 10.89c10.355 10.355 10.355 27.145-.001 37.501z" fill="#b0ade2"/><path d="M349.814 380.636l-62.245 62.245a53.533 53.533 0 00-13.533 22.845l-6.408 21.935c-4.206 14.397 9.155 27.758 23.552 23.552l21.935-6.408a53.539 53.539 0 0022.845-13.533l32.965-32.965c-20.523-18.788-23.54-51.407-19.111-77.671z" fill="#a09cdc"/><path d="M323.48 500.531l-45.169-45.169a53.513 53.513 0 00-4.275 10.364l-6.408 21.935c-4.206 14.397 9.155 27.758 23.552 23.552l21.935-6.408a53.379 53.379 0 0010.365-4.274z" fill="#59636f"/><path d="M459.327 367.907l24.276-24.276c10.356-10.356 10.356-27.146 0-37.502l-10.89-10.89c-10.356-10.356-27.146-10.356-37.502 0l-24.276 24.276z" fill="#e7889d"/><path d="M459.404 367.9l-29.462 29.463-48.385-48.385 29.462-29.462z" fill="#59636f"/><path d="M348.904 437.437a7.474 7.474 0 01-5.303-2.197 7.5 7.5 0 010-10.606l24.159-24.159a7.5 7.5 0 0110.606 10.607l-24.159 24.159a7.475 7.475 0 01-5.303 2.196z" fill="#f6ee86"/><g fill="#59636f"><path d="M106.617 394.203c-18.542 0-33.627-15.085-33.627-33.627s15.085-33.627 33.627-33.627 33.627 15.085 33.627 33.627-15.086 33.627-33.627 33.627zm0-52.254c-10.271 0-18.627 8.356-18.627 18.627s8.356 18.627 18.627 18.627 18.627-8.356 18.627-18.627-8.357-18.627-18.627-18.627zM314.973 368.076H189.437a7.5 7.5 0 010-15h125.537a7.5 7.5 0 11-.001 15zM106.617 296.544c-18.542 0-33.627-15.085-33.627-33.627s15.085-33.627 33.627-33.627 33.627 15.085 33.627 33.627c-.001 18.542-15.086 33.627-33.627 33.627zm0-52.254c-10.271 0-18.627 8.356-18.627 18.627s8.356 18.627 18.627 18.627 18.627-8.356 18.627-18.627-8.357-18.627-18.627-18.627zM314.973 270.417H189.437a7.5 7.5 0 010-15h125.537a7.5 7.5 0 11-.001 15zM314.973 172.758H189.437a7.5 7.5 0 010-15h125.537a7.5 7.5 0 11-.001 15z"/></g><path d="M92.955 188.817a7.474 7.474 0 01-5.303-2.197L69.5 168.468a7.5 7.5 0 0110.606-10.607l12.849 12.849 40.171-40.171a7.5 7.5 0 0110.606 0 7.5 7.5 0 010 10.606L98.258 186.62a7.472 7.472 0 01-5.303 2.197z" fill="#e7889d"/><path d="M279.805 94.727H122.869c-11.327 0-20.509-9.182-20.509-20.509V56.367c0-11.327 9.182-20.509 20.509-20.509h156.936c11.327 0 20.509 9.182 20.509 20.509v17.851c0 11.326-9.182 20.509-20.509 20.509z" fill="#a2ddfd"/></svg>
