<svg viewBox="0 0 512 512" xmlns="http://www.w3.org/2000/svg">
  <path
    d="M135.324 470.707c-51.93 0-94.031-42.102-94.031-94.031V135.324c0-51.93 42.102-94.031 94.031-94.031h241.348c51.933 0 94.035 42.102 94.035 94.031v241.348c0 51.933-42.102 94.035-94.035 94.035zm0 0"
    fill="#73da8c" />
  <path
    d="M41.293 135.324v241.348c0 51.933 42.102 94.035 94.031 94.035h81.106c-18.696-35.523-16.743-77.246-16.743-77.246s0-70.098-.003-126.996c0-37.684 17-73.113 45.703-97.527 57.011-48.497 54.457-127.645 54.457-127.645H135.328c-51.933 0-94.035 42.102-94.035 94.031zm0 0"
    fill="#00c140" />
  <path
    d="M342.883 405.879H169.117c-34.793 0-62.996-28.203-62.996-62.996V169.117c0-34.793 28.203-62.996 62.996-62.996h173.766c34.793 0 62.996 28.203 62.996 62.996v173.766c0 34.793-28.203 62.996-62.996 62.996zm0 0"
    fill="#f4e74d" />
  <path
    d="M169.117 106.121c-34.793 0-62.996 28.203-62.996 62.996v173.766c0 34.793 28.203 62.996 62.996 62.996h30.774c-.422-7.656-.203-12.414-.203-12.414s0-70.102-.004-127c0-37.684 17-73.11 45.703-97.527 21.761-18.508 34.843-41.481 42.703-62.817zm0 0"
    fill="#eedb00" />
  <path
    d="M216.7 367.39h-34.016c-16.532 0-29.934-13.402-29.934-29.933v-34.016c0-16.53 13.402-29.93 29.934-29.93h34.015c16.531 0 29.93 13.4 29.93 29.93v34.016c0 16.531-13.399 29.934-29.93 29.934zm0 0M334.156 367.39H318.36c-13.859 0-25.093-11.234-25.093-25.093v-43.695c0-13.856 11.234-25.09 25.093-25.09h15.797c13.86 0 25.094 11.23 25.094 25.09v43.695c0 13.855-11.234 25.094-25.094 25.094zm0 0"
    fill="#ffa93f" />
  <g fill="#767678">
    <path
      d="M172.379 81.055c-12.434 0-22.516-10.082-22.516-22.516V22.516C149.863 10.082 159.945 0 172.38 0s22.516 10.082 22.516 22.516v36.023c0 12.434-10.083 22.516-22.516 22.516zm0 0M256 81.055c-12.434 0-22.516-10.082-22.516-22.516V22.516C233.484 10.082 243.566 0 256 0s22.516 10.082 22.516 22.516v36.023c0 12.434-10.082 22.516-22.516 22.516zm0 0M339.621 81.055c-12.433 0-22.516-10.082-22.516-22.516V22.516C317.105 10.082 327.188 0 339.621 0s22.516 10.082 22.516 22.516v36.023c0 12.434-10.082 22.516-22.516 22.516zm0 0M172.379 512c-12.434 0-22.516-10.082-22.516-22.516v-36.023c0-12.434 10.078-22.516 22.516-22.516 12.434 0 22.516 10.082 22.516 22.516v36.023c0 12.434-10.083 22.516-22.516 22.516zm0 0M256 512c-12.434 0-22.516-10.082-22.516-22.516v-36.023c0-12.434 10.082-22.516 22.516-22.516s22.516 10.082 22.516 22.516v36.023C278.516 501.918 268.434 512 256 512zm0 0M339.621 512c-12.433 0-22.516-10.082-22.516-22.516v-36.023c0-12.434 10.083-22.516 22.516-22.516s22.516 10.082 22.516 22.516v36.023c0 12.434-10.082 22.516-22.516 22.516zm0 0M430.945 172.379c0-12.434 10.082-22.516 22.516-22.516h36.023c12.434 0 22.516 10.082 22.516 22.516s-10.082 22.516-22.516 22.516h-36.023c-12.434 0-22.516-10.083-22.516-22.516zm0 0M430.945 256c0-12.434 10.082-22.516 22.516-22.516h36.023C501.918 233.484 512 243.566 512 256s-10.082 22.516-22.516 22.516h-36.023c-12.434 0-22.516-10.082-22.516-22.516zm0 0M430.945 339.621c0-12.433 10.082-22.516 22.516-22.516h36.023c12.434 0 22.516 10.083 22.516 22.516s-10.082 22.516-22.516 22.516h-36.023c-12.434 0-22.516-10.082-22.516-22.516zm0 0M0 172.379c0-12.434 10.082-22.516 22.516-22.516h36.023c12.434 0 22.516 10.082 22.516 22.516s-10.082 22.516-22.516 22.516H22.516C10.082 194.895 0 184.812 0 172.379zm0 0M0 256c0-12.434 10.082-22.516 22.516-22.516h36.023c12.434 0 22.516 10.082 22.516 22.516s-10.082 22.516-22.516 22.516H22.516C10.082 278.516 0 268.434 0 256zm0 0M0 339.621c0-12.433 10.082-22.516 22.516-22.516h36.023c12.434 0 22.516 10.083 22.516 22.516s-10.082 22.516-22.516 22.516H22.516C10.082 362.137 0 352.055 0 339.62zm0 0" />
  </g>
  <path
    d="M254.734 233.496c-15.988 0-28.945-12.96-28.945-28.95V183.5a7.901 7.901 0 017.902-7.902h42.09a7.901 7.901 0 017.903 7.902v21.047c0 15.988-12.961 28.95-28.95 28.95zm0 0"
    fill="#454545" />
  <path
    d="M188.781 204.547c0-13.582-13.824-24.59-30.879-24.59-17.05 0-30.875 11.008-30.875 24.59 0 13.578 13.825 24.59 30.875 24.59 17.055 0 30.88-11.012 30.88-24.59zm0 0M382.445 204.547c0-13.582-13.824-24.59-30.875-24.59-17.054 0-30.879 11.008-30.879 24.59 0 13.578 13.825 24.59 30.88 24.59 17.05 0 30.874-11.012 30.874-24.59zm0 0"
    fill="#ffabcd" />
  <path
    d="M337.828 191.047a7.724 7.724 0 01-7.726-7.727v-12.824a7.724 7.724 0 017.726-7.726 7.726 7.726 0 017.727 7.726v12.824c0 4.27-3.461 7.727-7.727 7.727zm0 0M171.645 191.047a7.724 7.724 0 01-7.727-7.727v-12.824c0-4.27 3.457-7.726 7.727-7.726s7.726 3.457 7.726 7.726v12.824a7.724 7.724 0 01-7.726 7.727zm0 0"
    fill="#454545" />
  <path
    d="M182.68 367.39h17.007c0-23.894 0-60.511-.003-93.878H182.68c-16.532 0-29.93 13.398-29.93 29.93v34.015c0 16.531 13.402 29.934 29.93 29.934zm0 0"
    fill="#ff9000" />
</svg>
