<svg viewBox="0 0 512 512.001" xmlns="http://www.w3.org/2000/svg">
  <path
    d="M90.79 376.664c-6.392-2.453-12.235-6.762-17.833-10.617-29.77-20.52-55.75-47.508-71.547-80.305-3.406-7.074-.433-15.566 6.64-18.976 6.49-3.125 14.177-.88 18.032 4.972 17.117 25.992 40.703 44.707 68.309 58.774 4.632 2.36 9.328 4.601 14.191 6.457 11.613 3.64 17.3 17.578 13.074 28.582-5.219 13.582-19.043 15.648-30.867 11.113zm0 0"
    fill="#ffe176" />
  <path
    d="M78.344 76.953c-10.117 33.477-35.387 34.656-36.516 57.988-.8 16.496 11.285 30.82 27.574 33.559 18.203 3.059 36.797-2.879 36.797-2.879l51.676-120.719C118.117 5.645 85.773 47.2 78.344 76.953zm0 0M474.938 76.953c10.117 33.477 35.386 34.656 36.515 57.988.8 16.496-11.289 30.82-27.574 33.559-18.207 3.059-36.797-2.879-36.797-2.879L395.406 44.898c39.758-39.253 72.102 2.301 79.531 32.055zm0 0M121.656 365.55c4.227-11.003-1.46-24.94-13.074-28.581-4.863-1.856-9.559-4.098-14.191-6.457-8.883-4.528-17.34-9.54-25.309-15.114-6.758 9.286-13.246 20.797-17.328 34.325a251.976 251.976 0 0021.207 16.324c5.594 3.855 11.441 8.164 17.832 10.613 11.82 4.54 25.644 2.473 30.863-11.11zm0 0"
    fill="#ffc261" />
  <path
    d="M440.824 456.809c-3.469-3.036-3.652-8.387-.308-11.555 59.57-56.402 27.261-103.73 10.457-121.598-4.914-5.226-7.176-12.39-6.09-19.48C453.695 246.742 479.727 0 276.64 0S99.586 246.742 108.398 304.176c1.086 7.09-1.175 14.258-6.09 19.48-16.804 17.867-49.113 65.196 10.458 121.598 3.343 3.168 3.16 8.523-.305 11.559-9.184 8.039-23.895 25.546-23.895 55.187h376.149c0-29.645-14.711-47.148-23.89-55.191zm0 0"
    fill="#ffe176" />
  <path d="M268.914 512V357.066a7.726 7.726 0 1115.453 0V512zm0 0" fill="#ffc261" />
  <g fill="#4b3f4e">
    <path
      d="M196.86 131.613a7.729 7.729 0 00-7.727 7.727v14.441a7.726 7.726 0 1015.453 0V139.34a7.726 7.726 0 00-7.727-7.727zm0 0M356.422 131.613a7.726 7.726 0 00-7.727 7.727v14.441a7.726 7.726 0 1015.453 0V139.34a7.729 7.729 0 00-7.726-7.727zm0 0M254.98 159.266c6.583 2.836 13.922 4.422 21.66 4.422s15.079-1.586 21.66-4.422c6.91-2.977 4.805-13.286-2.718-13.286h-37.883c-7.523 0-9.633 10.31-2.719 13.286zm0 0M317.031 175.055a7.728 7.728 0 00-10.902.734c-2.871 3.285-7.184 5.168-11.836 5.168-4.648 0-8.965-1.883-11.836-5.168-1.434-1.64-3.637-2.633-5.816-2.633a7.794 7.794 0 00-5.817 2.633c-2.87 3.285-7.187 5.168-11.836 5.168-4.652 0-8.965-1.883-11.836-5.168a7.725 7.725 0 00-10.902-.734 7.73 7.73 0 00-.734 10.906c5.808 6.64 14.363 10.45 23.472 10.45 6.414 0 12.551-1.9 17.653-5.337 5.097 3.438 11.234 5.336 17.652 5.336 9.11 0 17.664-3.808 23.473-10.45a7.73 7.73 0 00-.735-10.905zm0 0" />
  </g>
  <path
    d="M211.762 440.207c-16.95-39.594-14.29-70.809-13.047-79.562l.387-2.317a7.727 7.727 0 00-15.192-2.824c-.02.105-.226 1.121-.476 2.863 0 .008-.004.012-.004.016-1.383 9.668-4.45 44.512 14.129 87.902 1.53 3.574.129 7.75-3.258 9.719-11.54 6.703-26.645 18.617-33.106 37.324-2.054 5.953-3.093 12.235-3.093 18.672h15.558l2.352-14.215c5.035-13.89 16.906-23.11 26.047-28.418 10.132-5.883 14.304-18.418 9.703-29.16zm0 0M379.621 512h15.559c0-6.438-1.043-12.719-3.098-18.672-6.457-18.707-21.562-30.621-33.102-37.32-3.386-1.969-4.789-6.149-3.257-9.723 18.578-43.39 15.515-78.23 14.129-87.902 0-.004-.004-.008-.004-.016a49.199 49.199 0 00-.48-2.863c-.848-4.121-4.84-6.805-8.977-6.035s-6.899 4.707-6.211 8.86l.383 2.32c1.246 8.753 3.902 39.968-13.047 79.558-4.598 10.742-.426 23.277 9.703 29.164 9.14 5.309 21.015 14.524 26.05 28.414zm0 0"
    fill="#ffc261" />
</svg>
