<svg viewBox="0 0 512 512" xmlns="http://www.w3.org/2000/svg"><path d="M71.947 245.859c-15.932 0-28.847 12.915-28.847 28.847 0 15.932 12.915 28.847 28.847 28.847h-43.1C12.915 303.554 0 316.469 0 332.401c0 15.932 12.915 28.847 28.847 28.847H171.35v-115.39H71.947z" fill="#a2ddfd"/><path d="M86.286 256c0 22.81 1.448 66.747 11.146 104.718.046.178.099.353.146.53h73.772v-115.39H86.38A563.696 563.696 0 0086.286 256z" fill="#7acefa"/><path d="M314.596 129.168c51.99 0 129.819 3.559 165.488 9.692 10.555 1.815 19.081 9.692 21.731 20.068C509.707 189.829 512 227.573 512 256s-2.293 66.171-10.185 97.072c-2.65 10.376-11.177 18.253-21.731 20.068-35.668 6.133-113.497 9.692-165.488 9.692s-129.819-3.559-165.487-9.692c-10.555-1.815-19.081-9.692-21.731-20.068-7.892-30.9-10.185-68.644-10.185-97.072s2.293-66.171 10.185-97.072c2.65-10.376 11.177-18.253 21.731-20.068 35.668-6.133 113.496-9.692 165.487-9.692z" fill="#fbf1cf"/><path d="M149.916 138.727c37.21 40.533 97.023 81.726 136.788 100.79a64.507 64.507 0 0013.577 4.731c-20.212-34.807-24.579-90.592-15.979-114.737-47.999 1.018-104.921 4.266-134.386 9.216z" fill="#fae0bd"/><path d="M501.815 158.928c-2.65-10.376-11.177-18.253-21.731-20.068l-.805-.135c-37.21 40.534-97.024 81.727-136.79 100.792a64.512 64.512 0 01-55.784 0c-39.766-19.065-99.58-60.259-136.79-100.792l-.806.135c-10.555 1.815-19.081 9.692-21.731 20.068-1.839 7.199-3.362 14.777-4.635 22.514 38.974 44.233 103.925 90.315 150.601 112.693 12.798 6.135 27.062 9.379 41.254 9.379 14.19 0 28.455-3.243 41.253-9.379 46.676-22.379 111.627-68.46 150.6-112.693-1.274-7.737-2.798-15.315-4.636-22.514z" fill="#fae0bd"/><path d="M480.083 138.86c-8.576-1.475-19.605-2.799-32.109-3.962-37.718 35.556-83.564 69.431-113.737 84.231a44.573 44.573 0 01-39.282 0c-30.173-14.8-76.019-48.675-113.737-84.231-12.505 1.163-23.534 2.487-32.109 3.962-5.747.988-10.882 3.783-14.805 7.79 33.657 45.975 106.435 97.579 152.401 119.616a64.512 64.512 0 0055.784 0c45.966-22.037 118.743-73.641 152.4-119.616-3.924-4.007-9.059-6.802-14.806-7.79z" fill="#b0ade2"/><path d="M457.492 318.222a7.478 7.478 0 01-5.304-2.197l-34.1-34.1a7.5 7.5 0 0110.607-10.607l34.1 34.1a7.5 7.5 0 010 10.606 7.475 7.475 0 01-5.303 2.198zM171.7 318.222a7.474 7.474 0 01-5.303-2.197 7.5 7.5 0 010-10.606l34.1-34.1a7.5 7.5 0 0110.606 10.607l-34.1 34.1a7.481 7.481 0 01-5.303 2.196z" fill="#fae0bd"/><g fill="#eda1ab"><ellipse cx="228.509" cy="342.891" rx="31.765" ry="25.296"/><ellipse cx="400.683" cy="342.891" rx="31.765" ry="25.296"/></g><g fill="#4e5660"><path d="M247.021 325.729a7.5 7.5 0 01-7.5-7.5v-12.362a7.5 7.5 0 0115 0v12.362a7.5 7.5 0 01-7.5 7.5zM314.596 333.771a31.13 31.13 0 01-23.47-10.689 7.5 7.5 0 1111.308-9.855 16.133 16.133 0 0012.161 5.544c4.659 0 9.092-2.021 12.161-5.543a7.5 7.5 0 0111.309 9.854 31.123 31.123 0 01-23.469 10.689zM398.883 325.385a7.5 7.5 0 01-7.5-7.5 6.833 6.833 0 00-6.825-6.826 6.834 6.834 0 00-6.826 6.826c0 4.142-3.357 7.5-7.5 7.5s-7.5-3.358-7.5-7.5c0-12.035 9.791-21.826 21.826-21.826 12.034 0 21.825 9.791 21.825 21.826a7.5 7.5 0 01-7.5 7.5z"/></g><path d="M328.209 271.142c-19.254-7.865-32.372-30.203-39.981-55.492-29.983-16.194-71.994-47.744-107.01-80.752-12.505 1.163-23.534 2.487-32.109 3.962-5.747.988-10.882 3.783-14.805 7.79 33.657 45.975 106.435 97.579 152.4 119.616a64.494 64.494 0 0041.505 4.876z" fill="#a09cdc"/></svg>
