<svg viewBox="0 0 512 512" xmlns="http://www.w3.org/2000/svg"><path d="M255.999 208.595a7.5 7.5 0 01-2.564-.452L96.951 151.188a7.5 7.5 0 01-4.482-9.613 7.499 7.499 0 019.613-4.483l151.993 55.321L404.617 41.872a7.5 7.5 0 0110.607 10.606l-153.921 153.92a7.496 7.496 0 01-5.304 2.197z" fill="#59636f"/><path d="M145.404 462.695H53.63V271.508c0-15.004 12.163-27.167 27.167-27.167h37.441c15.004 0 27.167 12.163 27.167 27.167v191.187z" fill="#b0ade2"/><path d="M145.404 462.695H53.63V271.508c0-15.004 12.163-27.167 27.167-27.167h37.441c15.004 0 27.167 12.163 27.167 27.167v191.187z" fill="#b0ade2"/><path d="M53.63 421.488h91.774v41.207H53.63z" fill="#a09cdc"/><path d="M301.887 462.695h-91.774V328.463c0-15.004 12.163-27.167 27.167-27.167h37.441c15.004 0 27.167 12.163 27.167 27.167v134.232z" fill="#cde9fa"/><path d="M301.887 462.695h-91.774V328.463c0-15.004 12.163-27.167 27.167-27.167h37.441c15.004 0 27.167 12.163 27.167 27.167v134.232z" fill="#a2ddfd"/><path d="M210.113 421.488h91.774v41.207h-91.774z" fill="#7acefa"/><path d="M458.37 462.695h-91.774v-287.34c0-15.004 12.163-27.167 27.167-27.167h37.441c15.004 0 27.167 12.163 27.167 27.167v287.34z" fill="#88d37f"/><path d="M366.596 421.488h91.774v41.207h-91.774z" fill="#5ec682"/><circle cx="256" cy="201.095" fill="#e7889d" r="45.887"/><circle cx="99.517" cy="144.14" fill="#f2d98d" r="45.887"/><circle cx="409.921" cy="47.175" fill="#f2d98d" r="45.887"/><path d="M13.946 462.695h484.109c9.808 0 16.546 9.865 12.978 19.001l-3.709 9.496a30.682 30.682 0 01-28.58 19.52H33.257a30.683 30.683 0 01-28.58-19.52l-3.709-9.496c-3.568-9.135 3.17-19.001 12.978-19.001z" fill="#f6ee86"/><path d="M13.946 462.695c-9.808 0-16.546 9.865-12.978 19.001l3.709 9.496a30.683 30.683 0 0028.58 19.52h246.912c-14.976-9.516-23.613-28.495-13.871-48.017z" fill="#f2d98d"/><g fill="#59636f"><path d="M301.887 54.675h-91.773c-4.143 0-7.5-3.358-7.5-7.5s3.357-7.5 7.5-7.5h91.773a7.5 7.5 0 010 15zM280.168 100.562h-48.336c-4.143 0-7.5-3.358-7.5-7.5s3.357-7.5 7.5-7.5h48.336c4.143 0 7.5 3.358 7.5 7.5s-3.357 7.5-7.5 7.5z"/></g></svg>
