<svg viewBox="0 0 512 512">
  <path
    d="M437.976 172.844c-23.294 8.126-48.887-.508-63.14-20.645-9.227-13.036-20.605-24.517-33.824-34.027-24.917-17.925-54.314-27.4-85.012-27.4-30.696 0-60.093 9.475-85.01 27.4-13.219 9.509-24.598 20.99-33.824 34.027-14.253 20.138-39.846 28.771-63.14 20.646l-8.051-2.808c13.686-39.234 38.754-72.8 72.496-97.071C172.918 48.181 213.56 35.082 256 35.082c42.441 0 83.083 13.099 117.534 37.882 33.74 24.272 58.808 57.838 72.494 97.071l-8.052 2.809z"
    fill="#404b58" />
  <path
    d="M373.534 72.965C339.083 48.181 298.441 35.082 256 35.082c-42.44 0-83.082 13.099-117.531 37.882-33.741 24.271-58.81 57.837-72.496 97.071l8.051 2.808a54.083 54.083 0 0025.625 2.464c11.99-29.34 31.774-54.499 57.668-73.124C186.242 81.375 220.366 70.377 256 70.377c35.635 0 69.76 10.998 98.685 31.807 25.892 18.627 45.676 43.786 57.667 73.125a54.091 54.091 0 0025.624-2.465l8.051-2.808c-13.686-39.233-38.753-72.799-72.493-97.071z"
    opacity=".1" />
  <path
    d="M441.155 429.221l-52.33-19.047 39.452-108.394c13.779-37.858 14.788-78.219 2.92-116.718-11.87-38.499-35.43-71.284-68.136-94.81-64.04-46.07-150.088-46.068-214.121 0-32.705 23.527-56.266 56.311-68.136 94.81-11.868 38.499-10.86 78.86 2.92 116.718l39.452 108.394-52.33 19.047-39.453-108.393c-17.965-49.358-19.281-101.977-3.807-152.172 15.476-50.193 46.192-92.938 88.831-123.611 83.489-60.06 195.676-60.06 279.165 0 42.639 30.673 73.355 73.417 88.831 123.611 15.475 50.195 14.159 102.814-3.807 152.172l-39.451 108.393z"
    fill="#ed718b" />
  <path
    d="M467.266 340.107a67.822 67.822 0 00-30.007-21.668l-13.285-4.836-35.149 96.572 52.33 19.047 30.291-83.225a70.147 70.147 0 00-4.18-5.89zM44.734 340.107a67.822 67.822 0 0130.007-21.668l13.285-4.836 35.149 96.572-52.33 19.047-30.291-83.225a70.147 70.147 0 014.18-5.89z"
    opacity=".1" />
  <path
    d="M198.465 487.654l-41.58 15.134-61.6-169.245 41.58-15.134c12.657-4.607 26.653 1.919 31.259 14.577l44.917 123.409c4.608 12.657-1.918 26.652-14.576 31.259z"
    fill="#404b58" />
  <path
    d="M105.898 510.599a67.833 67.833 0 0036.915-2.689l14.072-5.122-61.6-169.245-14.072 5.122a67.822 67.822 0 00-30.007 21.668 70.496 70.496 0 00-10.946 67.836l13.649 37.501a70.498 70.498 0 0051.989 44.929z"
    fill="#fda75f" />
  <path
    d="M213.042 456.394l-4.883-13.415c.607 10.619-5.731 20.825-16.24 24.65l-56.453 20.547a68.803 68.803 0 01-37.446 2.728 71.509 71.509 0 01-47.304-34.009l3.193 8.774a70.497 70.497 0 0051.989 44.929 67.833 67.833 0 0036.915-2.689l55.652-20.256c12.658-4.606 19.184-18.601 14.577-31.259z"
    opacity=".1" />
  <path
    d="M188.019 387.645l-23.574 8.58a7.496 7.496 0 105.129 14.089l23.574-8.58-5.129-14.089zm-16.624-45.674l-23.574 8.581a7.496 7.496 0 105.129 14.089l23.574-8.58-5.129-14.09zm33.248 91.347l-23.574 8.581a7.5 7.5 0 002.566 14.543 7.48 7.48 0 002.563-.454l23.574-8.581-5.129-14.089z"
    opacity=".1" />
  <path
    d="M313.535 487.654l41.58 15.134 61.6-169.245-41.58-15.134c-12.657-4.607-26.653 1.919-31.259 14.577l-44.917 123.409c-4.608 12.657 1.918 26.652 14.576 31.259z"
    fill="#404b58" />
  <path
    d="M406.102 510.599a67.833 67.833 0 01-36.915-2.689l-14.071-5.122 61.6-169.245 14.072 5.122a67.822 67.822 0 0130.007 21.668 70.496 70.496 0 0110.946 67.836l-13.649 37.501a70.502 70.502 0 01-51.99 44.929z"
    fill="#fda75f" />
  <path
    d="M318.853 401.734l23.574 8.58a7.505 7.505 0 002.563.454 7.498 7.498 0 002.566-14.543l-23.574-8.58-5.129 14.089zm16.623-45.673l23.574 8.58a7.505 7.505 0 002.563.454 7.498 7.498 0 002.566-14.543l-23.574-8.58-5.129 14.089zm-33.247 91.347l23.574 8.581a7.505 7.505 0 002.563.454 7.497 7.497 0 002.566-14.543l-23.574-8.581-5.129 14.089z"
    opacity=".1" />
  <path
    d="M460.794 360.333a67.826 67.826 0 00-14.307-13.485 70.502 70.502 0 015.763 60.33l-13.65 37.501a70.497 70.497 0 01-51.989 44.929 67.833 67.833 0 01-36.915-2.689l-51.989-18.922c1.18 8.69 7.015 16.45 15.828 19.657l55.652 20.256a67.833 67.833 0 0036.915 2.689 70.497 70.497 0 0051.989-44.929l13.649-37.501a70.499 70.499 0 00-10.946-67.836z"
    opacity=".1" /></svg>
