<svg viewBox="0 0 512 512" xmlns="http://www.w3.org/2000/svg">
  <path
    d="M104.824 367.777c-9.957.778-19.941 1.028-29.926 1.23a70.198 70.198 0 00-48.21 20.552L3.5 412.746c-6.14 6.14-3.875 16.578 4.266 19.617l35.156 8.758 61.73-33.773 12.582-40.54zm0 0M144.223 407.176c-.774 9.957-1.028 19.941-1.23 29.926a70.212 70.212 0 01-20.548 48.21L99.254 508.5c-6.14 6.145-16.578 3.879-19.621-4.262l-8.754-35.156 33.773-61.734 40.54-12.578zm0 0"
    fill="#61caff" />
  <path d="M42.918 441.121L435.48 48.56l27.957 27.957L70.88 469.078zm0 0" fill="#ffe176" />
  <path
    d="M489.52 1.25l-89.27 37.195c-6.852 2.856-6.969 12.516-.191 15.54l27.086 12.074a37.137 37.137 0 0118.8 18.8l12.075 27.082c3.02 6.782 12.683 6.66 15.535-.187l37.199-89.274A16.239 16.239 0 00489.52 1.25zm0 0"
    fill="#61caff" />
  <path
    d="M157.316 382.645l276.809-276.81a123.8 123.8 0 00-7.719-6.124 127.246 127.246 0 00-27.011-15.063l-273.22 273.22c9.645 8.378 20.028 16.64 31.141 24.777zm0 0"
    fill="#ffc261" />
  <path
    d="M256 141.297c-134.203-131.16-356.504 80.941-6.59 268.406a13.975 13.975 0 0013.184 0C612.508 222.238 390.204 10.141 256 141.297zm0 0"
    fill="#f55d67" />
  <path
    d="M178.91 101.703c-118.55-16.094-216.508 154.238 70.5 308a13.975 13.975 0 0013.184 0 795.125 795.125 0 008.86-4.824C20.198 266.117 78.05 115.649 178.91 101.703zm0 0"
    fill="#ff3d5d" />
  <g fill="#4b3f4e">
    <path
      d="M169.531 261.3a7.726 7.726 0 01-7.726-7.726v-15.648a7.726 7.726 0 1115.453 0v15.648a7.724 7.724 0 01-7.727 7.727zm0 0M342.469 261.3a7.726 7.726 0 01-7.727-7.726v-15.648a7.726 7.726 0 1115.453 0v15.648a7.724 7.724 0 01-7.726 7.727zm0 0M256 269.656c-10.547 0-20.445-4.406-27.16-12.086a7.725 7.725 0 01.734-10.902 7.728 7.728 0 0110.903.734c3.777 4.32 9.437 6.801 15.523 6.801 6.09 0 11.746-2.476 15.523-6.8a7.728 7.728 0 0110.903-.735 7.725 7.725 0 01.734 10.902c-6.71 7.68-16.613 12.086-27.16 12.086zm0 0" />
  </g>
</svg>
