<svg viewBox="0 0 512 512">
  <path
    d="M373.143 51.406c-49.438.074-92.764 26.034-117.254 65.017-24.603-38.909-68.008-64.74-117.447-64.667C61.868 51.872-.114 114.04 0 190.613c.091 60.749 44.35 128.833 102.023 185.676V248.046l154.04-57.831 154.041 57.831V376.25C467.816 319.15 512.09 250.747 512 189.848c-.115-76.574-62.282-138.556-138.857-138.442z"
    fill="#f4c8d2" />
  <path
    d="M102.023 248.046v128.242c38.81 38.252 83.692 71.415 125.287 93.817 18.222 9.814 40.022 9.783 58.214-.086 41.376-22.444 85.982-55.58 124.58-93.77V248.046l-154.041-57.832z"
    fill="#fbf1cf" />
  <path
    d="M102.023 248.046v58.893a49.51 49.51 0 002.893-.942l150.393-54.738a2.207 2.207 0 011.51 0l150.392 54.738a49.54 49.54 0 002.894.942v-58.893l-154.041-57.832z"
    fill="#fae0bd" />
  <path
    d="M326.821 373.234c0-12.988-10.529-23.516-23.516-23.516h-94.482c-12.988 0-23.516 10.529-23.516 23.516v71.315c14.135 9.555 28.25 18.149 42.004 25.557 18.222 9.814 40.022 9.783 58.214-.086 13.527-7.338 27.401-15.827 41.297-25.253v-71.533z"
    fill="#e0b799" />
  <path
    d="M150.191 127.134a13.505 13.505 0 01-12.874.019c-22.869-12.317-50.237-39.336-50.271-61.812-.025-16.935 13.682-30.683 30.617-30.709 10.934-.016 20.533 5.697 25.974 14.301 5.416-8.621 14.998-14.362 25.931-14.379 16.935-.025 30.684 13.682 30.709 30.617.033 22.478-27.254 49.578-50.086 61.963z"
    fill="#e7889d" />
  <g fill="#eda1ab">
    <ellipse cx="175.322" cy="316.195" rx="29.792" ry="23.725" />
    <ellipse cx="336.806" cy="316.195" rx="29.792" ry="23.725" />
  </g>
  <g fill="#4e5660">
    <path
      d="M206.865 297.878a7.5 7.5 0 01-7.5-7.5c0-3.684-2.997-6.681-6.681-6.681s-6.681 2.997-6.681 6.681a7.5 7.5 0 01-15 0c0-11.955 9.726-21.681 21.681-21.681s21.681 9.726 21.681 21.681a7.5 7.5 0 01-7.5 7.5zM333.624 297.878a7.5 7.5 0 01-7.5-7.5c0-3.684-2.997-6.681-6.681-6.681s-6.681 2.997-6.681 6.681c0 4.142-3.357 7.5-7.5 7.5s-7.5-3.358-7.5-7.5c0-11.955 9.726-21.681 21.681-21.681s21.681 9.726 21.681 21.681c0 4.143-3.357 7.5-7.5 7.5zM256.064 321.305a27.45 27.45 0 01-20.696-9.426 7.5 7.5 0 0111.309-9.855 12.454 12.454 0 009.388 4.28c3.595 0 7.017-1.56 9.387-4.28a7.5 7.5 0 0111.309 9.855 27.451 27.451 0 01-20.697 9.426z" />
  </g>
  <circle cx="292.664" cy="407.672" fill="#4e5660" transform="rotate(-20.07 292.31 407.364)" r="7.893" />
  <path
    d="M185.306 231.023h-83.283v-98.134c0-8.186 6.636-14.823 14.823-14.823h53.638c8.186 0 14.823 6.636 14.823 14.823v98.134z"
    fill="#e0b799" />
  <path d="M185.306 146.551l-83.283 30.313v54.159h83.283z" fill="#d1986f" />
  <path
    d="M281.049 166.069l143.863 52.362a20.976 20.976 0 0113.802 19.711v21.992c0 10.28-10.216 17.433-19.876 13.917l-150.392-54.738a36.203 36.203 0 00-24.764 0L93.289 274.052c-9.66 3.516-19.876-3.638-19.876-13.917v-21.992a20.977 20.977 0 0113.802-19.711l143.863-52.362a73.049 73.049 0 0149.971-.001z"
    fill="#8daee1" />
</svg>
