<svg viewBox="-67 0 512 512">
  <path
    d="M270.855 234.707l-53.777-10.172 39.426-208.37C258.539 5.39 268.926-1.688 279.699.347l14.766 2.797c10.773 2.035 17.851 12.421 15.816 23.195zm0 0"
    fill="#fad989" />
  <path
    d="M268.64 243.926l-47.25-27.621L328.419 33.227c5.531-9.465 17.687-12.653 27.156-7.122l12.973 7.586c9.465 5.532 12.652 17.692 7.121 27.157zm0 0"
    fill="#ffeab7" />
  <path
    d="M294.879 175.145c-13.043 0-18.984-3.594-26.504-8.149-8.617-5.215-18.379-11.125-37.176-11.125-18.793 0-28.558 5.91-37.172 11.125-7.52 4.555-13.457 8.149-26.5 8.149-6.156 0-10.816-.844-14.25-2-1.359 6.02-2.054 12.187-2.054 18.617 0 46.726 37.879 84.605 84.605 84.605s84.61-37.879 84.61-84.605c0-6.653-.793-13.117-2.243-19.325-5.011 1.239-12.382 2.708-23.316 2.708zm0 0"
    fill="#f9ee80" />
  <path
    d="M194.027 166.996c-7.52 4.555-13.457 8.149-26.5 8.149-6.164 0-10.816-.84-14.25-2a84.012 84.012 0 00-2.058 18.617c0 46.726 37.879 84.605 84.61 84.605 11.577-46.457 1.007-87.722-14.99-119.824-12.327 1.691-19.94 6.297-26.812 10.453zm0 0"
    fill="#eedb00" />
  <path
    d="M235.828 107.152c-43.906 0-80 33.457-84.2 76.258 4.352 1.254 9.477 2.035 15.9 2.035 31.835 0 31.835-19.273 63.671-19.273 31.84 0 31.84 19.273 63.68 19.273 9.676 0 17.965-1.21 25.031-3.172-4.719-42.261-40.562-75.12-84.082-75.12zm0 0"
    fill="#dd6642" />
  <path
    d="M195.938 117.129c-24.29 13.012-41.493 37.543-44.31 66.281 4.352 1.254 9.474 2.035 15.9 2.035 29.785 0 31.714-16.87 57.913-19.043-8.535-19.613-19.46-36.3-29.504-49.273zm0 0"
    fill="#b24e2f" />
  <path
    d="M167.527 175.145c-13.043 0-18.98-3.594-26.5-8.149-8.617-5.215-18.379-11.125-37.172-11.125s-28.558 5.91-37.171 11.125c-7.52 4.555-13.457 8.149-26.5 8.149-11.758 0-18.739-1.368-23.344-2.528a84.705 84.705 0 00-2.203 19.145c0 46.726 37.879 84.605 84.61 84.605 46.726 0 84.605-37.879 84.605-84.605 0-6.094-.657-12.028-1.88-17.754-4.085.597-9.152 1.137-14.445 1.137zm0 0"
    fill="#ffb3c2" />
  <path
    d="M99.246 107.152c-43.375 0-79.129 32.641-84.035 74.703 7.125 2.2 15.406 3.59 24.973 3.59 31.836 0 31.836-19.273 63.671-19.273 31.836 0 31.836 19.273 63.672 19.273 6.434 0 11.563-.785 15.918-2.039-4.199-42.8-40.297-76.254-84.199-76.254zm0 0"
    fill="#e7896e" />
  <path d="M232.938 392.137H102.132s15.914 53.574-12.727 81.414h156.262c-28.64-27.84-12.73-81.414-12.73-81.414zm0 0"
    fill="#59c2e8" />
  <path
    d="M44.168 223.508h246.734c21.192 0 39.29 15.52 42.262 36.5 7.816 55.18-1.32 153.469-165.629 153.469-164.305 0-173.441-98.29-165.625-153.47 2.973-20.98 21.07-36.5 42.258-36.5zm0 0"
    fill="#c2eafb" />
  <path
    d="M110.035 223.508H44.168c-21.188 0-39.285 15.52-42.258 36.5-7.816 55.18 1.32 153.469 165.625 153.469 6.969 0 13.645-.18 20.063-.52-29.903-37.098-104.657-58.27-116.813-110.516-14.16-60.875 39.25-78.933 39.25-78.933zm0 0"
    fill="#91d4f2" />
  <path
    d="M258.18 512H76.895c-16.696 0-30.23-13.535-30.23-30.23 0-16.696 13.53-30.235 30.23-30.235H258.18c16.695 0 30.23 13.54 30.23 30.235S274.875 512 258.18 512zm0 0"
    fill="#c2eafb" />
  <path
    d="M110.336 481.77c0-16.696 13.535-30.235 30.23-30.235H76.895c-16.696 0-30.23 13.535-30.23 30.235 0 16.695 13.534 30.23 30.23 30.23h63.671c-16.695 0-30.23-13.535-30.23-30.23zm0 0"
    fill="#91d4f2" />
  <path
    d="M110.035 325.602c0-9.352-9.52-16.934-21.265-16.934-11.743 0-21.262 7.582-21.262 16.934 0 9.351 9.52 16.933 21.262 16.933 11.746 0 21.265-7.582 21.265-16.933zm0 0M267.566 325.602c0-9.352-9.52-16.934-21.265-16.934-11.742 0-21.262 7.582-21.262 16.934 0 9.351 9.52 16.933 21.262 16.933 11.746 0 21.265-7.582 21.265-16.933zm0 0"
    fill="#ffb3c2" />
  <g fill="#454545">
    <path
      d="M172.813 307.3a6.36 6.36 0 01-5.278 2.848c-1.023 0-3.586-.277-5.277-2.847-2.344-3.567-7.133-4.559-10.7-2.215s-4.558 7.133-2.214 10.7a21.703 21.703 0 0018.191 9.816 21.705 21.705 0 0018.195-9.817 7.725 7.725 0 00-2.214-10.7c-1.309-.858-7.09-3.081-10.703 2.216zm0 0M106.324 310.922c-.96-.805-1.922-1.02-2.46-1.02-.536 0-1.571.133-2.458 1.02a7.728 7.728 0 01-10.93-10.93 18.82 18.82 0 0113.387-5.543c5.059 0 9.813 1.969 13.387 5.543a7.726 7.726 0 010 10.93c-1.508 1.508-6.047 4.082-10.926 0zm0 0M233.668 310.922c-.961-.805-1.922-1.02-2.461-1.02-.535 0-1.57.133-2.457 1.02a7.728 7.728 0 01-10.93-10.93 18.82 18.82 0 0113.387-5.543c5.059 0 9.813 1.969 13.387 5.543a7.726 7.726 0 010 10.93c-1.508 1.508-6.047 4.082-10.926 0zm0 0" />
  </g>
</svg>
