<svg xmlns="http://www.w3.org/2000/svg" viewBox="0 0 512 512">
  <path
    d="M494.688 314.689l-383.81 139.695c-13.649 4.968-28.741-2.07-33.708-15.718L1.593 231.021c-4.968-13.649 2.07-28.741 15.718-33.708l383.81-139.696c13.649-4.968 28.741 2.07 33.708 15.718l75.576 207.645c4.97 13.649-2.068 28.741-15.717 33.709z"
    fill="#69bfe2" />
  <path
    d="M242.707 360.591l-118.178 43.013c-6.978 2.54-14.694-1.058-17.234-8.037L52.374 244.673c-2.54-6.978 1.058-14.695 8.037-17.234l118.178-43.013c6.978-2.54 14.694 1.058 17.234 8.036l54.921 150.895c2.54 6.978-1.058 14.694-8.037 17.234z"
    fill="#fff" />
  <path
    d="M169.504 343.32c-23.364 8.504-36.755 32.266-33.034 55.938l94.295-34.32c-12.365-20.527-37.896-30.122-61.261-21.618z"
    fill="#fdba6d" />
  <path
    d="M169.504 343.32c-13.232 4.816-23.26 14.528-28.798 26.343 12.005 3.969 25.376 4.093 38.18-.567 12.804-4.66 22.967-13.35 29.612-24.107-11.837-5.492-25.762-6.485-38.994-1.669z"
    opacity=".1" />
  <circle cx="155.64" cy="305.241" r="58.27" fill="#fdba6d" />
  <g fill="#445258">
    <path
      d="M127.101 322.721a7.503 7.503 0 01-7.048-4.936l-1.717-4.716a7.5 7.5 0 0114.095-5.131l1.717 4.716a7.5 7.5 0 01-7.047 10.067zM183.926 302.038a7.504 7.504 0 01-7.048-4.936l-1.717-4.716a7.5 7.5 0 1114.095-5.131l1.717 4.716a7.5 7.5 0 01-7.047 10.067zM153.221 316.637c-3.026 0-6.039-.761-8.751-2.259a7.5 7.5 0 01-2.937-10.191 7.498 7.498 0 0110.192-2.938 3.046 3.046 0 002.539.203 3.047 3.047 0 001.817-1.789 7.5 7.5 0 0113.996 5.394 18.068 18.068 0 01-16.856 11.58z" />
  </g>
  <path
    d="M403.786 139.481l-126.963 46.211c-7.51 2.733-15.814-1.139-18.547-8.649l-2-5.495c-2.733-7.51 1.139-15.814 8.649-18.547l126.963-46.211c7.51-2.733 15.814 1.139 18.547 8.649l2 5.495c2.733 7.51-1.139 15.814-8.649 18.547z"
    fill="#97d68f" />
  <path
    d="M266.449 254.806l45.945 126.232 182.295-66.35c13.649-4.968 20.686-20.06 15.718-33.708L466.02 159.029l-186.575 67.908c-11.285 4.107-17.104 16.585-12.996 27.869z"
    fill="#e5e5e5" />
  <g fill="#445258">
    <path
      d="M311.089 266.474a7.5 7.5 0 01-2.566-14.55l64.366-23.428a7.5 7.5 0 115.13 14.095l-64.366 23.428a7.488 7.488 0 01-2.564.455zM320.538 292.434a7.5 7.5 0 01-2.567-14.549l64.366-23.427a7.5 7.5 0 015.131 14.095l-64.366 23.427a7.51 7.51 0 01-2.564.454zM329.986 318.395a7.504 7.504 0 01-7.049-4.937 7.5 7.5 0 014.482-9.613l36.602-13.322a7.5 7.5 0 115.131 14.095L332.55 317.94a7.484 7.484 0 01-2.564.455zM426.818 224.352a7.502 7.502 0 01-2.566-14.549l18.552-6.753a7.5 7.5 0 015.131 14.095l-18.552 6.753a7.516 7.516 0 01-2.565.454z" />
  </g>
  <path
    d="M510.407 280.981L434.83 73.336c-4.48-12.31-17.196-19.238-29.661-16.835l75 206.06c4.968 13.649-2.07 28.74-15.718 33.708L80.641 435.964a26.468 26.468 0 01-4.048 1.116l.577 1.585c4.968 13.649 20.06 20.686 33.708 15.718l383.81-139.695c13.649-4.967 20.687-20.059 15.719-33.707z"
    opacity=".1" />
</svg>
