<svg viewBox="0 0 497 497">
  <path d="M318.65 470.243h80.63c0-67.8-65.84-108.03-65.84-108.03H163.56s-65.84 40.23-65.84 108.03h80.63l70.15-28.345z"
    fill="#b2b0bc" />
  <path d="M193.56 362.213h-30s-65.84 40.23-65.84 108.03h30c0-67.8 65.84-108.03 65.84-108.03z" fill="#a19dae" />
  <path
    d="M178.391 73.947C126.043 4.335 28.171 21.559 15.197 62.662a14.066 14.066 0 003.468 14.178c5.577 5.577 5.436 14.609-.233 20.093-11.5 11.124-25.719 34.283-14.115 76.279 10.173 36.816 56.315 38.897 94.382 33.792zM318.609 73.947c52.348-69.613 150.22-52.388 163.194-11.285a14.066 14.066 0 01-3.468 14.178c-5.577 5.577-5.436 14.609.233 20.093 11.5 11.124 25.719 34.283 14.115 76.279-10.173 36.816-56.315 38.897-94.382 33.792z"
    fill="#c7c5cb" />
  <path
    d="M443.053 208.157c-5.933-39.657-23.995-78.417-51.556-109.488-16.169-18.229-34.802-32.918-55.141-43.748-6.311 5.447-12.279 11.757-17.746 19.027l79.692 133.056c14.558 1.952 30.293 2.844 44.751 1.153zM105.504 98.669C77.942 129.741 59.881 168.5 53.948 208.157c14.457 1.691 30.192.799 44.751-1.153l79.692-133.056c-5.467-7.27-11.435-13.58-17.746-19.027-20.339 10.829-38.972 25.519-55.141 43.748z"
    fill="#b2b0bc" />
  <circle cx="383.855" cy="128.983" fill="#ff9db0" r="44.655" />
  <circle cx="113.145" cy="128.983" fill="#ff9db0" r="44.655" />
  <path
    d="M424.294 147.927c-8.56-17.687-19.582-34.359-32.798-49.259a208.024 208.024 0 00-13.585-13.935c-21.851 2.908-38.712 21.604-38.712 44.25 0 24.662 19.993 44.656 44.655 44.656 17.889 0 33.313-10.523 40.44-25.712zM105.504 98.669c-13.217 14.9-24.239 31.572-32.798 49.259 7.128 15.189 22.552 25.711 40.44 25.711 24.662 0 44.655-19.993 44.655-44.656 0-22.646-16.861-41.342-38.712-44.25a208.04 208.04 0 00-13.585 13.936z"
    fill="#ff889e" />
  <path d="M248.5 376.291c-265.17 0-189.595-318.239 0-318.239s265.17 318.239 0 318.239z" fill="#c7c5cb" />
  <path
    d="M293.974 209.098l-2.014-10.132c-4.121-20.736-22.318-35.673-43.46-35.673s-39.339 14.936-43.46 35.673l-2.014 10.132c-5.447 27.404 15.52 52.948 43.46 52.948h4.028c27.94 0 48.907-25.544 43.46-52.948z"
    fill="#5c586f" />
  <g fill="#423e4f">
    <path
      d="M163.556 185.721c-14.615 0-26.506 11.89-26.506 26.506 0 4.142 3.357 7.5 7.5 7.5s7.5-3.358 7.5-7.5c0-6.344 5.161-11.506 11.506-11.506 6.344 0 11.505 5.161 11.505 11.506 0 4.142 3.357 7.5 7.5 7.5s7.5-3.358 7.5-7.5c0-14.615-11.89-26.506-26.505-26.506zM333.444 185.721c-14.615 0-26.506 11.89-26.506 26.506 0 4.142 3.357 7.5 7.5 7.5s7.5-3.358 7.5-7.5c0-6.344 5.161-11.506 11.506-11.506s11.506 5.161 11.506 11.506c0 4.142 3.357 7.5 7.5 7.5s7.5-3.358 7.5-7.5c0-14.615-11.89-26.506-26.506-26.506zM283.895 276.649a7.5 7.5 0 00-7.5 7.5c0 5.623-4.574 10.198-10.197 10.198S256 289.772 256 284.149c0-4.142-3.357-7.5-7.5-7.5s-7.5 3.358-7.5 7.5c0 5.623-4.574 10.198-10.197 10.198s-10.198-4.574-10.198-10.198c0-4.142-3.357-7.5-7.5-7.5s-7.5 3.358-7.5 7.5c0 13.894 11.304 25.198 25.198 25.198 6.892 0 13.144-2.783 17.697-7.282 4.554 4.499 10.806 7.282 17.697 7.282 13.894 0 25.197-11.303 25.197-25.198a7.499 7.499 0 00-7.499-7.5z" />
  </g>
  <g fill="#e8e8e8">
    <ellipse cx="349.985" cy="254.903" rx="35.571" ry="28.327" />
    <ellipse cx="147.015" cy="254.903" rx="35.571" ry="28.327" />
    <path d="M318.65 470.243h-140.3c6.91-32.4 35.69-56.69 70.15-56.69s63.24 24.29 70.15 56.69z" />
  </g>
</svg>
