<svg viewBox="0 0 512 512">
  <path
    d="M206.627 489.94c-85.695 0-155.413-69.718-155.413-155.413 0-3.741.132-7.466.394-11.167C20.63 308.207 0 276.498 0 240.417V114.428c0-50.93 41.435-92.365 92.365-92.365 30.843 0 58.201 15.193 74.986 38.491 10.726-14.974 26.011-26.897 44.694-33.383a92.184 92.184 0 0130.291-5.11c16.146 0 31.564 4.129 45.041 11.641 13.382-7.365 28.649-11.409 44.618-11.409a92.219 92.219 0 0129.115 4.71c48.336 16.06 74.595 68.444 58.542 116.774l-1.456 4.382h1.438c50.93 0 92.365 41.435 92.365 92.365a92.17 92.17 0 01-7.56 36.597 92.28 92.28 0 013.678 25.875c0 8.85-1.247 17.542-3.678 25.875a92.17 92.17 0 017.56 36.597c0 50.93-41.435 92.365-92.365 92.365h-52.646c-18.216 0-35.217-5.3-49.542-14.44a155.15 155.15 0 01-14.397 12.962c-27.323 21.657-61.566 33.585-96.422 33.585z"
    fill="#f4c8d2" />
  <path
    d="M148.13 391.527c-.064-42.118-43.544-70.362-82.005-53.57a58.419 58.419 0 00-14.898-4.187c-.001.253-.013.504-.013.757 0 49.895 23.64 94.367 60.301 122.822 20.084-17.4 36.651-41.33 36.615-65.822zM429.553 148.692a92.86 92.86 0 00-9.919-.534h-1.438l1.456-4.382c16.053-48.33-10.206-100.714-58.542-116.774a92.357 92.357 0 00-16.305-3.801c-11.829 10.524-19.545 25.864-19.518 43.669.06 39.349 40.282 71.401 61.544 82.853a43.091 43.091 0 0040.988-.062c.578-.313 1.156-.643 1.734-.969z"
    fill="#eda1ab" />
  <path
    d="M206.627 447.905c-62.517 0-113.379-50.862-113.379-113.379 0-15.469 3.113-30.223 8.747-43.67-11.113-.017-14.116-.14-18.179-.84-24.195-4.151-41.782-25.014-41.782-49.599V114.428c0-27.753 22.578-50.331 50.331-50.331s50.331 22.578 50.331 50.331v76.042c19.054 2.363 34.872 15.433 41.196 32.969a113.495 113.495 0 0122.735-2.29c6.857 0 13.572.612 20.097 1.784l-31.935-91.999c-9.098-26.219 4.828-54.951 31.042-64.052a50.241 50.241 0 0116.506-2.785c19.123 0 36.405 10.838 44.887 27.563a50.25 50.25 0 0144.772-27.331c5.397 0 10.736.864 15.866 2.568 26.34 8.752 40.647 37.296 31.9 63.631l-19.993 60.184a50.573 50.573 0 017.22-.516h52.646c27.753 0 50.331 22.578 50.331 50.331 0 12.936-4.906 24.749-12.955 33.674 5.717 8.165 9.074 18.096 9.074 28.798s-3.356 20.633-9.074 28.798c8.049 8.925 12.955 20.738 12.955 33.674 0 27.753-22.578 50.331-50.331 50.331h-52.646c-27.752 0-50.331-22.578-50.331-50.331v-3.538c-12.286 49.32-56.958 85.972-110.031 85.972z"
    fill="#fff" />
  <path
    d="M93.265 333.165c-.005.454-.017.907-.017 1.362 0 36.972 17.791 69.865 45.259 90.575 5.971-10.654 9.639-22.05 9.622-33.574-.048-32.287-25.608-56.418-54.864-58.363z"
    fill="#fbf1cf" />
  <path
    d="M91.059 248.032a7.727 7.727 0 01-6.421-7.615V114.428a7.726 7.726 0 1115.452 0v118.365c12.901.029 36.3-.102 36.429-.102a7.726 7.726 0 01.042 15.453c-2.447.013-43.08.303-45.502-.112z"
    fill="#8de1ce" />
  <path
    d="M419.635 357.741h-44.92v-47.02h41.038a7.726 7.726 0 100-15.452h-41.038v-47.02h44.92a7.726 7.726 0 100-15.452h-52.646a7.726 7.726 0 00-7.726 7.726v124.945a7.726 7.726 0 007.726 7.726h52.646a7.727 7.727 0 000-15.453z"
    fill="#e7889d" />
  <path
    d="M288.131 248.25a10.58 10.58 0 01-9.962-7.034l-43.131-124.255a7.726 7.726 0 1114.599-5.067l38.393 110.609 36.635-110.279a7.725 7.725 0 019.768-4.897 7.727 7.727 0 014.897 9.768l-41.172 123.934c-1.465 4.309-5.459 7.19-9.956 7.22l-.071.001z"
    fill="#b39bdb" />
  <path
    d="M206.627 405.301c-39.025 0-70.774-31.749-70.774-70.774s31.749-70.774 70.774-70.774 70.774 31.749 70.774 70.774-31.749 70.774-70.774 70.774zm0-126.096c-30.505 0-55.321 24.817-55.321 55.322 0 30.504 24.817 55.321 55.321 55.321 30.505 0 55.322-24.817 55.322-55.321-.001-30.505-24.818-55.322-55.322-55.322z"
    fill="#8daee1" />
  <path
    d="M375.661 142.869l4.101-12.344c8.748-26.335-5.56-54.88-31.9-63.631a50.252 50.252 0 00-22.54-2.123 60.867 60.867 0 00-.035 2.098c.051 33.181 28.658 61.173 50.374 76z"
    fill="#fbf1cf" />
  <g fill="#e16e7e">
    <path
      d="M413.084 122.495a12.17 12.17 0 01-11.599.017c-20.604-11.097-45.261-35.44-45.292-55.689-.023-15.257 12.327-27.644 27.585-27.667 9.851-.015 18.499 5.132 23.401 12.885 4.88-7.767 13.513-12.94 23.363-12.955 15.258-.023 27.644 12.327 27.667 27.585.03 20.25-24.554 44.666-45.125 55.824zM72.099 447.398a12.17 12.17 0 01-11.599.017c-20.604-11.097-45.261-35.44-45.292-55.689-.023-15.257 12.327-27.644 27.585-27.667 9.851-.015 18.499 5.132 23.401 12.885 4.88-7.767 13.512-12.94 23.363-12.955 15.258-.023 27.644 12.327 27.667 27.585.03 20.25-24.554 44.666-45.125 55.824z" />
  </g>
</svg>
