<svg xmlns="http://www.w3.org/2000/svg" viewBox="0 0 512 512">
  <path
    d="M479.062 96.368H201.326a60.815 60.815 0 01-20.836-3.681l-75.265-27.451a28.99 28.99 0 00-19.867 0L21.652 88.471A32.939 32.939 0 000 119.415v282.03c0 22.871 22.737 38.781 44.224 30.944l41.134-15.002a28.99 28.99 0 0119.867 0l75.265 27.451a60.815 60.815 0 0020.836 3.681h277.736c18.191 0 32.938-14.747 32.938-32.938V129.306c0-18.191-14.747-32.938-32.938-32.938z"
    fill="#e5e5e5" />
  <path
    d="M454.412 133.861H201.326a60.815 60.815 0 01-20.836-3.681l-75.265-27.451a28.99 28.99 0 00-19.867 0l-30.812 11.238a25.94 25.94 0 00-17.053 24.371v221.94c0 18.012 17.907 30.542 34.829 24.37l13.036-4.754a28.99 28.99 0 0119.867 0l75.265 27.45a60.815 60.815 0 0020.836 3.681h253.086c11.098 0 20.095-8.997 20.095-20.095V153.956c-.001-11.098-8.997-20.095-20.095-20.095z"
    fill="#97d68f" />
  <path
    d="M105.225 102.73a28.99 28.99 0 00-19.867 0l-30.812 11.238a25.94 25.94 0 00-17.053 24.371v86.138c11.289-16.627 31.583-30.536 57.798-24.73 34.864 7.722 59.82-9.645 66.654-76.33l-56.72-20.687z"
    opacity=".1" />
  <g fill="#fff">
    <path
      d="M365.296 133.861h-35.362c0 49.786 25.297 93.775 63.711 119.789l-58.173 58.173H200.886a58.324 58.324 0 01-19.982-3.53l-74.929-27.328a31.172 31.172 0 00-21.366 0l-47.115 17.183v35.362l47.115-17.184a31.184 31.184 0 0121.366 0l74.929 27.328a58.324 58.324 0 0019.982 3.53h99.224l-63.84 63.84h50.01L426.925 270.38c14.908 5.211 30.918 8.054 47.581 8.054v-35.362c-60.218 0-109.21-48.992-109.21-109.211z" />
    <path
      d="M302.232 223.907c0 20.796-17.228 37.567-38.19 36.822-19.966-.71-35.502-17.726-35.502-37.705v-37.226c0-5.466 4.431-9.896 9.896-9.896h53.9c5.466 0 9.896 4.431 9.896 9.896v38.109z" />
  </g>
  <path d="M302.232 208.966H228.54v-23.168c0-5.466 4.431-9.896 9.896-9.896h53.9c5.466 0 9.896 4.431 9.896 9.896v23.168z"
    fill="#d77458" />
  <path d="M265.386 242.88a7.5 7.5 0 01-7.5-7.5v-2.412a7.5 7.5 0 0115 0v2.412a7.5 7.5 0 01-7.5 7.5z" fill="#445258" />
  <path
    d="M180.49 92.687l-75.265-27.451a28.989 28.989 0 00-9.934-1.755v352.151c3.363 0 6.726.585 9.934 1.755l75.265 27.45a60.78 60.78 0 0010.093 2.721V95.408a60.904 60.904 0 01-10.093-2.721z"
    opacity=".1" />
</svg>
