<svg viewBox="0 -23 512 512" xmlns="http://www.w3.org/2000/svg">
  <path
    d="M157.004 292.258l-30.043 97.988L13.988 457.48C5.473 450.832 0 440.465 0 428.82V179.96c0-6.964 1.957-13.468 5.348-18.98l100.797 40.907zm0 0M257.176 292.258l30.043 97.988L400.19 457.48c8.512-6.648 13.989-17.011 13.989-28.66V179.96a36.1 36.1 0 00-5.352-18.98l-100.797 40.907zm0 0"
    fill="#61caff" />
  <path d="M147.098 324.563l9.906-32.305-50.856-90.371-100.8-40.907C1.957 166.492 0 172.996 0 179.96v17.267zm0 0"
    fill="#4fbbf3" />
  <path
    d="M257.176 292.258L400.19 457.48a36.172 36.172 0 01-22.363 7.692H36.352a36.172 36.172 0 01-22.364-7.692l143.016-165.222zm0 0"
    fill="#6ee4ff" />
  <path d="M414.18 197.227V179.96c0-6.965-1.957-13.469-5.348-18.98l-100.8 40.906-50.856 90.37 9.906 32.305zm0 0"
    fill="#4fbbf3" />
  <path
    d="M257.176 292.258H157.004l-20.23 23.367 16.515 14.297a82.228 82.228 0 0053.8 20.05 82.235 82.235 0 0053.802-20.05l16.511-14.297zm0 0"
    fill="#61caff" />
  <path
    d="M408.828 160.98L257.176 292.258l-16.516 14.297c-19.273 16.683-47.867 16.683-67.144 0l-16.512-14.297L5.348 160.98c6.39-10.417 17.89-17.37 31.004-17.37h341.476c13.113 0 24.613 6.952 31 17.37zm0 0"
    fill="#6ee4ff" />
  <path
    d="M367.574 30.25c-99.86-97.594-265.273 60.227-4.906 199.719a10.397 10.397 0 009.812 0C632.848 90.477 467.434-67.344 367.574 30.25zm0 0"
    fill="#f55d67" />
  <path
    d="M314.172 1.426c-89.934-16.387-168.246 112.422 48.496 228.543a10.397 10.397 0 009.812 0 599.237 599.237 0 0010.547-5.797C203.898 123.363 242.148 15.016 314.172 1.426zm0 0"
    fill="#ff3d5d" />
  <g fill="#4b3f4e">
    <path
      d="M303.234 114.621a7.726 7.726 0 01-7.726-7.726V95.254c0-4.27 3.46-7.727 7.726-7.727s7.727 3.457 7.727 7.727v11.64c0 4.27-3.461 7.727-7.727 7.727zm0 0M431.914 114.621a7.726 7.726 0 01-7.726-7.726V95.254c0-4.27 3.46-7.727 7.726-7.727a7.724 7.724 0 017.727 7.727v11.64a7.724 7.724 0 01-7.727 7.727zm0 0M367.574 120.84c-8.418 0-16.328-3.524-21.695-9.668a7.724 7.724 0 01.73-10.902 7.728 7.728 0 0110.903.73c2.437 2.785 6.101 4.387 10.062 4.387 3.961 0 7.63-1.598 10.063-4.387a7.728 7.728 0 0111.637 10.172c-5.372 6.144-13.282 9.668-21.7 9.668zm0 0" />
  </g>
</svg>
