<svg viewBox="0 0 512 512">
  <path
    d="M191.312 102.054v244.871c-14.861-6.045-33.427-7.677-53.704-3.728-1.569.306-3.149.645-4.737 1.018-51.642 12.123-93.507 55.443-93.507 96.757 0 41.313 41.864 64.978 93.507 52.854 51.476-12.083 93.505-55.374 93.507-96.754v-.002V165.935l196.194-52.57v171.612c-14.861-6.045-33.427-7.677-53.704-3.728-1.569.306-3.149.645-4.737 1.018-51.642 12.123-93.507 55.443-93.507 96.757 0 41.313 41.864 64.978 93.507 52.854 51.487-12.087 93.507-55.382 93.507-96.757V46.779c0-30.742-29.16-53.117-58.854-45.16L234.628 45.603c-25.549 6.846-43.316 30-43.316 56.451z"
    fill="#7ce3ff" />
  <g fill="#2ed0fc">
    <path
      d="M103.713 408.796c0-23.189 13.19-47.018 33.895-65.599-1.57.306-3.148.644-4.737 1.018-51.643 12.123-93.507 55.442-93.507 96.756s41.864 64.977 93.507 52.854c22.594-5.304 43.367-16.621 59.566-31.148-49.42 9.609-88.724-13.851-88.724-53.881zM334.972 346.848c0-23.188 13.19-47.017 33.895-65.599-1.57.306-3.148.644-4.737 1.018-51.643 12.123-93.507 55.443-93.507 96.756s41.864 64.978 93.507 52.855c22.596-5.305 43.368-16.622 59.566-31.148-49.42 9.608-88.724-13.852-88.724-53.882z" />
  </g>
  <ellipse cx="244.705" cy="124.687" fill="#ff8e9e" rx="30.834" ry="24.555"
    transform="rotate(-14.98 244.593 124.514)" />
  <ellipse cx="406.14" cy="81.43" fill="#ff8e9e" rx="30.834" ry="24.555" transform="rotate(-14.98 405.908 81.227)" />
  <g fill="#313d40">
    <path
      d="M260.006 83.38a7.502 7.502 0 00-14.49 3.882l3.105 11.591a7.503 7.503 0 009.186 5.304 7.502 7.502 0 005.304-9.186zM339.209 68.652a7.501 7.501 0 00-10.033 3.44 15.44 15.44 0 01-9.87 8.138 15.434 15.434 0 01-12.616-2.112 7.5 7.5 0 00-10.409 2.036 7.5 7.5 0 002.036 10.409 30.458 30.458 0 0017.004 5.192c2.631 0 5.275-.341 7.867-1.036a30.436 30.436 0 0019.461-16.034 7.5 7.5 0 00-3.44-10.033zM405.415 56.495c-3.055-11.401-14.813-18.19-26.217-15.137-11.401 3.055-18.191 14.816-15.137 26.218a7.503 7.503 0 009.186 5.304 7.5 7.5 0 005.303-9.186 6.361 6.361 0 01.64-4.861 6.363 6.363 0 013.89-2.985 6.412 6.412 0 017.846 4.53 7.5 7.5 0 0014.489-3.883z" />
  </g>
</svg>
