<svg viewBox="0 0 512 512">
  <path
    d="M226.384 114.656v9.179c0 6.306-5.112 11.418-11.418 11.418H42.902C19.208 135.253 0 154.461 0 178.155v187.704c0 23.694 19.208 42.902 42.902 42.902h426.196c23.694 0 42.902-19.208 42.902-42.902V146.141c0-23.694-19.208-42.902-42.902-42.902H237.801c-6.306 0-11.417 5.112-11.417 11.417z"
    fill="#79c6e4" />
  <path
    d="M469.098 103.239h-40.05c23.694 0 42.902 19.208 42.902 42.902v219.718c0 23.694-19.208 42.902-42.902 42.902h40.05c23.694 0 42.902-19.208 42.902-42.902V146.141c0-23.694-19.208-42.902-42.902-42.902z"
    opacity=".1" />
  <path
    d="M469.098 103.239H237.801c-6.306 0-11.418 5.112-11.418 11.418v9.179c0 6.306-5.112 11.418-11.418 11.418H42.902C19.208 135.253 0 154.461 0 178.155v45.548h512v-77.562c0-23.694-19.208-42.902-42.902-42.902z"
    opacity=".1" />
  <path
    d="M138.029 329.087c-18.438 0-33.439-15.001-33.439-33.44s15.001-33.44 33.439-33.44c18.439 0 33.44 15.001 33.44 33.44.001 18.439-15 33.44-33.44 33.44zm0-51.88c-10.168 0-18.439 8.272-18.439 18.44s8.271 18.44 18.439 18.44 18.44-8.272 18.44-18.44c.001-10.168-8.272-18.44-18.44-18.44z"
    fill="#404b58" />
  <g fill="#e8e8e8">
    <path
      d="M99.95 103.239H62.664a7.992 7.992 0 00-7.992 7.992v24.022h53.27v-24.022a7.992 7.992 0 00-7.992-7.992zM194.423 103.239h-52.952a7.992 7.992 0 00-7.992 7.992v24.022h68.936v-24.022a7.992 7.992 0 00-7.992-7.992z" />
  </g>
  <g fill="#fff">
    <path
      d="M334.03 177.712h-59.687a6.374 6.374 0 01-6.374-6.374v-29.712a6.374 6.374 0 016.374-6.374h59.687a6.374 6.374 0 016.374 6.374v29.712a6.374 6.374 0 01-6.374 6.374zM451.845 182.21h-59.687a6.374 6.374 0 01-6.374-6.374V137.13a6.374 6.374 0 016.374-6.374h59.687a6.374 6.374 0 016.374 6.374v38.706a6.374 6.374 0 01-6.374 6.374z" />
  </g>
  <circle cx="267.04" cy="306.69" r="92.03" opacity=".1" />
  <circle cx="256" cy="295.65" r="92.03" fill="#fff" />
  <circle cx="256" cy="295.65" r="62.1" fill="#404b58" />
  <circle cx="256" cy="295.65" r="25.94" opacity=".2" />
  <circle cx="277.28" cy="274.37" r="14.559" fill="#fff" />
  <circle cx="226.38" cy="165.28" r="12.435" fill="#ed718b" />
  <path opacity=".1" d="M385.79 148.98h72.44v15h-72.44z" />
  <g opacity=".1">
    <path d="M149.37 103.24h15v32.01h-15zM171.53 103.24h15v32.01h-15z" />
  </g>
  <path opacity=".15" d="M54.672 124.44h53.27v10.814h-53.27zM133.48 124.44h68.936v10.814H133.48z" />
</svg>
