<svg viewBox="0 -110 512 512" xmlns="http://www.w3.org/2000/svg"><path d="M472.16 0H39.84C17.836 0 0 17.836 0 39.84v212.133c0 22.004 17.836 39.84 39.84 39.84h30.312v-130.86c0-13.648 11.106-24.754 24.754-24.754h322.188c13.648 0 24.754 11.106 24.754 24.754v130.86h30.312c22.004 0 39.84-17.836 39.84-39.84V39.84C512 17.836 494.164 0 472.16 0zm0 0" fill="#889cb0"/><path d="M417.094 125.895H94.906c-19.36 0-35.058 15.695-35.058 35.058v130.86h392.304v-130.86c0-19.36-15.699-35.058-35.058-35.058zm0 0" fill="#c2eafb"/><path d="M417.094 125.895H94.906c-19.36 0-35.058 15.695-35.058 35.058v50.23c0-19.363 15.699-35.058 35.058-35.058h322.188c19.363 0 35.058 15.695 35.058 35.059v-50.23c0-19.36-15.699-35.06-35.058-35.06zm0 0" fill="#91d4f2"/><path d="M109.758 125.895h48.914v165.918h-48.914zm0 0" fill="#91d4f2"/><path d="M109.758 125.895h48.914v50.226h-48.914zm0 0" fill="#59c2e8"/><path d="M207.586 125.895H256.5v165.918h-48.914zm0 0" fill="#91d4f2"/><path d="M207.586 125.895H256.5v50.226h-48.914zm0 0" fill="#59c2e8"/><path d="M305.414 125.895h48.91v165.918h-48.91zm0 0" fill="#91d4f2"/><path d="M305.414 125.895h48.91v50.226h-48.91zm0 0" fill="#59c2e8"/><path d="M417.094 125.895h-13.856v165.918h48.914v-130.86c0-19.36-15.699-35.058-35.058-35.058zm0 0" fill="#91d4f2"/><path d="M452.152 211.18v-50.227c0-19.36-15.695-35.058-35.058-35.058h-13.856v50.23h13.856c19.36 0 35.054 15.691 35.058 35.055zm0 0" fill="#59c2e8"/><g fill="#6a829a"><path d="M109.758 237.227c-9.633 0-17.445-7.813-17.445-17.45v-47.98c0-9.637 7.812-17.445 17.445-17.445 9.637 0 17.449 7.812 17.449 17.445v47.98c0 9.637-7.812 17.45-17.45 17.45zm0 0M207.586 237.227c-9.637 0-17.45-7.813-17.45-17.45v-47.98c0-9.637 7.813-17.445 17.45-17.445s17.445 7.812 17.445 17.445v47.98c.004 9.637-7.808 17.45-17.445 17.45zm0 0M305.414 237.227c-9.637 0-17.45-7.813-17.45-17.45v-47.98c0-9.637 7.813-17.445 17.45-17.445s17.445 7.812 17.445 17.445v47.98c0 9.637-7.812 17.45-17.445 17.45zm0 0M403.238 237.227c-9.636 0-17.445-7.813-17.445-17.45v-47.98c0-9.637 7.809-17.445 17.445-17.445s17.45 7.812 17.45 17.445v47.98c0 9.637-7.813 17.45-17.45 17.45zm0 0"/></g><path d="M297.262 104.563h-82.524c-10.941 0-19.812-8.872-19.812-19.813V49.66c0-10.941 8.87-19.812 19.812-19.812h82.524c10.945 0 19.816 8.87 19.816 19.812v35.09c0 10.941-8.871 19.813-19.816 19.813zm0 0" fill="#b9ecc2"/><path d="M297.262 29.844h-82.524c-10.941 0-19.812 8.87-19.812 19.816v29.63c0-10.942 8.87-19.813 19.812-19.813h82.524c10.945 0 19.816 8.87 19.816 19.812V49.66c0-10.945-8.871-19.816-19.816-19.816zm0 0" fill="#73da8c"/><path d="M175.598 79.34c0 9.23-7.48 16.71-16.711 16.71-9.227 0-16.707-7.48-16.707-16.71 0-9.227 7.48-16.707 16.707-16.707 9.23 0 16.71 7.48 16.71 16.707zm0 0M126.469 79.34c0 9.23-7.48 16.71-16.711 16.71-9.227 0-16.707-7.48-16.707-16.71 0-9.227 7.48-16.707 16.707-16.707 9.23 0 16.71 7.48 16.71 16.707zm0 0" fill="#6a829a"/><path d="M77.34 79.34c0 9.23-7.48 16.71-16.707 16.71-9.23 0-16.711-7.48-16.711-16.71 0-9.227 7.48-16.707 16.71-16.707 9.227 0 16.708 7.48 16.708 16.707zm0 0" fill="#ff8a98"/><path d="M439.898 50.484h-89.617a7.726 7.726 0 110-15.453h89.617a7.725 7.725 0 017.723 7.727 7.723 7.723 0 01-7.723 7.726zm0 0M439.898 77.523h-89.617a7.726 7.726 0 110-15.453h89.617a7.725 7.725 0 017.723 7.727 7.723 7.723 0 01-7.723 7.726zm0 0M439.898 104.563h-89.617a7.726 7.726 0 01-7.726-7.727c0-4.27 3.46-7.727 7.726-7.727h89.617a7.723 7.723 0 017.723 7.727 7.725 7.725 0 01-7.723 7.727zm0 0" fill="#516980"/></svg>
