<svg viewBox="0 -54 512 512" xmlns="http://www.w3.org/2000/svg">
  <path
    d="M446.566 403.293H65.434C29.297 403.293 0 373.996 0 337.859V65.434C0 29.297 29.297 0 65.434 0h381.128C482.703 0 512 29.297 512 65.434v272.425c0 36.137-29.297 65.434-65.434 65.434zm0 0"
    fill="#767678" />
  <path
    d="M0 65.434v272.425c0 36.137 29.297 65.434 65.434 65.434h85.656c-22.344-26.172-23.8-67.258-23.8-67.258s-.18-42.12-.278-85.66c-.11-50 21.086-97.77 58.496-130.941C242.758 68.676 256 0 256 0H65.434C29.297 0 0 29.297 0 65.434zm0 0"
    fill="#575757" />
  <path d="M446.566 0H65.434C29.297 0 0 29.297 0 65.434v22.488h512V65.434C512 29.297 482.703 0 446.566 0zm0 0"
    fill="#a4e7ff" />
  <path d="M0 65.434v22.488h214.523C247.473 44.219 256 0 256 0H65.434C29.297 0 0 29.297 0 65.434zm0 0" fill="#5ad6ff" />
  <path
    d="M86.004 43.96c0 8.517-6.906 15.419-15.422 15.419-8.512 0-15.418-6.902-15.418-15.418 0-8.516 6.906-15.418 15.418-15.418 8.516 0 15.422 6.902 15.422 15.418zm0 0"
    fill="#ff8a98" />
  <path
    d="M142.707 43.96c0 8.517-6.902 15.419-15.418 15.419-8.516 0-15.418-6.902-15.418-15.418 0-8.516 6.902-15.418 15.418-15.418 8.516 0 15.418 6.902 15.418 15.418zm0 0"
    fill="#eedb00" />
  <path
    d="M199.414 43.96c0 8.517-6.906 15.419-15.422 15.419-8.515 0-15.418-6.902-15.418-15.418 0-8.516 6.903-15.418 15.418-15.418 8.516 0 15.422 6.902 15.422 15.418zm0 0"
    fill="#00c140" />
  <path
    d="M174.723 305.234l-61.246-47.468a15.445 15.445 0 010-24.426l61.246-47.469c6.746-5.23 16.453-4 21.68 2.746 5.23 6.746 4 16.453-2.747 21.68l-45.488 35.254 45.488 35.254c6.746 5.23 7.977 14.937 2.746 21.68-3.043 3.93-11.18 9.921-21.68 2.75zm0 0M337.277 305.234l61.246-47.468a15.445 15.445 0 000-24.426l-61.246-47.469c-6.746-5.23-16.453-4-21.68 2.746-5.23 6.746-4 16.453 2.747 21.68l45.488 35.254-45.488 35.254c-6.742 5.23-7.977 14.937-2.746 21.68 3.043 3.93 11.18 9.921 21.68 2.75zm0 0"
    fill="#73da8c" />
  <path
    d="M237.191 332.316c-8.343-1.804-13.636-10.035-11.828-18.375l31.07-143.347c1.81-8.344 10.036-13.637 18.376-11.832 8.34 1.808 13.636 10.035 11.828 18.375l-31.07 143.351c-3.684 15.512-17.274 12.067-18.376 11.828zm0 0"
    fill="#00c140" /></svg>
