<svg viewBox="0 0 512 512" xmlns="http://www.w3.org/2000/svg"><path d="M62.363 373.171H387.31v103.483H62.363z" fill="#fbf1cf"/><path d="M196.004 373.171H62.363v103.483H217.06v-8.489c-20.902-12.938-33.008-68.286-21.056-84.98z" fill="#fae0bd"/><path d="M412.694 25.384C412.694 11.365 401.329 0 387.31 0H108.515c-48.02 0-87.088 39.068-87.088 87.088v337.825l50.611-61.704h340.656z" fill="#f6ee86"/><path d="M234.158 363.209C101.222 269.011 81.432 77.78 80.652 4.598 46.26 16.247 21.427 48.812 21.427 87.088v337.825l50.611-61.704z" fill="#f2d98d"/><path d="M108.515 0c-48.02 0-87.088 39.068-87.088 87.088v337.825l50.611-61.704h36.477z" fill="#b0ade2"/><path d="M80.652 4.598C46.26 16.247 21.427 48.812 21.427 87.088v337.825l50.611-61.704h36.477V178.124C86.291 108.64 81.046 41.562 80.652 4.598z" fill="#a09cdc"/><path d="M387.31 0H157.851v363.209h254.843V25.384C412.694 11.365 401.329 0 387.31 0z" fill="#b0ade2"/><path d="M157.851 283.344v79.865h76.307c-31.299-22.178-56.324-49.736-76.307-79.865z" fill="#a09cdc"/><path d="M387.31 512H108.515c-48.02 0-87.088-39.067-87.088-87.087s39.068-87.088 87.088-87.088H387.31c14.02 0 25.384 11.365 25.384 25.384 0 14.02-11.365 25.384-25.384 25.384H108.515c-20.027 0-36.32 16.293-36.32 36.32 0 20.026 16.293 36.319 36.32 36.319H387.31c14.02 0 25.384 11.365 25.384 25.384S401.329 512 387.31 512z" fill="#a2ddfd"/><path d="M246.746 234.307a7.5 7.5 0 01-7.5-7.5v-93.29c0-14.297 5.567-27.737 15.677-37.847l14.492-14.493a7.5 7.5 0 0110.607 10.607l-14.493 14.493c-7.276 7.275-11.284 16.949-11.284 27.239v93.29a7.498 7.498 0 01-7.499 7.501zM390.088 234.31a7.494 7.494 0 01-6.498-3.745c-3.85-6.652-11.007-10.784-18.68-10.784s-14.83 4.132-18.68 10.783a7.499 7.499 0 01-10.248 2.734 7.499 7.499 0 01-2.734-10.248c6.521-11.269 18.654-18.27 31.662-18.27 13.009 0 25.142 7.002 31.663 18.272a7.501 7.501 0 01-6.485 11.258z" fill="#f2d98d"/><circle cx="293.243" cy="226.807" fill="#a2ddfd" r="46.496"/><circle cx="436.577" cy="226.807" fill="#a2ddfd" r="46.496"/><path d="M293.243 280.803c-29.774 0-53.997-24.223-53.997-53.996s24.223-53.996 53.997-53.996c29.773 0 53.996 24.223 53.996 53.996s-24.223 53.996-53.996 53.996zm0-92.992c-21.503 0-38.997 17.493-38.997 38.996s17.494 38.996 38.997 38.996 38.996-17.493 38.996-38.996-17.493-38.996-38.996-38.996z" fill="#f6ee86"/><path d="M483.073 234.307a7.5 7.5 0 01-7.5-7.5v-93.29c0-10.289-4.007-19.963-11.284-27.239l-14.493-14.493a7.5 7.5 0 0110.607-10.607l14.493 14.493c10.109 10.11 15.677 23.551 15.677 37.847v93.29a7.5 7.5 0 01-7.5 7.499z" fill="#f2d98d"/><path d="M436.577 280.803c-29.774 0-53.997-24.223-53.997-53.996s24.223-53.996 53.997-53.996c29.773 0 53.996 24.223 53.996 53.996s-24.223 53.996-53.996 53.996zm0-92.992c-21.503 0-38.997 17.493-38.997 38.996s17.494 38.996 38.997 38.996 38.996-17.493 38.996-38.996-17.493-38.996-38.996-38.996z" fill="#f6ee86"/></svg>
