<svg xmlns="http://www.w3.org/2000/svg" viewBox="0 0 512 512">
  <path d="M267.747 289.65l36.287 99.698c4.382 12.041 20.02 15.062 28.571 5.52l171.359-191.193-236.217 85.975z"
    fill="#ed718b" />
  <path opacity=".1" d="M267.747 289.65l31.761 87.261 150.967-113.556 53.49-59.681z" />
  <path
    d="M499.427 182.082l-301.766 16.077c-8.529.454-12.202 11.035-5.787 16.676l67.559 59.412a14.314 14.314 0 014.698 12.909l-13.565 88.938c-1.288 8.444 8.325 14.189 15.152 9.054l241.5-181.656c9.401-7.069 3.954-22.036-7.791-21.41z"
    fill="#fda75f" />
  <path
    d="M133.257 328.239c-15.365 0-30.673-3.348-45.027-10.005-19.551-9.069-33.874-24.886-41.485-43.403-41.144-22.384-58.408-73.36-38.427-116.436 10.076-21.721 28.007-38.218 50.489-46.451a7.501 7.501 0 015.159 14.086c-18.72 6.855-33.65 20.592-42.04 38.678-14.372 30.981-5.602 66.871 19.132 88.086-1.678-14.555.5-29.728 7.103-43.965 7.326-15.796 21.138-27.701 37.892-32.665 14.307-4.237 29.665-2.994 43.25 3.497 13.579 6.489 24.198 17.656 29.903 31.444 6.39 15.443 6.218 32.357-.483 47.622-6.705 15.273-19.022 26.843-34.681 32.579-15.214 5.569-31.685 4.884-46.382-1.933l-6.906-3.203a66.994 66.994 0 0023.788 18.454c22.328 10.355 47.353 11.399 70.467 2.935l44.436-16.274a7.502 7.502 0 015.159 14.086l-44.436 16.274c-12.018 4.403-24.484 6.594-36.911 6.594zm-74.494-64.166l25.209 11.694c11.063 5.13 23.46 5.647 34.912 1.454 11.787-4.316 21.057-13.025 26.104-24.522 5.044-11.49 5.171-24.224.358-35.857-8.804-21.276-32.98-32.828-55.033-26.293-12.626 3.739-23.029 12.704-28.544 24.594-7.404 15.961-8.005 33.368-3.006 48.93z"
    fill="#404b58" />
  <path
    d="M506.255 183.738l-247.363 90.033.54.475a14.314 14.314 0 014.698 12.909l-.109.712 247.364-90.033c1.769-5.216-.423-11.237-5.13-14.096z"
    opacity=".1" /></svg>
