<svg viewBox="-40 0 512 512" xmlns="http://www.w3.org/2000/svg">
  <path
    d="M432.25 448.063l-47.016-271.981c-4.066-19.797-21.492-34.004-41.699-34.004H89.527c-20.207 0-37.632 14.211-41.703 34.004L.813 448.062C-4.961 481.457 20.753 512 54.648 512h323.766c33.89 0 59.61-30.543 53.836-63.938zm0 0"
    fill="#e8afe5" />
  <path
    d="M42.02 448.063L89.03 176.082c4.07-19.797 21.492-34.004 41.703-34.004H89.527c-20.207 0-37.632 14.207-41.703 34.004L.813 448.062C-4.962 481.462 20.753 512 54.648 512h41.207c-33.894 0-59.609-30.54-53.835-63.938zm0 0"
    fill="#e894e4" />
  <g fill="#4b3f4e">
    <path
      d="M119.191 357.863a7.729 7.729 0 01-7.726-7.726V332.52c0-4.266 3.46-7.727 7.726-7.727s7.727 3.46 7.727 7.727v17.617a7.729 7.729 0 01-7.727 7.726zm0 0M313.871 357.863a7.726 7.726 0 01-7.726-7.726V332.52a7.726 7.726 0 1115.453 0v17.617a7.729 7.729 0 01-7.727 7.726zm0 0M216.531 367.266c-11.594 0-22.472-4.836-29.844-13.27a7.725 7.725 0 01.735-10.902 7.728 7.728 0 0110.902.73c4.438 5.078 11.074 7.989 18.207 7.989s13.77-2.91 18.207-7.989a7.728 7.728 0 0110.903-.73 7.728 7.728 0 01.73 10.902c-7.371 8.434-18.246 13.27-29.84 13.27zm0 0" />
  </g>
  <path
    d="M306.152 202.652c-10.609 0-19.207-8.597-19.207-19.203v-74.625c0-38.828-31.586-70.414-70.414-70.414-38.832 0-70.418 31.586-70.418 70.414v74.625c0 10.606-8.597 19.203-19.207 19.203-10.605 0-19.203-8.597-19.203-19.203v-74.625C107.707 48.816 156.523 0 216.531 0c60.004 0 108.824 48.816 108.824 108.824v74.625c0 10.606-8.597 19.203-19.203 19.203zm0 0"
    fill="#eceaec" />
</svg>
