<svg xmlns="http://www.w3.org/2000/svg" viewBox="0 0 512 512">
  <path
    d="M478.313 398.372H33.687C15.082 398.372 0 383.29 0 364.685V147.317c0-18.605 15.082-33.687 33.687-33.687h444.627c18.605 0 33.687 15.082 33.687 33.687v217.368c-.001 18.605-15.083 33.687-33.688 33.687z"
    fill="#445258" />
  <path
    d="M478.313 113.63h-18.112c18.605 0 33.687 15.082 33.687 33.687v217.368c0 18.605-15.082 33.687-33.687 33.687h18.112c18.605 0 33.687-15.082 33.687-33.687V147.317c0-18.605-15.082-33.687-33.687-33.687z"
    opacity=".1" />
  <path
    d="M487 199.018v-42.765c0-9.733-7.89-17.623-17.623-17.623H121.795v234.741h347.582c9.733 0 17.623-7.89 17.623-17.623v-42.765a7.8 7.8 0 00-4.78-7.192l-15.577-6.541a14.037 14.037 0 01-8.602-12.942v-60.616c0-5.652 3.39-10.753 8.602-12.942l15.577-6.541a7.798 7.798 0 004.78-7.191z"
    fill="#69bfe2" />
  <path
    d="M256 279.001c-40.192 2.741-89.974 13.81-134.205 26.421v67.95h347.582c9.733 0 17.623-7.89 17.623-17.623v-21.212c-41.404-5.388-153.898-60.793-231-55.536z"
    fill="#fdba6d" />
  <path
    d="M42.623 138.63C32.89 138.63 25 146.52 25 156.253v199.496c0 9.733 7.89 17.623 17.623 17.623h79.173V138.63H42.623z"
    fill="#445258" />
  <g fill="#fff">
    <path
      d="M42.623 138.63C32.89 138.63 25 146.52 25 156.253v199.496c0 9.733 7.89 17.623 17.623 17.623h79.173V138.63H42.623z"
      opacity=".05" />
    <circle cx="73.4" cy="256.001" r="20.34" />
  </g>
  <circle cx="328.04" cy="193.461" r="33.468" fill="#fdba6d" />
  <path
    d="M414.774 188.294c-4.021-12.666-15.871-21.845-29.868-21.845-16.363 0-29.789 12.544-31.205 28.538-7.043 1.307-12.379 7.472-12.379 14.893 0 8.372 6.787 15.159 15.159 15.159h55.395c10.21 0 18.487-8.277 18.487-18.487 0-9.223-6.756-16.868-15.589-18.258z"
    fill="#fff" />
  <path
    d="M414.774 188.294c-4.021-12.666-15.871-21.845-29.868-21.845-1.058 0-2.103.055-3.134.157 12.626 1.239 23.053 9.967 26.774 21.688 8.833 1.391 15.589 9.035 15.589 18.259 0 10.21-8.277 18.487-18.487 18.487h6.229c10.21 0 18.486-8.277 18.486-18.487 0-9.224-6.756-16.869-15.589-18.259zM338.116 289.147c-19.345-4.424-127.794 7.368-45.897 84.225h177.158c9.733 0 17.623-7.89 17.623-17.623v-21.212c-28.044-3.649-88.7-30.24-148.884-45.39z"
    opacity=".1" />
  <path
    d="M357.024 357.364H251.771c-4.143 0-7.5-3.358-7.5-7.5s3.357-7.5 7.5-7.5h105.253c4.143 0 7.5 3.358 7.5 7.5s-3.357 7.5-7.5 7.5z"
    fill="#fff" />
  <path
    d="M88.667 208.129H58.129a5.07 5.07 0 01-5.071-5.071V172.52a5.07 5.07 0 015.071-5.071h30.538a5.07 5.07 0 015.071 5.071v30.538a5.071 5.071 0 01-5.071 5.071z"
    fill="#fdba6d" />
  <path
    d="M92.162 337.916H54.633c-4.143 0-7.5-3.358-7.5-7.5s3.357-7.5 7.5-7.5h37.529c4.143 0 7.5 3.358 7.5 7.5s-3.357 7.5-7.5 7.5z"
    fill="#fff" />
</svg>
