<svg viewBox="0 0 512 512">
  <path
    d="M388.5 0h-280c-33.137 0-60 26.863-60 60v377c0 33.137 26.863 60 60 60h280c33.137 0 60-26.863 60-60V60c0-33.137-26.863-60-60-60z"
    fill="#ff8f71" />
  <path
    d="M218.5 437V60c0-33.137 26.863-60 60-60h-170c-33.137 0-60 26.863-60 60v377c0 33.137 26.863 60 60 60h170c-33.137 0-60-26.863-60-60z"
    fill="#ff6f4d" />
  <path
    d="M248.5 242c-23.041 0-44.343 7.427-61.657 20.009C160.58 281.095 143.5 312.05 143.5 347c0 34.949 17.08 65.905 43.343 84.99C204.157 444.573 225.459 452 248.5 452c57.99 0 105-47.01 105-105s-47.01-105-105-105z"
    fill="#676fb2" />
  <path d="M186.843 262.009C160.58 281.095 143.5 312.05 143.5 347c0 34.949 17.08 65.905 43.343 84.99l84.99-84.99z"
    fill="#4c5699" />
  <path
    d="M248.5 382a34.663 34.663 0 01-20.507-6.637C218.782 368.67 213.5 358.331 213.5 347c0-11.332 5.283-21.67 14.494-28.365A34.671 34.671 0 01248.5 312c19.299 0 35 15.701 35 35s-15.701 35-35 35z"
    fill="#d4d4ff" />
  <path
    d="M248.5 474.5C178.196 474.5 121 417.304 121 347s57.196-127.5 127.5-127.5S376 276.696 376 347s-57.196 127.5-127.5 127.5zm0-210c-45.49 0-82.5 37.01-82.5 82.5s37.01 82.5 82.5 82.5S331 392.49 331 347s-37.01-82.5-82.5-82.5z"
    fill="#d4d4ff" />
  <path
    d="M166 347c0-62.628 45.389-114.854 105-125.512a127.784 127.784 0 00-22.5-1.988C178.196 219.5 121 276.696 121 347s57.196 127.5 127.5 127.5c7.675 0 15.194-.682 22.5-1.988C211.389 461.854 166 409.628 166 347z"
    fill="#9ea2e3" />
  <path
    d="M248.5 45c-14.208 0-27.345 4.58-38.022 12.339-16.196 11.769-26.728 30.859-26.728 52.411s10.532 40.641 26.728 52.411c10.677 7.759 23.814 12.339 38.022 12.339 35.76 0 64.75-28.99 64.75-64.75 0-35.761-28.99-64.75-64.75-64.75z"
    fill="#676fb2" />
  <path d="M210.478 57.339c-16.196 11.769-26.728 30.859-26.728 52.411s10.532 40.641 26.728 52.411l52.411-52.411z"
    fill="#4c5699" />
  <path
    d="M248.5 131.333a21.379 21.379 0 01-12.646-4.093c-5.68-4.128-8.938-10.503-8.938-17.491s3.258-13.363 8.938-17.491a21.38 21.38 0 0112.645-4.092c11.901 0 21.583 9.682 21.583 21.583s-9.681 21.584-21.582 21.584z"
    fill="#d4d4ff" />
  <g>
    <path
      d="M248.5 189.5c-44.555 0-79.75-36.306-79.75-79.75 0-43.429 35.182-79.75 79.75-79.75 43.975 0 79.75 35.775 79.75 79.75s-35.775 79.75-79.75 79.75zm0-129.5c-27.848 0-49.75 22.705-49.75 49.75 0 27.033 21.891 49.75 49.75 49.75 27.433 0 49.75-22.317 49.75-49.75S275.933 60 248.5 60z"
      fill="#d4d4ff" />
    <path
      d="M198.814 112.271a50.193 50.193 0 010-5.044c1.177-37.316 28.284-68.894 64.661-75.817A79.825 79.825 0 00248.5 30c-44.568 0-79.75 36.321-79.75 79.75 0 43.444 35.195 79.75 79.75 79.75 5.119 0 10.121-.484 14.975-1.41-36.37-6.922-63.486-38.49-64.661-75.819z"
      fill="#9ea2e3" />
  </g>
  <g>
    <ellipse cx="170.435" cy="214.929" fill="#ffb5c0" rx="25.115" ry="20" />
    <ellipse cx="326.565" cy="214.929" fill="#ffdbe0" rx="25.115" ry="20" />
  </g>
  <g fill="#313d40">
    <path
      d="M186.051 182.804a7.499 7.499 0 00-7.5 7.5v12c0 4.143 3.357 7.5 7.5 7.5s7.5-3.357 7.5-7.5v-12a7.5 7.5 0 00-7.5-7.5zM310.948 182.804a7.499 7.499 0 00-7.5 7.5v12c0 4.143 3.357 7.5 7.5 7.5s7.5-3.357 7.5-7.5v-12c0-4.143-3.357-7.5-7.5-7.5z" />
  </g>
  <g fill="#4c5699">
    <circle cx="108.5" cy="60" r="15" />
    <circle cx="388.5" cy="60" r="15" />
    <circle cx="108.5" cy="437" r="15" />
    <circle cx="388.5" cy="437" r="15" />
  </g>
</svg>
