<svg xmlns="http://www.w3.org/2000/svg" viewBox="0 0 512 512">
  <path
    d="M178.944 360.375H84.811a82.925 82.925 0 00-42.281 11.589l-7.643 4.53C19.485 385.623 0 374.522 0 356.617c0-9.1 5.341-17.352 13.643-21.079l25.97-11.659a114.996 114.996 0 0147.1-10.087h92.231v46.583z"
    fill="#d674b6" />
  <path
    d="M178.944 359.844H84.811a82.925 82.925 0 00-42.281 11.589l-7.643 4.53C19.485 385.092 0 373.991 0 356.086c0-9.1 5.341-17.352 13.643-21.079l25.97-11.659a114.996 114.996 0 0147.1-10.087h92.231v46.583z"
    opacity=".1" />
  <path
    d="M86.713 313.791a115.012 115.012 0 00-47.1 10.087l-4.387 1.969 8.072 25.711a55.126 55.126 0 007.992 15.906 82.906 82.906 0 0133.521-7.09h94.133V313.79H86.713v.001z"
    opacity=".1" />
  <path
    d="M333.056 360.375h94.133a82.925 82.925 0 0142.281 11.589l7.643 4.53c15.402 9.129 34.887-1.972 34.887-19.877 0-9.1-5.341-17.352-13.643-21.079l-25.97-11.659a114.996 114.996 0 00-47.1-10.087h-92.231v46.583z"
    fill="#d674b6" />
  <path
    d="M333.056 359.844h94.133a82.925 82.925 0 0142.281 11.589l7.643 4.53c15.402 9.129 34.887-1.972 34.887-19.877 0-9.1-5.341-17.352-13.643-21.079l-25.97-11.659a114.996 114.996 0 00-47.1-10.087h-92.231v46.583z"
    opacity=".1" />
  <path
    d="M425.287 313.791c16.236 0 32.288 3.438 47.1 10.087l4.387 1.969-8.072 25.711a55.126 55.126 0 01-7.992 15.906 82.906 82.906 0 00-33.521-7.09h-94.133V313.79h92.231v.001z"
    opacity=".1" />
  <path fill="#d674b6" d="M211.2 248.89h89.61v46.01H211.2z" />
  <path opacity=".1" d="M211.2 248.35h89.61v46.01H211.2z" />
  <path
    d="M109.29 379.758c-24.07 0-45.087-15.429-52.297-38.395l-14.177-45.157c-5.026-16.009-2.099-33.643 7.832-47.17 9.931-13.528 25.879-21.603 42.66-21.603h89.876c16.781 0 32.729 8.076 42.66 21.603 9.931 13.527 12.858 31.161 7.831 47.171L219.5 341.362c-7.211 22.966-28.228 38.396-52.299 38.396H109.29z"
    fill="#d674b6" />
  <path
    d="M167.201 352.369h-57.91a27.425 27.425 0 01-26.166-19.21l-14.177-45.156c-5.164-16.448 7.121-33.18 24.36-33.18h89.876c17.239 0 29.523 16.732 24.36 33.18l-14.177 45.156a27.427 27.427 0 01-26.166 19.21z"
    fill="#445258" />
  <path
    d="M402.71 379.758c24.07 0 45.087-15.429 52.297-38.395l14.177-45.157c5.026-16.009 2.099-33.643-7.832-47.17-9.931-13.528-25.879-21.603-42.66-21.603h-89.876c-16.781 0-32.729 8.076-42.66 21.603-9.931 13.527-12.858 31.161-7.831 47.171l14.175 45.155c7.211 22.966 28.228 38.396 52.299 38.396h57.911z"
    fill="#d674b6" />
  <path
    d="M344.799 352.369h57.91a27.425 27.425 0 0026.166-19.21l14.177-45.156c5.164-16.448-7.121-33.18-24.36-33.18h-89.876c-17.239 0-29.523 16.732-24.36 33.18l14.177 45.156a27.427 27.427 0 0026.166 19.21z"
    fill="#445258" />
  <g fill="#97d68f">
    <path
      d="M491.602 253.398c-5.913-3.239-14.565-7.274-24.832-9.998a10.24 10.24 0 01-7.286-7.286c-2.724-10.267-6.759-18.919-9.998-24.832-2.275-4.153-8.211-4.153-10.486 0-3.239 5.913-7.274 14.564-9.998 24.832a10.24 10.24 0 01-7.286 7.286c-10.267 2.724-18.919 6.759-24.832 9.998-4.153 2.275-4.153 8.21 0 10.486 5.913 3.239 14.564 7.274 24.832 9.998a10.238 10.238 0 017.286 7.286c2.724 10.267 6.759 18.919 9.998 24.832 2.275 4.153 8.211 4.153 10.486 0 3.239-5.913 7.274-14.565 9.998-24.832a10.24 10.24 0 017.286-7.286c10.267-2.724 18.919-6.759 24.832-9.998 4.153-2.276 4.153-8.211 0-10.486zM411.283 161.665c4.868-8.381 7.844-16.567 9.566-22.465 1.206-4.132-2.628-7.938-6.76-6.73-5.897 1.723-14.072 4.698-22.442 9.559a9.32 9.32 0 01-9.364 0c-8.373-4.863-16.551-7.839-22.448-9.561-4.131-1.206-7.956 2.618-6.749 6.749 1.722 5.897 4.698 14.075 9.561 22.448a9.32 9.32 0 010 9.364c-4.863 8.373-7.839 16.551-9.561 22.448-1.207 4.131 2.618 7.956 6.749 6.749 5.897-1.722 14.075-4.698 22.448-9.561a9.32 9.32 0 019.364 0c8.371 4.862 16.546 7.837 22.442 9.56 4.132 1.207 7.966-2.598 6.76-6.73-1.722-5.898-4.698-14.083-9.566-22.465a9.321 9.321 0 010-9.365z" />
  </g>
</svg>
