<svg viewBox="0 0 512 512" xmlns="http://www.w3.org/2000/svg"><path d="M416.053 281.278a7.5 7.5 0 01-7.5-7.5v-83.126a7.5 7.5 0 0115 0v83.126a7.5 7.5 0 01-7.5 7.5z" fill="#a7a7a7"/><path d="M378.975 288.175l31.113 31.113a8.433 8.433 0 0011.927 0l31.113-31.113c5.313-5.313 1.55-14.398-5.964-14.398h-62.227c-7.512.001-11.275 9.085-5.962 14.398z" fill="#59636f"/><path d="M278.513 108.594H165.244a7.5 7.5 0 010-15h113.269a7.5 7.5 0 010 15z" fill="#a7a7a7"/><path d="M292.91 138.171l31.113-31.113a8.433 8.433 0 000-11.927L292.91 64.017c-5.313-5.313-14.398-1.55-14.398 5.964v62.227c.001 7.513 9.085 11.276 14.398 5.963z" fill="#59636f"/><path d="M99.206 335.897a7.5 7.5 0 01-7.5-7.5v-99.341a7.5 7.5 0 0115 0v99.341a7.5 7.5 0 01-7.5 7.5z" fill="#a7a7a7"/><path d="M136.284 214.658l-31.113-31.113a8.433 8.433 0 00-11.927 0L62.13 214.658c-5.313 5.313-1.55 14.398 5.964 14.398h62.227c7.513 0 11.276-9.085 5.963-14.398z" fill="#59636f"/><circle cx="99.207" cy="417.939" fill="#f6ee86" transform="rotate(-45 99.137 417.99)" r="89.542"/><path d="M177.656 461.132C51.172 520.628 15.643 400.311 41.493 349.483 22.03 365.908 9.664 390.478 9.664 417.939c0 49.453 40.089 89.542 89.542 89.542 33.791.001 63.205-18.718 78.45-46.349z" fill="#f2d98d"/><circle cx="99.207" cy="417.939" fill="#e7889d" r="46.046"/><path d="M480.091 11.535H352.014c-14.094 0-25.52 11.426-25.52 25.52v128.078c0 14.094 11.426 25.519 25.52 25.519h128.078c14.094 0 25.52-11.425 25.52-25.519V37.055c-.001-14.094-11.426-25.52-25.521-25.52z" fill="#88d37f"/><path d="M372.103 11.535h-20.09c-14.094 0-25.52 11.426-25.52 25.52v128.078c0 14.094 11.425 25.519 25.52 25.519h119.88c-103.935-21.958-107.076-134.351-99.79-179.117z" fill="#5ec682"/><path d="M447.288 57.411h-62.47c-6.874 0-12.447 5.573-12.447 12.447v62.47c0 6.874 5.573 12.447 12.447 12.447h62.47c6.874 0 12.447-5.573 12.447-12.447v-62.47c0-6.874-5.573-12.447-12.447-12.447z" fill="#f6ee86"/><path d="M384.817 144.776h13.678c-14.708-20.175-22.501-44.059-26.126-66.844v54.396c.001 6.875 5.574 12.448 12.448 12.448z" fill="#f2d98d"/><path d="M83.787 13.421L2.412 154.367c-6.853 11.87 1.713 26.707 15.419 26.707h162.751c13.706 0 22.273-14.837 15.419-26.707L114.626 13.421c-6.853-11.87-23.986-11.87-30.839 0z" fill="#a2ddfd"/><path d="M59.418 55.629L2.412 154.367c-6.853 11.87 1.713 26.707 15.419 26.707h97.05C46.351 162.569 45.188 99.64 59.418 55.629z" fill="#7acefa"/><path d="M93.77 80.019l-28.691 49.695c-2.416 4.185.604 9.416 5.437 9.416h57.382c4.832 0 7.853-5.231 5.436-9.416l-28.691-49.695c-2.416-4.185-8.457-4.185-10.873 0z" fill="#b0ade2"/><path d="M396.692 328.05l-63.007 45.777a32.938 32.938 0 00-11.965 36.826l24.067 74.069a32.937 32.937 0 0031.326 22.759h77.881a32.938 32.938 0 0031.326-22.759l24.067-74.069a32.94 32.94 0 00-11.965-36.826l-63.007-45.777a32.94 32.94 0 00-38.723 0z" fill="#e7889d"/><path d="M454.993 507.482c10.505 0 20.119-4.992 26.226-13.035-108.048-25.812-111.138-130.824-91.859-161.07l-55.674 40.45a32.938 32.938 0 00-11.965 36.826l24.067 74.069a32.937 32.937 0 0031.326 22.759h77.879z" fill="#e16e7e"/><path d="M406.724 376.186l-30.359 22.057a15.87 15.87 0 00-5.765 17.744l11.596 35.689a15.87 15.87 0 0015.094 10.966h37.526a15.87 15.87 0 0015.094-10.966l11.596-35.689a15.87 15.87 0 00-5.765-17.744l-30.359-22.057a15.87 15.87 0 00-18.658 0z" fill="#f6ee86"/><path d="M381.985 394.16l-5.62 4.083a15.87 15.87 0 00-5.765 17.744l11.596 35.689a15.87 15.87 0 0015.094 10.966h21.303c-21.739-19.967-32.684-45.142-36.608-68.482z" fill="#f2d98d"/></svg>
