<?xml version="1.0" standalone="no"?>
<!DOCTYPE svg PUBLIC "-//W3C//DTD SVG 20010904//EN"
 "http://www.w3.org/TR/2001/REC-SVG-20010904/DTD/svg10.dtd">
<svg version="1.0" xmlns="http://www.w3.org/2000/svg"
 width="700.000000pt" height="700.000000pt" viewBox="0 0 700.000000 700.000000"
 preserveAspectRatio="xMidYMid meet">
<metadata>
Created by potrace 1.11, written by Peter Selinger 2001-2013
</metadata>
<g transform="translate(0.000000,700.000000) scale(0.100000,-0.100000)"
fill="#000000" stroke="none">
<path d="M1503 6511 c-151 -39 -272 -169 -307 -331 -4 -20 -20 -31 -75 -53
-109 -45 -376 -209 -389 -239 -2 -5 -8 -8 -12 -8 -23 0 -220 -194 -302 -296
-214 -268 -339 -559 -403 -939 -11 -63 -13 -363 -4 -440 5 -38 11 -88 14 -111
7 -57 61 -276 86 -349 138 -406 368 -813 693 -1230 60 -77 160 -199 176 -215
3 -3 39 -43 80 -90 508 -576 1196 -1142 1869 -1537 282 -166 376 -198 581
-197 196 1 280 28 520 167 230 134 479 299 730 486 63 47 117 88 120 91 3 3
23 18 45 35 53 39 329 271 396 332 246 225 457 437 624 628 39 44 72 82 75 85
3 3 24 27 45 55 22 27 48 59 59 70 83 90 386 524 461 660 15 28 31 55 35 60 4
6 33 60 63 120 181 360 267 623 306 940 9 70 7 378 -2 425 -3 14 -8 48 -12 75
-26 198 -120 456 -239 659 -145 246 -370 481 -604 630 -77 49 -236 134 -287
154 -103 40 -148 55 -210 73 -38 11 -81 22 -95 25 -14 3 -41 9 -60 14 -19 4
-60 11 -90 15 -30 4 -64 9 -75 11 -39 8 -325 11 -382 3 -32 -4 -78 -10 -103
-13 -203 -24 -446 -107 -648 -220 -248 -139 -456 -325 -620 -555 l-64 -91 -46
68 c-25 37 -48 69 -51 72 -4 3 -26 30 -51 60 -133 166 -404 386 -572 465 -26
12 -38 24 -39 39 -6 148 -92 291 -217 359 -188 102 -424 50 -543 -121 l-16
-23 -15 23 c-89 134 -276 201 -445 159z"/>
</g>
</svg>
