<svg viewBox="0 0 512 512" version="1.1" xmlns="http://www.w3.org/2000/svg" xmlns:xlink="http://www.w3.org/1999/xlink" xml:space="preserve" xmlns:serif="http://www.serif.com/" style="fill-rule:evenodd;clip-rule:evenodd;stroke-linejoin:round;stroke-miterlimit:2;">
    <path d="M478.609,512L33.391,512C27.244,512 22.261,507.017 22.261,500.87L22.261,66.783C22.261,42.195 42.194,22.261 66.783,22.261L445.218,22.261C469.806,22.261 489.74,42.194 489.74,66.783L489.74,500.87C489.739,507.017 484.756,512 478.609,512Z" style="fill:rgb(247,202,202);fill-rule:nonzero;"/>
    <rect x="22.261" y="445.217" width="467.478" height="66.783" style="fill:rgb(176,135,155);fill-rule:nonzero;"/>
    <path d="M219.826,381.217L219.826,503.652C219.826,508.262 216.088,512 211.478,512C206.868,512 203.13,508.262 203.13,503.652L203.13,381.217C203.13,376.607 206.868,372.869 211.478,372.869C216.088,372.87 219.826,376.607 219.826,381.217ZM89.043,317.217C84.433,317.217 80.695,320.955 80.695,325.565L80.695,503.652C80.695,508.262 84.433,512 89.043,512C93.653,512 97.391,508.262 97.391,503.652L97.391,325.565C97.391,320.955 93.654,317.217 89.043,317.217ZM19.478,417.391C14.868,417.391 11.13,421.129 11.13,425.739L11.13,503.652C11.13,508.262 14.868,512 19.478,512C24.088,512 27.826,508.262 27.826,503.652L27.826,425.739C27.826,421.129 24.088,417.391 19.478,417.391ZM125.217,439.652C120.607,439.652 116.869,443.39 116.869,448L116.869,503.652C116.869,508.262 120.607,512 125.217,512C129.827,512 133.565,508.262 133.565,503.652L133.565,448C133.565,443.39 129.828,439.652 125.217,439.652ZM311.652,261.565C307.042,261.565 303.304,265.303 303.304,269.913L303.304,503.652C303.304,508.262 307.042,512 311.652,512C316.262,512 320,508.262 320,503.652L320,269.913C320,265.303 316.262,261.565 311.652,261.565ZM445.217,395.13C440.607,395.13 436.869,398.868 436.869,403.478L436.869,503.652C436.869,508.262 440.607,512 445.217,512C449.827,512 453.565,508.262 453.565,503.652L453.565,403.478C453.565,398.868 449.828,395.13 445.217,395.13ZM492.522,439.652C487.912,439.652 484.174,443.39 484.174,448L484.174,503.652C484.174,508.262 487.912,512 492.522,512C497.132,512 500.87,508.262 500.87,503.652L500.87,448C500.87,443.39 497.132,439.652 492.522,439.652ZM358.957,417.391C354.347,417.391 350.609,421.129 350.609,425.739L350.609,503.652C350.609,508.262 354.347,512 358.957,512C363.567,512 367.305,508.262 367.305,503.652L367.305,425.739C367.304,421.129 363.567,417.391 358.957,417.391Z" style="fill:rgb(100,191,164);fill-rule:nonzero;"/>
    <path d="M512,503.652C512,508.262 508.262,512 503.652,512L8.348,512C3.738,512 0,508.262 0,503.652C0,499.042 3.738,495.304 8.348,495.304L503.652,495.304C508.262,495.304 512,499.042 512,503.652Z" style="fill:rgb(133,103,123);fill-rule:nonzero;"/>
    <path d="M512,345.043C512,381.926 482.1,411.826 445.217,411.826C408.334,411.826 378.434,381.926 378.434,345.043C378.434,308.16 408.334,278.26 445.217,278.26C482.1,278.26 512,308.161 512,345.043Z" style="fill:rgb(147,169,209);fill-rule:nonzero;"/>
    <path d="M400.696,189.217C400.696,238.395 360.83,278.26 311.653,278.26C262.476,278.26 222.61,238.394 222.61,189.217C222.61,140.04 262.476,100.174 311.653,100.174C360.83,100.174 400.696,140.04 400.696,189.217Z" style="fill:rgb(234,218,79);fill-rule:nonzero;"/>
    <path d="M345.043,189.217C345.043,207.659 330.094,222.608 311.652,222.608C293.21,222.608 278.261,207.659 278.261,189.217C278.261,170.775 293.21,155.826 311.652,155.826C330.094,155.826 345.043,170.775 345.043,189.217ZM211.478,322.783C193.036,322.783 178.087,337.732 178.087,356.174C178.087,374.616 193.036,389.565 211.478,389.565C229.92,389.565 244.869,374.616 244.869,356.174C244.869,337.732 229.92,322.783 211.478,322.783ZM211.478,89.043C223.773,89.043 233.739,79.077 233.739,66.782C233.739,54.487 223.773,44.521 211.478,44.521C199.183,44.521 189.217,54.487 189.217,66.782C189.217,79.077 199.184,89.043 211.478,89.043Z" style="fill:rgb(190,156,193);fill-rule:nonzero;"/>
    <path d="M0,111.304C0,99.01 9.966,89.043 22.261,89.043C34.556,89.043 44.522,99.009 44.522,111.304C44.522,123.599 34.556,133.565 22.261,133.565C9.966,133.565 0,123.599 0,111.304ZM105.739,77.913C127.254,77.913 144.696,60.472 144.696,38.956C144.696,17.44 127.254,0 105.739,0C84.224,0 66.783,17.441 66.783,38.957C66.783,60.473 84.224,77.913 105.739,77.913ZM89.043,155.826C39.866,155.826 0,195.692 0,244.87C0,294.048 39.866,333.913 89.043,333.913C138.22,333.913 178.086,294.047 178.086,244.87C178.086,195.693 138.221,155.826 89.043,155.826Z" style="fill:rgb(236,128,158);fill-rule:nonzero;"/>
    <path d="M122.435,244.87C122.435,263.312 107.486,278.261 89.044,278.261C70.602,278.261 55.653,263.312 55.653,244.87C55.653,226.428 70.602,211.479 89.044,211.479C107.486,211.479 122.435,226.428 122.435,244.87Z" style="fill:rgb(210,56,108);fill-rule:nonzero;"/>
    <path d="M175.304,130.783L175.304,131.896C175.304,136.506 171.566,140.244 166.956,140.244C162.346,140.244 158.608,136.506 158.608,131.896L158.608,130.783C158.608,126.173 162.346,122.435 166.956,122.435C171.566,122.435 175.304,126.172 175.304,130.783ZM267.13,0C262.52,0 258.782,3.738 258.782,8.348L258.782,9.461C258.782,14.071 262.52,17.809 267.13,17.809C271.74,17.809 275.478,14.071 275.478,9.461L275.478,8.348C275.478,3.738 271.741,0 267.13,0ZM345.043,33.391C340.433,33.391 336.695,37.129 336.695,41.739L336.695,42.852C336.695,47.462 340.433,51.2 345.043,51.2C349.653,51.2 353.391,47.462 353.391,42.852L353.391,41.739C353.391,37.129 349.654,33.391 345.043,33.391Z" style="fill:rgb(234,218,79);fill-rule:nonzero;"/>
    <path d="M498.087,257.67L498.087,258.783C498.087,263.393 494.349,267.131 489.739,267.131C485.129,267.131 481.391,263.393 481.391,258.783L481.391,257.67C481.391,253.06 485.129,249.322 489.739,249.322C494.349,249.322 498.087,253.059 498.087,257.67ZM445.217,221.496C440.607,221.496 436.869,225.234 436.869,229.844L436.869,230.957C436.869,235.567 440.607,239.305 445.217,239.305C449.827,239.305 453.565,235.567 453.565,230.957L453.565,229.844C453.565,225.233 449.828,221.496 445.217,221.496ZM489.739,143.583C485.129,143.583 481.391,147.321 481.391,151.931L481.391,153.044C481.391,157.654 485.129,161.392 489.739,161.392C494.349,161.392 498.087,157.654 498.087,153.044L498.087,151.931C498.087,147.32 494.349,143.583 489.739,143.583ZM456.348,77.913C451.738,77.913 448,81.651 448,86.261L448,87.374C448,91.984 451.738,95.722 456.348,95.722C460.958,95.722 464.696,91.984 464.696,87.374L464.696,86.261C464.696,81.651 460.958,77.913 456.348,77.913ZM486.957,9.461L486.957,8.348C486.957,3.738 483.219,0 478.609,0C473.999,0 470.261,3.738 470.261,8.348L470.261,9.461C470.261,14.071 473.999,17.809 478.609,17.809C483.219,17.809 486.957,14.071 486.957,9.461Z" style="fill:rgb(176,135,155);fill-rule:nonzero;"/>
    <path d="M419.896,338.365L419.896,339.478C419.896,344.088 416.158,347.826 411.548,347.826C406.938,347.826 403.2,344.088 403.2,339.478L403.2,338.365C403.2,333.755 406.938,330.017 411.548,330.017C416.158,330.017 419.896,333.755 419.896,338.365ZM411.548,357.287C406.938,357.287 403.2,361.025 403.2,365.635L403.2,366.748C403.2,371.358 406.938,375.096 411.548,375.096C416.158,375.096 419.896,371.358 419.896,366.748L419.896,365.635C419.896,361.025 416.158,357.287 411.548,357.287ZM438.261,339.478C433.651,339.478 429.913,343.216 429.913,347.826L429.913,348.939C429.913,353.549 433.651,357.287 438.261,357.287C442.871,357.287 446.609,353.549 446.609,348.939L446.609,347.826C446.609,343.216 442.871,339.478 438.261,339.478ZM438.261,303.304C433.651,303.304 429.913,307.042 429.913,311.652L429.913,312.765C429.913,317.375 433.651,321.113 438.261,321.113C442.871,321.113 446.609,317.375 446.609,312.765L446.609,311.652C446.609,307.042 442.871,303.304 438.261,303.304ZM438.261,370.643C433.651,370.643 429.913,374.381 429.913,378.991L429.913,380.104C429.913,384.714 433.651,388.452 438.261,388.452C442.871,388.452 446.609,384.714 446.609,380.104L446.609,378.991C446.609,374.381 442.871,370.643 438.261,370.643Z" style="fill:rgb(181,101,167);fill-rule:nonzero;"/>
</svg>
