<?xml version="1.0" encoding="UTF-8" standalone="no"?>
<!DOCTYPE svg PUBLIC "-//W3C//DTD SVG 1.1//EN" "http://www.w3.org/Graphics/SVG/1.1/DTD/svg11.dtd">
<svg width="100%" height="100%" viewBox="0 0 512 512" version="1.1" xmlns="http://www.w3.org/2000/svg" xmlns:xlink="http://www.w3.org/1999/xlink" xml:space="preserve" xmlns:serif="http://www.serif.com/" style="fill-rule:evenodd;clip-rule:evenodd;stroke-linejoin:round;stroke-miterlimit:2;">
    <path d="M445.217,489.739L66.783,489.739C42.195,489.739 22.261,469.805 22.261,445.217L22.261,66.783C22.261,42.195 42.194,22.261 66.783,22.261L445.218,22.261C469.806,22.261 489.74,42.194 489.74,66.783L489.74,445.218C489.739,469.806 469.806,489.739 445.217,489.739Z" style="fill:rgb(244,238,232);fill-rule:nonzero;"/>
    <path d="M411.826,94.609C411.826,146.86 369.468,189.218 317.217,189.218C264.966,189.218 222.608,146.86 222.608,94.609C222.608,42.358 264.967,0 317.217,0C369.467,0 411.826,42.358 411.826,94.609Z" style="fill:rgb(234,218,79);fill-rule:nonzero;"/>
    <path d="M367.304,94.609C367.304,122.271 344.88,144.696 317.217,144.696C289.554,144.696 267.13,122.272 267.13,94.609C267.13,66.946 289.554,44.522 317.217,44.522C344.88,44.522 367.304,66.946 367.304,94.609Z" style="fill:rgb(247,202,202);fill-rule:nonzero;"/>
    <path d="M512,50.087L512,467.478C512,492.066 492.066,512 467.478,512L44.522,512C19.933,512 0,492.066 0,467.478L0,50.087C0,22.424 22.424,0 50.087,0C77.749,0 100.174,22.424 100.174,50.087L100.174,63.14C109.357,51.787 123.392,44.522 139.131,44.522C166.793,44.522 189.218,66.946 189.218,94.609L189.218,155.826C189.218,186.562 214.135,211.478 244.87,211.478L322.783,211.478L322.783,116.87C322.783,89.208 345.207,66.783 372.87,66.783C388.608,66.783 402.644,74.048 411.827,85.401L411.827,50.087C411.826,22.424 434.251,0 461.913,0C489.576,0 512,22.424 512,50.087Z" style="fill:rgb(147,169,209);fill-rule:nonzero;"/>
    <path d="M512,489.739C512,502.034 502.034,512 489.739,512L44.522,512C19.933,512 0,492.066 0,467.478L0,356.174L411.826,356.174L478.609,256L512,256L512,489.739Z" style="fill:rgb(219,203,156);fill-rule:nonzero;"/>
    <path d="M456.348,244.87L456.348,267.131C456.348,304.014 426.448,333.914 389.565,333.914L0,333.914L0,178.087L389.565,178.087C426.448,178.087 456.348,207.987 456.348,244.87Z" style="fill:rgb(190,156,193);fill-rule:nonzero;"/>
    <path d="M322.783,389.565L70.122,389.565L15.523,450.23C10.064,456.297 0,452.434 0,444.274L0,194.783C0,167.121 22.424,144.696 50.087,144.696C77.749,144.696 100.174,167.12 100.174,194.783L100.174,230.097C109.357,218.744 123.392,211.479 139.131,211.479C166.793,211.479 189.218,233.903 189.218,261.566L189.218,267.131L267.131,267.131C297.867,267.131 322.783,292.048 322.783,322.783L322.783,389.565Z" style="fill:rgb(100,191,164);fill-rule:nonzero;"/>
    <path d="M389.565,144.696C457.184,144.696 512,199.512 512,267.13C512,334.748 457.184,389.565 389.565,389.565L122.435,389.565C91.699,389.565 66.783,414.482 66.783,445.217L66.783,512L44.522,512C19.933,512 0,492.066 0,467.478L0,445.217C0,377.599 54.816,322.782 122.435,322.782L389.565,322.782C420.301,322.782 445.217,297.865 445.217,267.13C445.217,236.394 420.3,211.478 389.565,211.478L244.87,211.478C214.134,211.478 189.218,186.561 189.218,155.826L189.218,144.696L389.565,144.696Z" style="fill:rgb(164,158,158);fill-rule:nonzero;"/>
    <path d="M322.783,439.652C322.783,448.872 315.308,456.348 306.087,456.348L283.826,456.348C274.606,456.348 267.13,448.873 267.13,439.652C267.13,430.432 274.605,422.956 283.826,422.956L306.087,422.956C315.307,422.957 322.783,430.432 322.783,439.652ZM406.261,445.217L384,445.217C374.78,445.217 367.304,452.692 367.304,461.913C367.304,471.133 374.779,478.609 384,478.609L406.261,478.609C415.481,478.609 422.957,471.134 422.957,461.913C422.957,452.693 415.481,445.217 406.261,445.217ZM178.087,378.435L122.435,378.435C91.699,378.435 66.783,403.352 66.783,434.087L66.783,512L211.479,512C223.774,512 233.74,502.034 233.74,489.739L233.74,434.087C233.739,403.351 208.823,378.435 178.087,378.435Z" style="fill:rgb(181,101,167);fill-rule:nonzero;"/>
    <path d="M467.478,395.13C467.478,404.35 460.003,411.826 450.782,411.826L384,411.826C374.78,411.826 367.304,404.351 367.304,395.13C367.304,385.91 374.779,378.434 384,378.434L450.783,378.434C460.003,378.435 467.478,385.91 467.478,395.13ZM100.174,434.087L77.913,434.087C53.325,434.087 33.391,454.02 33.391,478.609L33.391,489.739C33.391,502.034 43.357,512 55.652,512L122.435,512C134.73,512 144.696,502.034 144.696,489.739L144.696,478.609C144.696,454.02 124.762,434.087 100.174,434.087Z" style="fill:rgb(133,103,123);fill-rule:nonzero;"/>
</svg>
