<?xml version="1.0" encoding="UTF-8" standalone="no"?>
<!DOCTYPE svg PUBLIC "-//W3C//DTD SVG 1.1//EN" "http://www.w3.org/Graphics/SVG/1.1/DTD/svg11.dtd">
<svg width="100%" height="100%" viewBox="0 0 512 512" version="1.1" xmlns="http://www.w3.org/2000/svg" xmlns:xlink="http://www.w3.org/1999/xlink" xml:space="preserve" xmlns:serif="http://www.serif.com/" style="fill-rule:evenodd;clip-rule:evenodd;stroke-linejoin:round;stroke-miterlimit:2;">
    <path d="M489.739,66.783L489.739,445.218C489.739,469.806 469.805,489.74 445.217,489.74L66.783,489.74C42.195,489.74 22.261,469.806 22.261,445.218L22.261,66.783C22.261,42.195 42.194,22.261 66.783,22.261L445.218,22.261C469.806,22.261 489.739,42.194 489.739,66.783Z" style="fill:rgb(247,202,202);fill-rule:nonzero;"/>
    <path d="M442.435,256C442.435,260.61 438.697,264.348 434.087,264.348C423.347,264.348 414.609,273.086 414.609,283.826C414.609,288.436 410.871,292.174 406.261,292.174C401.651,292.174 397.913,288.436 397.913,283.826C397.913,273.086 389.174,264.348 378.435,264.348C373.825,264.348 370.087,260.61 370.087,256C370.087,251.39 373.825,247.652 378.435,247.652C389.611,247.652 399.621,252.748 406.261,260.736C412.901,252.748 422.911,247.652 434.087,247.652C438.697,247.652 442.435,251.39 442.435,256Z" style="fill:rgb(97,95,95);fill-rule:nonzero;"/>
    <path d="M0,356.174L489.739,356.174C502.034,356.174 512,366.14 512,378.435L512,489.739C512,502.034 502.034,512 489.739,512L22.261,512C9.966,512 0,502.034 0,489.739L0,356.174Z" style="fill:rgb(147,169,209);fill-rule:nonzero;"/>
    <path d="M283.826,403.478C283.826,398.868 287.564,395.13 292.174,395.13L392.348,395.13C396.958,395.13 400.696,398.868 400.696,403.478C400.696,408.088 396.958,411.826 392.348,411.826L292.174,411.826C287.564,411.826 283.826,408.088 283.826,403.478ZM481.391,395.13L436.87,395.13C432.26,395.13 428.522,398.868 428.522,403.478C428.522,408.088 432.26,411.826 436.87,411.826L481.392,411.826C486.002,411.826 489.74,408.088 489.74,403.478C489.74,398.868 486.001,395.13 481.391,395.13ZM189.217,475.826L64.336,475.826C59.726,475.826 55.988,479.564 55.988,484.174C55.988,488.784 59.726,492.522 64.336,492.522L189.217,492.522C193.827,492.522 197.565,488.784 197.565,484.174C197.565,479.564 193.828,475.826 189.217,475.826ZM244.87,475.826L222.609,475.826C217.999,475.826 214.261,479.564 214.261,484.174C214.261,488.784 217.999,492.522 222.609,492.522L244.87,492.522C249.48,492.522 253.218,488.784 253.218,484.174C253.218,479.564 249.48,475.826 244.87,475.826ZM333.913,434.087L111.304,434.087C106.694,434.087 102.956,437.825 102.956,442.435C102.956,447.045 106.694,450.783 111.304,450.783L333.913,450.783C338.523,450.783 342.261,447.045 342.261,442.435C342.261,437.825 338.523,434.087 333.913,434.087ZM456.348,434.087L378.435,434.087C373.825,434.087 370.087,437.825 370.087,442.435C370.087,447.045 373.825,450.783 378.435,450.783L456.348,450.783C460.958,450.783 464.696,447.045 464.696,442.435C464.696,437.825 460.958,434.087 456.348,434.087Z" style="fill:rgb(145,155,201);fill-rule:nonzero;"/>
    <path d="M417.391,0C469.642,0 512,42.358 512,94.609C512,146.86 469.642,189.218 417.391,189.218C365.14,189.218 322.782,146.86 322.782,94.609C322.782,42.358 365.141,0 417.391,0Z" style="fill:rgb(234,218,79);fill-rule:nonzero;"/>
    <path d="M417.391,44.522C445.053,44.522 467.478,66.946 467.478,94.609C467.478,122.272 445.054,144.696 417.391,144.696C389.729,144.696 367.304,122.272 367.304,94.609C367.304,66.946 389.729,44.522 417.391,44.522Z" style="fill:rgb(236,128,158);fill-rule:nonzero;"/>
    <path d="M100.174,22.261L145.253,22.261C147.832,9.56 159.059,0 172.522,0L328.348,0C343.716,0 356.174,12.458 356.174,27.826C356.174,43.194 343.716,55.652 328.348,55.652L272.696,55.652C272.696,74.094 257.747,89.043 239.305,89.043L100.175,89.043C81.733,89.043 66.784,74.094 66.784,55.652C66.783,37.21 81.732,22.261 100.174,22.261Z" style="fill:rgb(176,135,155);fill-rule:nonzero;"/>
    <path d="M197.137,58.292L179.951,109.854C175.778,122.372 164.109,130.784 150.913,130.784L107.294,130.784C100.685,130.784 94.947,135.488 93.651,141.968L76.9,221.818C76.074,225.753 72.605,228.454 68.738,228.454C68.169,228.454 67.594,228.396 67.016,228.275C62.504,227.328 59.613,222.903 60.559,218.391L77.294,138.617C80.13,124.436 92.753,114.088 107.293,114.088L150.912,114.088C156.91,114.088 162.214,110.265 164.11,104.575L181.296,53.013C182.754,48.64 187.482,46.275 191.855,47.733C196.231,49.191 198.595,53.918 197.137,58.292Z" style="fill:rgb(133,103,123);fill-rule:nonzero;"/>
    <path d="M238.748,89.043L100.174,89.043C81.732,89.043 66.783,74.094 66.783,55.652C66.783,37.21 81.732,22.261 100.174,22.261L238.748,22.261C257.19,22.261 272.139,37.21 272.139,55.652C272.139,74.094 257.19,89.043 238.748,89.043Z" style="fill:rgb(100,191,164);fill-rule:nonzero;"/>
    <path d="M256,358.914L256,378.435C256,390.73 246.034,400.696 233.739,400.696L22.261,400.696C9.966,400.696 0,390.729 0,378.435L0,200.348C0,188.053 9.966,178.087 22.261,178.087L149.575,178.087C159.789,178.087 168.694,185.039 171.171,194.948L173.327,203.571C176.124,214.759 186.177,222.609 197.71,222.609L205.227,222.609C215.441,222.609 224.346,229.561 226.823,239.47L255.335,353.515C255.776,355.281 256,357.094 256,358.914Z" style="fill:rgb(181,101,167);fill-rule:nonzero;"/>
    <path d="M150.817,256L150.817,367.304C150.817,371.914 147.079,375.652 142.469,375.652C137.859,375.652 134.121,371.914 134.121,367.304L134.121,256C134.121,251.39 137.859,247.652 142.469,247.652C147.079,247.652 150.817,251.39 150.817,256ZM55.652,281.043C51.042,281.043 47.304,284.781 47.304,289.391L47.304,400.695L64,400.695L64,289.391C64,284.781 60.262,281.043 55.652,281.043Z" style="fill:rgb(164,158,158);fill-rule:nonzero;"/>
    <path d="M331.214,356.507L338.129,384.167C341.642,398.217 331.016,411.827 316.533,411.827L155.826,411.827C143.531,411.827 133.565,401.861 133.565,389.566L133.565,367.305C133.565,342.717 153.498,322.783 178.087,322.783L288.021,322.783C308.451,322.783 326.259,336.687 331.214,356.507Z" style="fill:rgb(190,156,193);fill-rule:nonzero;"/>
    <path d="M70.362,474.243L75.25,498.687C76.627,505.574 71.359,512 64.336,512L11.13,512C4.983,512 0,507.017 0,500.87L0,478.609C0,466.314 9.966,456.348 22.261,456.348L48.533,456.348C59.145,456.348 68.281,463.837 70.362,474.243Z" style="fill:rgb(210,56,108);fill-rule:nonzero;"/>
</svg>
